<?xml version="1.0" standalone="no"?>
<!DOCTYPE svg PUBLIC "-//W3C//DTD SVG 1.1//EN" "http://www.w3.org/Graphics/SVG/1.1/DTD/svg11.dtd" >
<svg xmlns="http://www.w3.org/2000/svg" xmlns:xlink="http://www.w3.org/1999/xlink" version="1.1">
<metadata>
Created by FontForge 20170731 at Thu Jun  1 20:58:35 2023
 By Aleksey,,,
Copyright (c) 2018 by Meredith Mandel. All rights reserved.
</metadata>
<defs>
<font id="ChunkFive-Regular" horiz-adv-x="1228" >
  <font-face 
    font-family="ChunkFive"
    font-weight="400"
    font-stretch="normal"
    units-per-em="2048"
    panose-1="0 0 5 0 0 0 0 0 0 0"
    ascent="1536"
    descent="-512"
    x-height="1024"
    cap-height="1432"
    bbox="-1024 -700 2220 1985"
    underline-thickness="102"
    underline-position="-307"
    unicode-range="U+0020-25CA"
  />
<missing-glyph horiz-adv-x="573" 
 />
    <glyph glyph-name=".notdef" horiz-adv-x="573" 
 />
    <glyph glyph-name=".null" horiz-adv-x="0" 
 />
    <glyph glyph-name="nonmarkingreturn" horiz-adv-x="682" 
 />
    <glyph glyph-name="space" unicode=" " horiz-adv-x="512" 
 />
    <glyph glyph-name="exclam" unicode="!" horiz-adv-x="630" 
d="M176 526l-110 516v390h489v-390l-109 -516h-270zM57 209q0 83 65 150t169 67q106 0 175 -63.5t69 -153.5q0 -89 -67 -150t-177 -61q-97 0 -165.5 64.5t-68.5 146.5z" />
    <glyph glyph-name="quotedbl" unicode="&#x22;" horiz-adv-x="1032" 
d="M72 1436h393l-62 -613h-256zM567 1436h394l-74 -613h-256z" />
    <glyph glyph-name="numbersign" unicode="#" horiz-adv-x="1536" 
d="M143 887v278h316l96 375h270l-96 -375h275l96 375h270l-96 -375h231v-278h-301l-59 -234h248v-278h-320l-94 -377l-270 4l94 373h-275l-94 -377l-270 4l94 373h-227v278h299l59 234h-246zM659 887l-59 -234h274l60 234h-275z" />
    <glyph glyph-name="dollar" unicode="$" horiz-adv-x="1234" 
d="M459 1589h289v-213q76 -37 114 -100l17 115h299v-480h-316q0 105 -64 166.5t-163 61.5q-44 0 -82.5 -28.5t-38.5 -76.5q0 -40 38 -72.5t99 -57.5t134.5 -51t147 -62t134.5 -82.5t99 -120t38 -166.5q0 -86 -27.5 -155t-72 -113t-105 -73.5t-122.5 -42t-129 -13.5v-211
h-289v268q-54 29 -107 76l-22 -123h-299v493h321q0 -58 26.5 -98.5t69.5 -60t79 -27.5t73 -10q26 0 49 4t47.5 14t39 31t14.5 51q0 27 -28.5 50t-75.5 40.5t-107 40t-122 46t-122 61t-107 82.5t-75.5 113.5t-28.5 150.5q0 97 34 174.5t90 124t120 72t131 30.5v172z" />
    <glyph glyph-name="percent" unicode="%" horiz-adv-x="1906" 
d="M453 627q-187 0 -304.5 115.5t-117.5 308.5q0 121 59.5 218t153.5 148t200 51q198 0 310 -114.5t112 -309.5q0 -185 -110 -301t-303 -116zM618 0h-231l885 1432h233zM453 815q47 0 76.5 62.5t29.5 166.5q0 101 -33 166.5t-80 65.5q-41 2 -75.5 -61t-34.5 -164
q0 -104 37 -170t80 -66zM1462 0q-187 0 -304.5 115.5t-117.5 308.5q0 121 59.5 218t154 148.5t200.5 51.5q198 0 310 -114.5t112 -309.5q0 -185 -110.5 -301.5t-303.5 -116.5zM1462 188q47 0 77 63t30 167q0 101 -33 166t-80 65q-41 2 -75.5 -61t-34.5 -164
q0 -104 36.5 -170t79.5 -66z" />
    <glyph glyph-name="ampersand" unicode="&#x26;" horiz-adv-x="1579" 
d="M20 420q0 53 14.5 105t47.5 107.5t94 108.5t146 97q-64 41 -107 116t-43 154q0 64 32.5 126.5t88.5 112t139.5 79.5t177.5 30q92 0 168 -21t126.5 -56t86 -80.5t51 -93.5t15.5 -97q0 -58 -20.5 -108t-55.5 -86t-74 -61.5t-84 -43.5l191 -191q56 105 106 273h439v-258
h-201q-47 -136 -117 -242l127 -125h119v-266h-305l-133 131q-81 -74 -210.5 -116t-275.5 -42q-249 0 -396 126.5t-147 320.5zM727 1102q0 51 -29 88t-90 37q-44 0 -73 -35.5t-29 -77.5q0 -96 123 -147q7 -3 30.5 14.5t45.5 52t22 68.5zM403 432q0 -70 51 -113t115 -43
q57 0 124.5 21.5t117.5 64.5l-260 256h-8q-53 -33 -96.5 -84t-43.5 -102z" />
    <glyph glyph-name="quotesingle" unicode="'" horiz-adv-x="559" 
d="M74 1436h405l-73 -613h-256z" />
    <glyph glyph-name="parenleft" unicode="(" horiz-adv-x="794" 
d="M532 1669l211 -217q-35 -43 -49.5 -60.5t-55 -74t-62 -97.5t-54.5 -112t-50 -136.5t-30.5 -153.5t-13.5 -179q0 -131 22.5 -251t52.5 -203t78 -166t81.5 -127.5t80.5 -100.5l-211 -219q-69 63 -135 143t-129.5 185.5t-111 219t-76.5 249t-29 270.5q0 138 34 278t86 251.5
t118.5 213.5t126.5 170.5t116 116.5z" />
    <glyph glyph-name="parenright" unicode=")" horiz-adv-x="794" 
d="M51 1450l211 217q56 -48 116 -116.5t126.5 -170.5t118.5 -213.5t86 -251.5t34 -278q0 -135 -29 -270.5t-76.5 -249t-111 -219t-129.5 -185.5t-135 -143l-211 219q47 56 80.5 100t82 127.5t78.5 166.5t52.5 203t22.5 251q0 72 -8.5 141.5t-19.5 125t-33 115.5t-37.5 99
t-46 90.5t-45 75.5t-48 67.5t-41 53t-37.5 45.5z" />
    <glyph glyph-name="asterisk" unicode="*" horiz-adv-x="845" 
d="M772 807l-186 -143l-162 227l-170 -234l-180 152l178 192l-242 84l84 201l234 -108l-27 254h252l-33 -261l232 115l84 -201l-248 -81z" />
    <glyph glyph-name="plus" unicode="+" horiz-adv-x="1120" 
d="M1069 891v-266h-375v-375h-266v375h-377v266h377v377h266v-377h375z" />
    <glyph glyph-name="comma" unicode="," horiz-adv-x="557" 
d="M223 -397l-235 133q115 144 161.5 293.5t32.5 371.5l373 -98q6 -194 -82.5 -375.5t-249.5 -324.5z" />
    <glyph glyph-name="hyphen" unicode="-" horiz-adv-x="696" 
d="M51 352v273h594v-273h-594z" />
    <glyph glyph-name="period" unicode="." horiz-adv-x="528" 
d="M31 213q0 87 63 160t168 73t170.5 -73.5t65.5 -159.5q0 -96 -62 -158.5t-174 -62.5q-98 0 -164.5 68t-66.5 153z" />
    <glyph glyph-name="slash" unicode="/" horiz-adv-x="1073" 
d="M301 -164l-291 4l762 1700h291z" />
    <glyph glyph-name="zero" unicode="0" horiz-adv-x="1226" 
d="M618 -25q-130 0 -236.5 46.5t-185 137.5t-122 235t-43.5 329q0 214 73 382t204.5 260.5t299.5 92.5q148 0 260.5 -53t184 -152t107.5 -235.5t36 -308.5q0 -344 -151 -539t-427 -195zM618 293q72 0 119 115.5t47 300.5q0 182 -51 300.5t-127 118.5q-62 2 -116 -113
t-54 -292q0 -187 57.5 -308.5t124.5 -121.5z" />
    <glyph glyph-name="one" unicode="1" horiz-adv-x="1015" 
d="M145 936l-94 227q8 4 37.5 18t38.5 18.5t35 18.5t38 22.5t36 24.5t41 31t40 36t45.5 46t47.5 54h364v-1160h191v-272h-820v272h205v760z" />
    <glyph glyph-name="two" unicode="2" horiz-adv-x="1208" 
d="M289 967l-221 233q219 254 532 254q136 0 246.5 -53.5t175.5 -156.5t65 -238q0 -70 -14.5 -126t-36.5 -96t-68.5 -83.5t-88.5 -73.5t-119 -80q-85 -54 -180 -136t-127 -139h360v164h344v-436h-1106v297q83 135 140.5 201.5t158.5 146.5q43 38 116 88.5t122 84t87 79.5
t38 90q0 135 -172 135q-39 0 -75.5 -13t-71.5 -41.5t-53.5 -46.5t-51.5 -54z" />
    <glyph glyph-name="three" unicode="3" horiz-adv-x="1105" 
d="M508 -27q-141 0 -277.5 69.5t-199.5 162.5l209 217q65 -65 127 -99t143 -34q87 0 135.5 40.5t48.5 116.5q0 150 -170 150h-153v244h149q76 0 125 37t49 104q0 78 -54 120t-126 42q-58 0 -122 -33t-118 -90l-198 240q66 72 188.5 133t249.5 61q247 0 384.5 -117.5
t137.5 -316.5q0 -49 -15 -92t-42 -76.5t-46.5 -52t-47.5 -39.5q190 -135 190 -336q0 -88 -32.5 -163t-87.5 -127t-128 -89t-154 -54.5t-165 -17.5z" />
    <glyph glyph-name="four" unicode="4" horiz-adv-x="1196" 
d="M20 403v293l590 736h424v-807h109v-222h-109v-133h111v-270h-664v270h129v133h-590zM307 625h303v379z" />
    <glyph glyph-name="five" unicode="5" horiz-adv-x="1181" 
d="M539 -27q-150 0 -296 74.5t-212 173.5l223 232q70 -72 137.5 -112t149.5 -40q102 0 163.5 57.5t61.5 147.5q0 82 -61 140.5t-148 58.5q-44 0 -82.5 -16t-60.5 -33.5t-49 -45.5l-263 117l125 705h811v-306h-551l-34 -198q74 49 221 49q91 0 176 -32t152.5 -91t108 -153
t40.5 -209q0 -100 -35 -185.5t-95 -146t-138.5 -103.5t-166 -63.5t-177.5 -20.5z" />
    <glyph glyph-name="six" unicode="6" horiz-adv-x="1189" 
d="M1118 1292l-139 -266q-53 31 -84 47.5t-94.5 36.5t-120.5 20q-110 -3 -181 -81t-87 -197q42 42 115.5 71.5t152.5 32.5q130 5 239.5 -50.5t174.5 -162.5t65 -243q0 -138 -61.5 -253t-184 -187.5t-284.5 -77.5q-256 -8 -421.5 165t-174.5 476q-1 65 3 131t19.5 149.5
t41.5 156.5t73 145.5t108.5 125t153.5 86.5t203 37q108 3 252 -43t231 -119zM627 662q-64 -3 -121 -39.5t-90 -77.5q0 -40 11.5 -81t34 -78t60 -60t84.5 -23q78 0 133 51.5t54 124.5q-2 72 -42 128t-124 55z" />
    <glyph glyph-name="seven" unicode="7" horiz-adv-x="1159" 
d="M31 1026v406h1108v-273l-551 -1159h-443l549 1159h-336v-133h-327z" />
    <glyph glyph-name="eight" unicode="8" horiz-adv-x="1144" 
d="M31 420q0 103 61.5 206.5t159.5 153.5q-73 44 -113.5 119.5t-40.5 153.5q0 175 131.5 289t356.5 114q231 0 360 -113t129 -290q0 -96 -49.5 -170t-122.5 -109q100 -49 155.5 -147t55.5 -207q0 -193 -149 -320t-392 -127q-249 0 -395.5 126.5t-146.5 320.5zM735 1069
q0 55 -45 92t-108 37q-60 0 -104 -39t-44 -90q0 -40 21 -68t56 -41.5t65 -19t61 -6.5q42 20 70 56t28 79zM385 432q0 -71 56 -119.5t134 -48.5q80 0 134 43.5t55 124.5q0 50 -26.5 87.5t-69.5 56.5t-83 27.5t-81 10.5q-49 -28 -84 -78t-35 -104z" />
    <glyph glyph-name="nine" unicode="9" horiz-adv-x="1202" 
d="M72 143l139 267q55 -32 84.5 -48t93.5 -36.5t121 -20.5q117 3 184 75t66 204q-99 -99 -250 -105q-130 -5 -239.5 50.5t-174.5 163t-65 243.5q0 138 61.5 253t184 187.5t284.5 77.5q126 4 235 -38.5t190.5 -124t130 -204.5t52.5 -274q2 -73 -3 -143.5t-21.5 -154
t-44 -155.5t-75.5 -141.5t-111 -119.5t-155 -82t-204 -35q-109 -3 -252.5 42.5t-230.5 118.5zM563 774q102 4 193 117q0 41 -9 81t-27.5 77.5t-53.5 60.5t-82 23q-78 0 -133 -52t-54 -125q2 -72 42 -127.5t124 -54.5z" />
    <glyph glyph-name="colon" unicode=":" horiz-adv-x="520" 
d="M31 823q0 85 62 157.5t165 72.5t167 -72.5t64 -157.5q0 -94 -62.5 -155.5t-168.5 -61.5q-93 0 -160 67.5t-67 149.5zM31 201q0 85 62 157t165 72t167 -72t64 -157q0 -92 -64.5 -154.5t-166.5 -62.5q-96 0 -161.5 67t-65.5 150z" />
    <glyph glyph-name="semicolon" unicode=";" horiz-adv-x="618" 
d="M121 788q0 87 63 160.5t168 73.5t170.5 -74t65.5 -160q0 -95 -64 -158t-172 -63q-94 0 -162.5 68.5t-68.5 152.5zM10 -264l236 -133q161 143 249.5 324.5t82.5 375.5l-373 98q14 -222 -33 -371.5t-162 -293.5z" />
    <glyph glyph-name="less" unicode="&#x3c;" horiz-adv-x="1124" 
d="M72 694v256l880 363l101 -250l-627 -240l627 -241l-101 -250z" />
    <glyph glyph-name="equal" unicode="=" horiz-adv-x="946" 
d="M51 805v272h844v-272h-844zM51 352v273h844v-273h-844z" />
    <glyph glyph-name="greater" unicode="&#x3e;" horiz-adv-x="1124" 
d="M1053 952v-256l-881 -362l-100 250l626 239l-626 242l100 250z" />
    <glyph glyph-name="question" unicode="?" horiz-adv-x="1064" 
d="M225 977l-221 223q109 127 245.5 195.5t287.5 68.5q138 0 247 -46.5t174.5 -143t65.5 -230.5q0 -54 -18 -102t-46.5 -83t-63.5 -66t-70 -56.5t-63.5 -49t-46.5 -48t-18 -49.5v-113h-379l-2 164q0 44 24 87.5t60.5 77t78.5 68t78.5 61.5t60.5 57.5t24 56.5q0 96 -151 96
q-61 0 -134.5 -49.5t-132.5 -118.5zM264 209q0 83 65 150t169 67q106 0 174.5 -63.5t68.5 -153.5q0 -89 -67 -150t-176 -61q-97 0 -165.5 64.5t-68.5 146.5z" />
    <glyph glyph-name="at" unicode="@" horiz-adv-x="1595" 
d="M797 924q111 0 200 -107l13 82l202 -27l-82 -583q3 0 3 -2q40 -25 75 -25q58 0 101 30.5t64.5 79t31.5 96.5t10 95q0 116 -44.5 217t-125.5 176t-202 118.5t-267 43.5q-119 0 -220 -42.5t-168.5 -110.5t-115 -154.5t-69 -174.5t-21.5 -171q0 -124 49.5 -237t133.5 -195.5
t201.5 -131t248.5 -48.5q86 0 166.5 15.5t134 37.5t95 43.5t60.5 36.5l19 16l99 -141q-9 -7 -25 -19.5t-72 -43.5t-117.5 -54.5t-159.5 -43t-200 -19.5q-157 0 -303 57t-257 157.5t-178 249t-67 320.5q0 106 28 217.5t89.5 221.5t148.5 195.5t217 139t283 53.5
q185 0 338.5 -57t256 -155.5t158.5 -231.5t56 -285q0 -47 -7.5 -96.5t-23 -104.5t-45 -103t-69.5 -87t-100 -61.5t-132 -22.5q-129 16 -184 68q-75 -55 -138.5 -77t-131.5 -22t-134.5 30.5t-119 83.5t-85 133t-32.5 171q0 73 27.5 150t77.5 144.5t131.5 111t177.5 43.5z
M926 311l39 267q-69 141 -168 141q-85 0 -137 -78.5t-52 -165.5q0 -93 44.5 -153t101.5 -60q89 0 172 49z" />
    <glyph glyph-name="A" unicode="A" horiz-adv-x="1685" 
d="M1655 268v-268h-821v268h194l-43 140h-420l-43 -140h160v-268h-651v268h139l276 899h-84v265h787l362 -1164h144zM774 1096l-133 -443h268z" />
    <glyph glyph-name="B" unicode="B" horiz-adv-x="1406" 
d="M829 0h-778v266h119v901h-119v265h764q251 0 376.5 -90.5t125.5 -260.5q0 -131 -43.5 -201.5t-157.5 -115.5q120 -33 195 -120t75 -228q0 -218 -131 -317t-426 -99zM723 1161h-129v-307h125q78 0 108.5 39.5t30.5 118.5q0 69 -37.5 109t-97.5 40zM594 266h164
q68 0 117 48t49 128q0 81 -45 131t-127 50h-158v-357z" />
    <glyph glyph-name="C" unicode="C" horiz-adv-x="1404" 
d="M1135 518l239 -262q-115 -128 -273.5 -208.5t-346.5 -80.5q-328 0 -525.5 197.5t-197.5 537.5q0 136 39 258.5t103 211t145 154t167.5 98t167.5 32.5q71 0 131.5 -17t98.5 -44t56.5 -44.5t29.5 -33.5l47 115h321v-582h-366q-5 109 -60 183.5t-157 74.5
q-108 0 -176 -117.5t-68 -288.5q0 -104 33 -190t102.5 -140.5t163.5 -54.5q31 0 63 8t58 20.5t53 30.5t46.5 34t40 36t31 32t22.5 26z" />
    <glyph glyph-name="D" unicode="D" horiz-adv-x="1474" 
d="M668 0h-617v272h127v889h-127v271h625q182 0 330 -54t245.5 -148t150 -221t52.5 -274q0 -351 -204.5 -543t-581.5 -192zM983 735q0 85 -18 159.5t-53.5 135t-96.5 96t-139 35.5h-78v-889h78q105 2 175.5 65.5t101 164t30.5 233.5z" />
    <glyph glyph-name="E" unicode="E" horiz-adv-x="1337" 
d="M51 1161v271h1235v-453h-354v182h-328v-282h389v-273h-389v-334h328v191h354v-463h-1235v272h129v889h-129z" />
    <glyph glyph-name="F" unicode="F" horiz-adv-x="1306" 
d="M51 1161v271h1225v-453h-363v182h-309v-356h389v-273h-389v-260h209v-272h-762v272h127v889h-127z" />
    <glyph glyph-name="G" unicode="G" horiz-adv-x="1589" 
d="M1067 0l-63 129q-36 -61 -126.5 -104t-203.5 -43q-134 0 -251.5 51t-204.5 142.5t-137 228t-50 298.5t53.5 305t141 240t201 153t232.5 56q71 0 131 -11t97.5 -26t70.5 -37.5t48 -38t32.5 -36t20.5 -23.5l43 148h305v-605h-367q-4 120 -71 190t-162 70q-81 0 -146 -53.5
t-100 -141.5t-35 -190q0 -162 75.5 -269t205.5 -107q80 0 125 26.5t72 73.5v86h-125v219h680v-219h-82v-512h-410z" />
    <glyph glyph-name="H" unicode="H" horiz-adv-x="1572" 
d="M51 1161v271h664v-271h-127v-309h389v309h-121v271h666v-271h-119v-891h119v-270h-666v270h121v310h-389v-310h127v-270h-664v270h113v891h-113z" />
    <glyph glyph-name="I" unicode="I" horiz-adv-x="782" 
d="M51 1161v271h680v-271h-127v-889h127v-272h-680v272h129v889h-129z" />
    <glyph glyph-name="J" unicode="J" horiz-adv-x="948" 
d="M43 -395l-2 270q41 -18 92 -18q170 0 170 295v1011h-176v269h770v-269h-170v-1011q0 -139 -31 -242.5t-98.5 -178t-179.5 -112t-268 -37.5q-48 0 -107 23z" />
    <glyph glyph-name="K" unicode="K" horiz-adv-x="1669" 
d="M696 1432v-265h-110v-333l381 333h-148v265h682v-265h-119l-297 -256l414 -645h119v-266h-799v266h139l-221 348l-151 -129v-219h110v-266h-645v266h111v901h-111v265h645z" />
    <glyph glyph-name="L" unicode="L" horiz-adv-x="1249" 
d="M51 1161v271h647v-271h-108v-889h264v260h344v-532h-1147v272h113v889h-113z" />
    <glyph glyph-name="M" unicode="M" horiz-adv-x="2064" 
d="M1481 1071h-8q-30 -174 -60 -274l-215 -797h-428l-229 817q-35 124 -43 254h-9v-807h117v-264h-555v264h111v903h-109v265h776l207 -766l197 766h780v-265h-112v-901h112v-266h-647v266h117l-2 684v121z" />
    <glyph glyph-name="N" unicode="N" horiz-adv-x="1671" 
d="M1620 1432v-265h-135v-1167h-441l-522 780v-516h158v-264h-629v264h121v903h-119v265h588l504 -752l-2 487h-139v265h616z" />
    <glyph glyph-name="O" unicode="O" horiz-adv-x="1515" 
d="M764 -37q-162 0 -295.5 47.5t-231.5 140t-152 238.5t-54 334q0 218 91 388.5t254.5 264.5t373.5 94q185 0 326 -54t230 -154t134 -239t45 -314q0 -350 -188.5 -548t-532.5 -198zM764 285q96 0 152.5 116t56.5 308q0 129 -22.5 226.5t-74.5 158.5t-128 61q-93 1 -152 -120
t-59 -312q0 -198 63.5 -318t163.5 -120z" />
    <glyph glyph-name="P" unicode="P" horiz-adv-x="1310" 
d="M51 1163v269h664q138 0 240.5 -24t164 -63t98 -97.5t49.5 -118.5t13 -136q0 -130 -74.5 -223.5t-194.5 -137.5t-270 -44h-155v-318h125v-270h-660v270h115v893h-115zM688 1165h-102v-356h92q91 0 146 45t55 125q0 90 -50.5 138t-140.5 48z" />
    <glyph glyph-name="Q" unicode="Q" horiz-adv-x="1546" 
d="M731 0q-156 0 -284 46t-221 135t-144 227.5t-51 316.5q0 315 190.5 514t497.5 199q178 0 312.5 -52t219 -148.5t126.5 -228.5t42 -298q0 -327 -170 -512q15 -60 35.5 -96.5t54.5 -36.5q41 0 41 92v59h136v-104q0 -143 -80 -235.5t-228 -92.5q-118 0 -199 64t-118 163
q-74 -12 -160 -12zM731 711q118 0 230 -80q4 50 4 80q0 182 -68.5 305t-179.5 123q-94 2 -165 -118t-71 -296q0 -66 8 -113q95 99 242 99zM731 307q58 0 109 45q-12 85 -36 128.5t-73 43.5q-84 0 -137 -149q62 -68 137 -68z" />
    <glyph glyph-name="R" unicode="R" horiz-adv-x="1509" 
d="M51 1163v269h666q139 0 241 -22t164 -58.5t99 -93t50 -114.5t13 -134q0 -117 -83 -197.5t-214 -99.5q108 -15 188 -99t80 -192q0 -139 50 -139q47 0 47 65v68h137v-113q0 -53 -9 -99.5t-31 -89t-55.5 -73t-85.5 -48.5t-118 -18q-198 0 -297.5 99t-99.5 282q0 75 -6 115.5
t-28.5 69.5t-61.5 38t-109 9v-318h125v-270h-662v270h115v893h-115zM690 1165h-102v-348h92q91 0 144 43t53 123q0 90 -48.5 136t-138.5 46z" />
    <glyph glyph-name="S" unicode="S" horiz-adv-x="1454" 
d="M410 0h-359v516h381q0 -49 19 -86.5t46.5 -59t65 -35t67 -18.5t60.5 -6q43 0 78.5 7t65.5 31.5t30 64.5q0 25 -27 45.5t-72.5 36.5t-104.5 32t-124 36.5t-130 45.5t-124 63t-104.5 85.5t-72.5 116.5t-27 153q0 87 31.5 161.5t82 124.5t115 86t130.5 52t128 16
q141 0 255.5 -50t172.5 -158l21 172h352v-514h-371q0 110 -75 173.5t-187 63.5q-51 0 -96 -29t-45 -79q0 -33 27.5 -61.5t74.5 -50t108 -42t128.5 -43.5t134.5 -49.5t128 -64t108 -82.5t74.5 -109.5t27.5 -141.5q0 -92 -33.5 -167t-87.5 -124t-126 -82t-146 -47t-150 -14
q-143 0 -251.5 54.5t-176.5 134.5z" />
    <glyph glyph-name="T" unicode="T" horiz-adv-x="1435" 
d="M31 1432h1374v-533h-301v262h-172v-889h170v-272h-762v272h168v889h-176v-262h-301v533z" />
    <glyph glyph-name="U" unicode="U" horiz-adv-x="1509" 
d="M31 1165v267h651v-265h-111v-440q0 -99 9.5 -170.5t26 -116t43 -70t56 -35t70.5 -9.5q51 0 86.5 16t64 58t42.5 123t14 204v434h-111v271h607v-265h-111v-501q0 -363 -143.5 -532t-448.5 -169q-631 0 -631 701v499h-114z" />
    <glyph glyph-name="V" unicode="V" horiz-adv-x="1583" 
d="M860 459h10q6 92 74 260l186 446h-106l-2 267h582v-267h-101l-491 -1165h-377l-543 1165h-112v267h755l-2 -267h-110l174 -458q58 -175 63 -248z" />
    <glyph glyph-name="W" unicode="W" horiz-adv-x="2078" 
d="M655 463h11q3 49 100 508l102 461h426l129 -566q41 -187 62 -403h10q6 65 26 193t35 198l70 311h-113v267h586v-267h-112l-306 -1165h-485l-123 487q-28 109 -51 254h-8q-12 -95 -49 -249l-125 -492h-475l-271 1165h-114v267h675v-267h-118l53 -299q28 -117 65 -403z" />
    <glyph glyph-name="X" unicode="X" horiz-adv-x="1710" 
d="M731 264v-264h-680v264h178l301 391l-370 510h-107v267h811v-267h-119l201 -272l209 272h-180v267h680v-267h-174l-310 -395l369 -504h119v-266h-817v266h116l-198 266l-211 -268h182z" />
    <glyph glyph-name="Y" unicode="Y" horiz-adv-x="1370" 
d="M756 786h8q3 14 13 39.5t18.5 44.5t24.5 52t20 41l112 206h-112v263h551v-263h-111l-379 -665v-238h115v-266h-656v266h117v242l-397 661h-100v263h700v-263h-107l119 -217q5 -17 32.5 -82t31.5 -84z" />
    <glyph glyph-name="Z" unicode="Z" horiz-adv-x="1462" 
d="M412 893h-349v539h1344l4 -273l-749 -889h378l2 262h363v-532h-1354v266l746 895l-387 -2z" />
    <glyph glyph-name="bracketleft" unicode="[" horiz-adv-x="638" 
d="M639 1473h-326v-1627h326v-258h-578v2143h578v-258z" />
    <glyph glyph-name="backslash" unicode="\" horiz-adv-x="1073" 
d="M1063 -160l-291 -4l-762 1704h291z" />
    <glyph glyph-name="bracketright" unicode="]" horiz-adv-x="638" 
d="M578 1731v-2143h-578v258h326v1627h-326v258h578z" />
    <glyph glyph-name="asciicircum" unicode="^" horiz-adv-x="1222" 
d="M465 1434h297l440 -813h-364l-224 458l-229 -458h-365z" />
    <glyph glyph-name="underscore" unicode="_" horiz-adv-x="1431" 
d="M51 -2v170h1329v-170h-1329z" />
    <glyph glyph-name="grave" unicode="`" 
d="M102 1432l312 41l307 -236l-229 -41z" />
    <glyph glyph-name="a" unicode="a" 
d="M160 700l-86 238q243 145 446 145q79 0 152.5 -11.5t148.5 -42t130 -76.5t89.5 -121t34.5 -170v-400h123v-262h-438l-49 92q-51 -70 -129 -100.5t-148 -30.5q-60 0 -117 12.5t-109 39.5t-91 66.5t-62.5 97t-23.5 126.5q0 112 58.5 199t155 132.5t212.5 45.5
q55 0 103.5 -16.5t69.5 -31t29 -24.5v72q0 64 -51 89.5t-143 25.5q-133 0 -305 -95zM528 227q43 0 79.5 21t51.5 47v78q-35 59 -120 59q-59 0 -89 -29.5t-30 -78.5q0 -42 31 -69.5t77 -27.5z" />
    <glyph glyph-name="b" unicode="b" horiz-adv-x="1343" 
d="M524 0h-461v266h87v1002h-87v268h496v-592q34 39 113 67.5t155 28.5q113 0 205 -45t150 -120.5t88 -171t28 -199.5q-5 -239 -131.5 -383t-341.5 -144q-73 0 -127.5 14.5t-80.5 31t-62 47.5zM848 500q0 62 -18 119.5t-52.5 95t-77.5 37.5q-63 0 -107 -73t-38 -190
q0 -103 44 -174t103 -71q65 0 105.5 70t40.5 186z" />
    <glyph glyph-name="c" unicode="c" horiz-adv-x="1087" 
d="M1038 561h-301q-2 55 -13.5 100t-41.5 80t-74 35q-86 0 -133 -77t-47 -185q0 -103 57.5 -172t153.5 -70q78 -1 135.5 28t112.5 89l180 -209q-80 -87 -213.5 -148t-288.5 -61q-115 0 -215.5 35t-178.5 101t-123.5 172t-45.5 239q0 131 41.5 233.5t112.5 165t160 94
t190 31.5q157 0 256 -116l35 98h241v-463z" />
    <glyph glyph-name="d" unicode="d" horiz-adv-x="1298" 
d="M754 967v303h-95v266h510v-1270h99v-266h-480l-34 76q-20 -18 -47.5 -36t-87 -38t-123.5 -20q-140 0 -250.5 76t-168 198.5t-57.5 265.5q0 116 39 215.5t104.5 166t152 103.5t180.5 37q51 0 93.5 -7.5t77.5 -23t48 -22.5t39 -24zM461 522q0 -98 41.5 -175t105.5 -77
q63 0 107.5 73t38.5 189q0 103 -44.5 174.5t-103.5 71.5q-65 0 -105 -70t-40 -186z" />
    <glyph glyph-name="e" unicode="e" horiz-adv-x="1110" 
d="M907 340l172 -199q-111 -96 -237.5 -137t-290.5 -41q-79 0 -154 19.5t-146 63t-124 107t-85 157.5t-32 208q0 123 42.5 225t117 169t175 104t216.5 37q180 0 312.5 -82.5t177.5 -214.5q14 -40 22 -95t5 -125.5t-23 -125.5h-645q5 -23 10 -39t20 -43t35.5 -43.5
t58.5 -29.5t87 -13q46 0 82 4.5t94.5 27.5t109.5 66zM573 776q-44 0 -76 -17.5t-48 -46t-23.5 -52.5t-9.5 -48h309q-1 34 -6.5 59.5t-20.5 51t-46.5 39.5t-78.5 14z" />
    <glyph glyph-name="f" unicode="f" horiz-adv-x="790" 
d="M842 1522l-123 -236q-48 21 -113 21t-65 -109v-174h186v-266h-186v-490h123v-268h-611v268h82v490h-84v266h84v174q0 30 3 58t13 67t27 72t48.5 67t72.5 57.5t103.5 38.5t138.5 15q80 0 170.5 -15.5t130.5 -35.5z" />
    <glyph glyph-name="g" unicode="g" horiz-adv-x="1310" 
d="M49 -240l109 228q49 -42 151 -86.5t205 -44.5q66 0 114.5 17.5t74 46.5t37.5 61t12 67v70q-32 -41 -93 -77t-147 -36q-102 0 -186 28.5t-140 77t-94 115t-55 139t-17 152.5q0 243 133 384.5t382 141.5q64 0 123.5 -24.5t93.5 -58.5l41 63h487v-268h-123v-613
q0 -262 -162 -412t-477 -151q-104 1 -203.5 32.5t-159.5 68.5t-106 79zM457 522q0 -98 41.5 -175t105.5 -77q63 0 107.5 73t38.5 189q0 103 -44.5 174.5t-103.5 71.5q-65 0 -105 -70t-40 -186z" />
    <glyph glyph-name="h" unicode="h" horiz-adv-x="1353" 
d="M694 268v-268h-643v268h86v1002h-86v266h496v-639q26 42 124.5 103t196.5 61q66 0 119.5 -14t90.5 -37.5t64.5 -59t43.5 -72.5t25.5 -85t12.5 -90t3 -93v-342h96v-268h-526v557q0 30 -1 48t-7 48.5t-18 48.5t-36 32t-59 14q-37 0 -63.5 -17t-40 -46t-19.5 -60.5t-6 -67.5
v-289h147z" />
    <glyph glyph-name="i" unicode="i" horiz-adv-x="675" 
d="M109 1323q0 78 60.5 143.5t160.5 65.5q99 0 162 -66t63 -143q0 -89 -60 -148t-165 -59q-93 0 -157 64.5t-64 142.5zM625 268v-268h-574v268h86v490h-86v266h475v-756h99z" />
    <glyph glyph-name="j" unicode="j" horiz-adv-x="737" 
d="M233 1323q0 78 61 143.5t161 65.5q99 0 162 -66t63 -143q0 -89 -60 -148t-165 -59q-93 0 -157.5 65t-64.5 142zM262 143v615h-86v266h475v-881q0 -60 -5.5 -112t-22.5 -112t-45 -108t-75.5 -94t-111.5 -77t-156.5 -49.5t-205.5 -18.5v274q48 0 86 11.5t62 28t41.5 44.5
t25.5 50t12.5 56.5t5 52.5t0.5 48v6z" />
    <glyph glyph-name="k" unicode="k" horiz-adv-x="1339" 
d="M625 0h-547v266h84v1002h-84v268h473v-926l237 142h-147v270h573v-270h-157l-139 -88l276 -396h102v-268h-606v268h86l-155 221l-72 -49v-172h76v-268z" />
    <glyph glyph-name="l" unicode="l" horiz-adv-x="679" 
d="M649 268v-268h-598v268h88v1004h-86v264h475v-1268h121z" />
    <glyph glyph-name="m" unicode="m" horiz-adv-x="1859" 
d="M659 268v-268h-608v268h86v484h-86v270h387l45 -121q127 150 256 150q59 0 108.5 -11.5t78.5 -25.5t56 -38.5t37 -37.5t25 -35q130 148 302 148q96 0 167 -28t111.5 -72t65 -111.5t32 -132.5t7.5 -148v-283h100v-276h-520v502q0 12 0.5 34t0.5 37.5v37.5t-2 37.5t-5 33.5
t-9 30t-14.5 23t-20.5 16t-28 5q-62 0 -85.5 -38.5t-23.5 -111.5v-332h123v-274h-530v522q0 48 -0.5 75.5t-3.5 58t-8.5 46t-15 30t-23.5 19.5t-35 5q-49 0 -70.5 -29.5t-21.5 -93.5v-365h122z" />
    <glyph glyph-name="n" unicode="n" horiz-adv-x="1325" 
d="M682 268v-268h-631v268h86v490h-86v266h436l48 -127q120 164 292 164q92 0 160 -27t107.5 -69t63.5 -104t32 -121t8 -130v-342h96v-268h-516v559q0 89 -12 124q-26 66 -102 67q-37 0 -63.5 -17t-40 -46t-19.5 -60.5t-6 -67.5v-291h147z" />
    <glyph glyph-name="o" unicode="o" horiz-adv-x="1175" 
d="M594 -27q-112 0 -213.5 34.5t-183 100.5t-128.5 171.5t-46 236.5q1 100 32 186.5t85 149t125 108t152.5 67.5t166.5 22q163 -2 289.5 -65t201.5 -186t78 -290q1 -124 -42 -226.5t-119.5 -169t-178.5 -103t-219 -36.5zM594 236q64 0 101.5 76.5t37.5 195.5t-39.5 196
t-109.5 78q-60 0 -101 -77.5t-41 -190.5q0 -124 43 -201t109 -77z" />
    <glyph glyph-name="p" unicode="p" horiz-adv-x="1306" 
d="M51 -418v268h86v902h-86v272h469l35 -72q118 88 248 88q116 0 209.5 -42.5t152.5 -116.5t90 -170.5t31 -206.5q0 -159 -62 -280t-167.5 -184t-237.5 -63q-59 0 -109.5 10t-83.5 26t-47.5 25.5t-25.5 18.5v-207h111v-268h-613zM846 500q0 62 -18 119.5t-52.5 95
t-77.5 37.5q-63 0 -107 -73t-38 -190q0 -103 44 -174t103 -71q65 0 105.5 70t40.5 186z" />
    <glyph glyph-name="q" unicode="q" horiz-adv-x="1351" 
d="M651 -471v268h133v271q-42 -35 -110.5 -60.5t-151.5 -25.5q-98 0 -184 38t-149.5 106t-100.5 169.5t-37 222.5q0 129 38 231t105 165.5t155.5 96.5t191.5 33q89 0 156 -27t87 -54l39 61h477v-266h-100v-955h100v-274h-649zM784 526q0 98 -41.5 175t-105.5 77
q-63 0 -107 -72.5t-38 -189.5q0 -103 44 -174.5t103 -71.5q65 0 105 70t40 186z" />
    <glyph glyph-name="r" unicode="r" horiz-adv-x="847" 
d="M631 268v-268h-580v268h90v490h-88v266h385l62 -131q23 43 43 68.5t55 51t89 37t130 11.5v-354q-147 0 -218 -49.5t-71 -178.5v-211h103z" />
    <glyph glyph-name="s" unicode="s" horiz-adv-x="1040" 
d="M287 0h-256v369h274q0 -38 24.5 -67t61.5 -43.5t70.5 -21t60.5 -6.5q90 0 90 70q0 17 -16.5 30.5t-48.5 24.5t-66 20t-83.5 22t-86.5 26q-57 20 -102 45.5t-85.5 63.5t-62.5 94t-22 125q0 74 35.5 133.5t91 94t115.5 52t118 17.5q102 0 187.5 -46t118.5 -114l16 135h252
v-369h-266q0 63 -65 109.5t-144 46.5q-35 0 -57.5 -19t-22.5 -55q0 -16 12 -30t41 -27t52 -21.5t72.5 -24t74.5 -24.5q45 -15 68.5 -23.5t64 -26.5t63.5 -33.5t52 -41t44 -53t26 -66t11 -83.5q0 -139 -112.5 -223.5t-268.5 -84.5q-105 0 -189.5 43.5t-123.5 106.5z" />
    <glyph glyph-name="t" unicode="t" horiz-adv-x="743" 
d="M31 758v266h110v188l377 121v-309h195v-266h-195v-365q0 -9 -0.5 -31t-0.5 -33t1.5 -29.5t6 -28.5t11.5 -21t19 -16t29 -5q44 0 129 35v-262q-41 -17 -122 -28t-126 -11q-90 0 -151 22t-94 52t-50.5 94t-22 114.5t-6.5 147.5v365h-110z" />
    <glyph glyph-name="u" unicode="u" horiz-adv-x="1292" 
d="M31 754v270h495v-494q0 -136 25 -197t86 -61q55 0 92 44t37 112v326h-135v270h530v-752h101v-272h-388l-55 129q-1 -1 -20.5 -24t-27.5 -30.5t-30 -28.5t-40.5 -30t-46 -22t-59 -18t-67.5 -5q-226 0 -318.5 119t-92.5 381v283h-86z" />
    <glyph glyph-name="v" unicode="v" horiz-adv-x="1255" 
d="M668 332h8q2 35 19 102t42 123l99 207h-109v260h528v-260h-106l-354 -764h-318l-381 764h-96v260h623v-260h-103l94 -217q46 -134 54 -215z" />
    <glyph glyph-name="w" unicode="w" horiz-adv-x="1785" 
d="M578 313h4q19 266 84 482l65 229h379l78 -266q60 -194 88 -445h4q17 192 55 324l35 121h-84v266h500v-266h-84l-240 -758h-432l-141 463l-148 -463h-422l-231 758h-88v266h551v-266h-70l45 -150q20 -67 34 -154t18 -141z" />
    <glyph glyph-name="x" unicode="x" horiz-adv-x="1329" 
d="M768 768v256h522v-256h-135l-217 -219l258 -295h96v-254h-653v254h96l-155 166l-148 -166h133v-254h-524v254h137l209 235l-254 279h-92v256h664v-256h-97l144 -156l153 156h-137z" />
    <glyph glyph-name="y" unicode="y" horiz-adv-x="1187" 
d="M649 444l133 320h-94v260h520v-254h-98l-389 -946q-23 -49 -40 -80t-54.5 -75.5t-79.5 -70.5t-111.5 -45t-154.5 -18q-138 8 -248 103l153 241q67 -59 119 -69q44 -8 79 24.5t52 83.5l29 86l-399 758h-84v262h630v-260h-96z" />
    <glyph glyph-name="z" unicode="z" horiz-adv-x="1132" 
d="M317 614h-266v410h1014v-264l-487 -492h215v140h288v-408h-1030v268l494 492h-228v-146z" />
    <glyph glyph-name="braceleft" unicode="{" horiz-adv-x="643" 
d="M643 1479q-30 0 -53 -4.5t-45 -16.5t-38 -32.5t-28 -53.5t-17.5 -78t-5 -107t8.5 -140q26 -265 -143 -426q169 -165 143 -428q-7 -92 -8.5 -160t9.5 -116t25.5 -78.5t40 -48t51 -24t60.5 -6.5v-272q-206 0 -328 130.5t-100 365.5q25 257 -10 372.5t-144 132.5v261
q109 17 144 132.5t10 372.5q-22 235 100 365.5t328 130.5v-272z" />
    <glyph glyph-name="bar" unicode="|" horiz-adv-x="681" 
d="M205 1436h272v-1854h-272v1854z" />
    <glyph glyph-name="braceright" unicode="}" horiz-adv-x="643" 
d="M428 1255q-25 -257 10 -372.5t144 -132.5v-261q-109 -17 -144 -132.5t-10 -372.5q22 -235 -100 -365.5t-328 -130.5v272q35 0 60.5 6.5t51 24t40 48t25.5 78.5t9.5 116t-8.5 160q-26 262 144 428q-170 162 -144 426q8 78 8.5 140t-5 107t-17.5 78t-28 53.5t-38 32.5
t-45 16.5t-53 4.5v272q206 0 328 -130.5t100 -365.5z" />
    <glyph glyph-name="exclamdown" unicode="&#xa1;" horiz-adv-x="630" 
d="M291 1432q110 0 177 -61t67 -150q0 -90 -69 -153.5t-175 -63.5q-104 0 -169 67t-65 150q0 82 68.5 146.5t165.5 64.5zM176 903h270l109 -516v-389h-489v389z" />
    <glyph glyph-name="cent" unicode="&#xa2;" horiz-adv-x="1087" 
d="M887 389l180 -209q-80 -87 -213.5 -148t-288.5 -61q-21 0 -67 4l-68 -268h-139l74 293q-164 52 -263.5 184t-99.5 334q0 131 41.5 233.5t112.5 165t160 94t190 31.5q64 0 119 -20l104 410h139l-123 -488q15 -15 17 -18l35 98h241v-463h-301q-4 116 -47 172l-115 -450
q37 -11 64 -11q78 -1 135.5 28t112.5 89zM428 514q0 -73 33 -137l100 391q-64 -21 -98.5 -91.5t-34.5 -162.5z" />
    <glyph glyph-name="sterling" unicode="&#xa3;" horiz-adv-x="1181" 
d="M772 272v164h344v-436h-1048v227q68 46 122 120t54 167q0 30 -27 109h-217v202h145q-24 91 -24 181q0 135 65 238t175.5 156.5t246.5 53.5q314 0 533 -254l-221 -233q-33 36 -51.5 54t-53.5 46.5t-71.5 41.5t-75.5 13q-172 0 -172 -135q0 -55 43 -162h354v-202h-287
q8 -58 8 -91q0 -113 -86 -260h244z" />
    <glyph glyph-name="currency" unicode="&#xa4;" horiz-adv-x="1253" 
d="M1030 807q83 -122 82.5 -269.5t-82.5 -271.5l182 -182l-133 -133l-182 182q-122 -83 -269.5 -82.5t-271.5 82.5l-182 -182l-133 133l182 182q-83 122 -82.5 269.5t82.5 271.5l-182 182l133 133l182 -182q122 83 269.5 82.5t271.5 -82.5l182 182l133 -133zM791 373
q66 68 66.5 164.5t-66.5 162.5q-68 66 -165 66.5t-163 -66.5q-66 -68 -66.5 -164.5t66.5 -162.5q68 -66 165 -66.5t163 66.5z" />
    <glyph glyph-name="yen" unicode="&#xa5;" horiz-adv-x="1370" 
d="M840 1432h551v-263h-111l-229 -403h209v-141h-289l-70 -121h359v-142h-359v-96h115v-266h-656v266h117v96h-340v142h340v4l-69 117h-271v141h185l-242 403h-100v263h700v-263h-107l119 -217q5 -17 32.5 -82t31.5 -84h8q3 14 13 39.5t18.5 44.5t24.5 52t20 41l112 206
h-112v263z" />
    <glyph glyph-name="brokenbar" unicode="&#xa6;" horiz-adv-x="681" 
d="M205 1436h272v-725h-272v725zM205 408h272v-826h-272v826z" />
    <glyph glyph-name="dieresis" unicode="&#xa8;" 
d="M184 1096q-61 0 -104 43.5t-43 105.5q0 59 43 102.5t104 43.5q60 0 104 -43.5t44 -102.5q0 -61 -44 -105t-104 -44zM655 1096q-61 0 -105 44t-44 105q0 59 44 102.5t105 43.5q60 0 103 -43.5t43 -102.5q0 -61 -43 -105t-103 -44z" />
    <glyph glyph-name="copyright" unicode="&#xa9;" horiz-adv-x="1509" 
d="M756 -29q-150 0 -286 58.5t-234.5 157t-157 234.5t-58.5 286t58.5 286t157 234.5t234.5 156.5t286 58q198 0 367 -98.5t267.5 -267.5t98.5 -369q0 -149 -58.5 -285.5t-156.5 -235t-234 -157t-284 -58.5zM756 39q181 0 334 89.5t242 243.5t89 335q0 136 -52.5 259.5
t-142 213t-212.5 142t-258 52.5q-136 0 -259.5 -52.5t-213 -142t-142.5 -213t-53 -259.5q0 -182 89.5 -335.5t243 -243t335.5 -89.5zM1096 743h-217q-1 40 -9.5 73t-30 58t-53.5 25q-62 0 -96.5 -56t-34.5 -134q0 -74 41.5 -123.5t110.5 -50.5q101 -3 180 83l129 -149
q-59 -64 -154.5 -108t-207.5 -44q-83 0 -155.5 25t-129 73.5t-89 125t-32.5 172.5q0 95 30 169t81.5 119t115.5 68t136 23q108 0 186 -84l25 69h174v-334z" />
    <glyph glyph-name="guillemotleft" unicode="&#xab;" horiz-adv-x="1167" 
d="M639 942l-289 -471l289 -471h-309l-289 471l289 471h309zM1106 942l-289 -471l289 -471h-309l-289 471l289 471h309z" />
    <glyph glyph-name="registered" unicode="&#xae;" horiz-adv-x="1026" 
d="M514 453q-134 0 -247.5 66.5t-180 180.5t-66.5 248t66.5 247.5t180 180t247.5 66.5q133 0 246.5 -66.5t179.5 -180t66 -247.5q0 -100 -39 -191.5t-105 -158t-157.5 -106t-190.5 -39.5zM514 514q117 0 217 58t158.5 158t58.5 218t-58.5 218t-158.5 158t-217 58
q-180 0 -308 -127t-128 -307t128 -307t308 -127zM281 1114v98h247q122 0 166.5 -40.5t44.5 -114.5q0 -43 -31 -73t-79 -38q41 -6 70.5 -37t29.5 -71q0 -52 16 -52q19 0 19 25v25h51v-41q0 -53 -26 -87t-84 -34q-148 0 -148 141q0 53 -13.5 69.5t-62.5 16.5v-119h45v-100
h-245v100h43v332h-43zM518 1114h-37v-129h33q34 0 54 16.5t20 45.5q0 67 -70 67z" />
    <glyph glyph-name="macron" unicode="&#xaf;" 
d="M102 1389h922v-170h-922v170z" />
    <glyph glyph-name="degree" unicode="&#xb0;" horiz-adv-x="520" 
d="M260 1133q-91 0 -155 64t-64 153q0 91 64 155t155 64q90 0 154.5 -64.5t64.5 -154.5q0 -89 -65 -153t-154 -64zM260 1235q46 0 80.5 34.5t34.5 80.5q0 47 -34.5 81.5t-80.5 34.5q-49 0 -83 -34t-34 -82q0 -46 34 -80.5t83 -34.5z" />
    <glyph glyph-name="acute" unicode="&#xb4;" 
d="M721 1432l-389 -236l-230 41l308 236z" />
    <glyph glyph-name="periodcentered" unicode="&#xb7;" horiz-adv-x="528" 
d="M31 680q0 87 63 160t168 73t170.5 -73.5t65.5 -159.5q0 -96 -62 -158.5t-174 -62.5q-98 0 -164.5 68t-66.5 153z" />
    <glyph glyph-name="cedilla" unicode="&#xb8;" 
d="M197 -211l20 240h107l-9 -144q11 20 46.5 43t89.5 27q90 6 155.5 -51.5t65.5 -157.5q0 -112 -85.5 -176t-195.5 -64q-82 0 -147 27t-101 66l101 96q21 -22 60.5 -33.5t78.5 -9.5q57 3 81.5 23t24.5 61q0 84 -77 84q-29 0 -54 -18.5t-28 -37.5z" />
    <glyph glyph-name="guillemotright" unicode="&#xbb;" horiz-adv-x="1175" 
d="M350 942l289 -471l-289 -471h-309l289 471l-289 471h309zM825 942l289 -471l-289 -471h-309l289 471l-289 471h309z" />
    <glyph glyph-name="questiondown" unicode="&#xbf;" horiz-adv-x="1064" 
d="M801 940q0 -83 -65 -150t-169 -67q-106 0 -174.5 63.5t-68.5 153.5q0 89 67 150t176 61q97 0 165.5 -64.5t68.5 -146.5zM1061 -51l-221 223q-59 -69 -132.5 -118.5t-134.5 -49.5q-151 0 -151 96q0 26 24 56.5t60.5 57.5t78.5 61.5t78.5 68t60.5 77t24 87.5l-3 164h-378
v-113q0 -33 -33.5 -68t-81.5 -70t-96 -76.5t-81.5 -104t-33.5 -136.5q0 -101 37.5 -181.5t104 -132t154.5 -78.5t191 -27q151 0 287.5 68.5t245.5 195.5z" />
    <glyph glyph-name="Agrave" unicode="&#xc0;" horiz-adv-x="1685" 
d="M535 1839l311 41l307 -235l-229 -41zM1655 268v-268h-821v268h194l-43 140h-420l-43 -140h160v-268h-651v268h139l276 899h-84v265h787l362 -1164h144zM774 1096l-133 -443h268z" />
    <glyph glyph-name="Aacute" unicode="&#xc1;" horiz-adv-x="1685" 
d="M1153 1839l-389 -235l-229 41l307 235zM1655 268v-268h-821v268h194l-43 140h-420l-43 -140h160v-268h-651v268h139l276 899h-84v265h787l362 -1164h144zM774 1096l-133 -443h268z" />
    <glyph glyph-name="Acircumflex" unicode="&#xc2;" horiz-adv-x="1685" 
d="M844 1712l-135 -180l-238 72l277 235h190l276 -235l-237 -72zM1511 268h144v-268h-821v268h194l-43 140h-420l-43 -140h160v-268h-651v268h139l276 899h-84v265h787zM641 653h268l-135 443z" />
    <glyph glyph-name="Atilde" unicode="&#xc3;" horiz-adv-x="1685" 
d="M981 1542q-37 -1 -70 13t-56 35t-43.5 41.5t-42 34t-42.5 11.5q-28 -3 -60 -47t-34 -63l-146 88q27 91 81.5 144t133.5 56q38 2 71.5 -12t56.5 -35t43 -42t41.5 -34.5t43.5 -11.5q28 3 58 44.5t39 66.5l143 -88q-27 -92 -82 -145t-135 -56zM1655 268v-268h-821v268h194
l-43 140h-420l-43 -140h160v-268h-651v268h139l276 899h-84v265h787l362 -1164h144zM774 1096l-133 -443h268z" />
    <glyph glyph-name="Adieresis" unicode="&#xc4;" horiz-adv-x="1685" 
d="M608 1503q-61 0 -104 44t-43 106q0 59 43 102t104 43q60 0 104 -43t44 -102q0 -61 -44 -105.5t-104 -44.5zM1079 1503q-61 0 -105 44t-44 106q0 59 44 102t105 43q60 0 103 -43t43 -102q0 -62 -43 -106t-103 -44zM1655 268v-268h-821v268h194l-43 140h-420l-43 -140h160
v-268h-651v268h139l276 899h-84v265h787l362 -1164h144zM774 1096l-133 -443h268z" />
    <glyph glyph-name="Aring" unicode="&#xc5;" horiz-adv-x="1685" 
d="M844 1493q-86 0 -147.5 61.5t-61.5 147.5t61.5 147.5t147.5 61.5t147.5 -61.5t61.5 -147.5t-61.5 -147.5t-147.5 -61.5zM844 1626q31 0 53.5 22.5t22.5 53.5t-22.5 53.5t-53.5 22.5t-53.5 -22.5t-22.5 -53.5t22.5 -53.5t53.5 -22.5zM1655 268v-268h-821v268h194l-43 140
h-420l-43 -140h160v-268h-651v268h139l276 899h-84v265h787l362 -1164h144zM774 1096l-133 -443h268z" />
    <glyph glyph-name="AE" unicode="&#xc6;" horiz-adv-x="2211" 
d="M2161 979h-355v182h-327v-282h389v-273h-389v-334h327v191h355v-463h-1327v268h192v140h-422l-82 -140h160v-268h-651v268h139l526 899h-84v265h1549v-453zM1026 653v525l-278 -525h278z" />
    <glyph glyph-name="Ccedilla" unicode="&#xc7;" horiz-adv-x="1404" 
d="M754 -33h-27l-4 -82q11 21 46 43.5t89 26.5q90 6 155.5 -51.5t65.5 -157.5q0 -112 -85 -176t-195 -64q-82 0 -147 27t-101 66l100 96q21 -22 61 -33.5t79 -9.5q57 3 81.5 23t24.5 61q0 39 -19.5 61.5t-58.5 22.5q-29 0 -54 -18.5t-28 -37.5l-133 25l17 188
q-272 39 -431 230.5t-159 494.5q0 136 39 258.5t103 211t145 154t167.5 98t167.5 32.5q71 0 131.5 -17t98.5 -44t56.5 -44.5t29.5 -33.5l47 115h321v-582h-366q-5 109 -60 183.5t-157 74.5q-108 0 -176 -117.5t-68 -288.5q0 -104 33 -190t102.5 -140.5t163.5 -54.5
q31 0 63 8t58 20.5t53 30.5t46.5 34t40 36t31 32t22.5 26l12 14l239 -262q-115 -128 -273.5 -208.5t-346.5 -80.5z" />
    <glyph glyph-name="Egrave" unicode="&#xc8;" horiz-adv-x="1337" 
d="M360 1839l312 41l307 -235l-229 -41zM51 1161v271h1235v-453h-354v182h-328v-282h389v-273h-389v-334h328v191h354v-463h-1235v272h129v889h-129z" />
    <glyph glyph-name="Eacute" unicode="&#xc9;" horiz-adv-x="1337" 
d="M979 1839l-389 -235l-230 41l308 235zM51 1161v271h1235v-453h-354v182h-328v-282h389v-273h-389v-334h328v191h354v-463h-1235v272h129v889h-129z" />
    <glyph glyph-name="Ecircumflex" unicode="&#xca;" horiz-adv-x="1337" 
d="M670 1712l-135 -180l-238 72l276 235h191l276 -235l-237 -72zM1286 979h-354v182h-328v-282h389v-273h-389v-334h328v191h354v-463h-1235v272h129v889h-129v271h1235v-453z" />
    <glyph glyph-name="Edieresis" unicode="&#xcb;" horiz-adv-x="1337" 
d="M434 1503q-61 0 -104 44t-43 106q0 59 43 102t104 43q60 0 104 -43t44 -102q0 -61 -44 -105.5t-104 -44.5zM905 1503q-61 0 -105 44t-44 106q0 59 44 102t105 43q60 0 103 -43t43 -102q0 -62 -43 -106t-103 -44zM51 1161v271h1235v-453h-354v182h-328v-282h389v-273h-389
v-334h328v191h354v-463h-1235v272h129v889h-129z" />
    <glyph glyph-name="Igrave" unicode="&#xcc;" horiz-adv-x="782" 
d="M82 1839l311 41l307 -235l-229 -41zM51 1161v271h680v-271h-127v-889h127v-272h-680v272h129v889h-129z" />
    <glyph glyph-name="Iacute" unicode="&#xcd;" horiz-adv-x="782" 
d="M700 1839l-389 -235l-229 41l307 235zM51 1161v271h680v-271h-127v-889h127v-272h-680v272h129v889h-129z" />
    <glyph glyph-name="Icircumflex" unicode="&#xce;" horiz-adv-x="782" 
d="M391 1712l-135 -180l-238 72l277 235h190l277 -235l-238 -72zM51 1161v271h680v-271h-127v-889h127v-272h-680v272h129v889h-129z" />
    <glyph glyph-name="Idieresis" unicode="&#xcf;" horiz-adv-x="782" 
d="M156 1503q-61 0 -104.5 44t-43.5 106q0 59 43.5 102t104.5 43q60 0 103.5 -43t43.5 -102q0 -61 -43.5 -105.5t-103.5 -44.5zM627 1503q-61 0 -105.5 44.5t-44.5 105.5q0 59 44.5 102t105.5 43q60 0 102.5 -43t42.5 -102q0 -62 -42.5 -106t-102.5 -44zM51 1161v271h680
v-271h-127v-889h127v-272h-680v272h129v889h-129z" />
    <glyph glyph-name="Eth" unicode="&#xd0;" horiz-adv-x="1474" 
d="M676 1432q182 0 330 -54t245.5 -148t150 -221t52.5 -274q0 -351 -204.5 -543t-581.5 -192h-617v272h127v297h-188v271h188v321h-127v271h625zM676 272q105 2 175.5 65.5t101 164t30.5 233.5q0 85 -18 159.5t-53.5 135t-96.5 96t-139 35.5h-78v-321h225v-271h-225v-297h78
z" />
    <glyph glyph-name="Ntilde" unicode="&#xd1;" horiz-adv-x="1671" 
d="M973 1542q-37 -1 -70 13t-56 35t-43.5 41.5t-42 34t-42.5 11.5q-28 -3 -60 -47t-34 -63l-146 88q27 91 81.5 144t133.5 56q38 2 71.5 -12t56.5 -35t43 -42t41.5 -34.5t43.5 -11.5q28 3 58 44.5t39 66.5l143 -88q-27 -92 -82 -145t-135 -56zM1620 1432v-265h-135v-1167
h-441l-522 780v-516h158v-264h-629v264h121v903h-119v265h588l504 -752l-2 487h-139v265h616z" />
    <glyph glyph-name="Ograve" unicode="&#xd2;" horiz-adv-x="1515" 
d="M449 1839l311 41l307 -235l-229 -41zM764 -37q-162 0 -295.5 47.5t-231.5 140t-152 238.5t-54 334q0 218 91 388.5t254.5 264.5t373.5 94q185 0 326 -54t230 -154t134 -239t45 -314q0 -350 -188.5 -548t-532.5 -198zM764 285q96 0 152.5 116t56.5 308q0 129 -22.5 226.5
t-74.5 158.5t-128 61q-93 1 -152 -120t-59 -312q0 -198 63.5 -318t163.5 -120z" />
    <glyph glyph-name="Oacute" unicode="&#xd3;" horiz-adv-x="1515" 
d="M1067 1839l-389 -235l-229 41l307 235zM764 -37q-162 0 -295.5 47.5t-231.5 140t-152 238.5t-54 334q0 218 91 388.5t254.5 264.5t373.5 94q185 0 326 -54t230 -154t134 -239t45 -314q0 -350 -188.5 -548t-532.5 -198zM764 285q96 0 152.5 116t56.5 308
q0 129 -22.5 226.5t-74.5 158.5t-128 61q-93 1 -152 -120t-59 -312q0 -198 63.5 -318t163.5 -120z" />
    <glyph glyph-name="Ocircumflex" unicode="&#xd4;" horiz-adv-x="1515" 
d="M758 1712l-135 -180l-238 72l277 235h190l276 -235l-237 -72zM750 1470q185 0 326 -54t230 -154t134 -239t45 -314q0 -350 -188.5 -548t-532.5 -198q-162 0 -295.5 47.5t-231.5 140t-152 238.5t-54 334q0 218 91 388.5t254.5 264.5t373.5 94zM764 285q96 0 152.5 116
t56.5 308q0 129 -22.5 226.5t-74.5 158.5t-128 61q-93 1 -152 -120t-59 -312q0 -198 63.5 -318t163.5 -120z" />
    <glyph glyph-name="Otilde" unicode="&#xd5;" horiz-adv-x="1515" 
d="M895 1542q-37 -1 -70 13t-56 35t-43.5 41.5t-42 34t-42.5 11.5q-28 -3 -60 -47t-34 -63l-146 88q27 91 81.5 144t133.5 56q38 2 71.5 -12t56.5 -35t43 -42t41.5 -34.5t43.5 -11.5q28 3 58 44.5t39 66.5l143 -88q-27 -92 -82 -145t-135 -56zM764 -37q-162 0 -295.5 47.5
t-231.5 140t-152 238.5t-54 334q0 218 91 388.5t254.5 264.5t373.5 94q185 0 326 -54t230 -154t134 -239t45 -314q0 -350 -188.5 -548t-532.5 -198zM764 285q96 0 152.5 116t56.5 308q0 129 -22.5 226.5t-74.5 158.5t-128 61q-93 1 -152 -120t-59 -312q0 -198 63.5 -318
t163.5 -120z" />
    <glyph glyph-name="Odieresis" unicode="&#xd6;" horiz-adv-x="1515" 
d="M522 1503q-61 0 -104 44t-43 106q0 59 43 102t104 43q60 0 104 -43t44 -102q0 -61 -44 -105.5t-104 -44.5zM993 1503q-61 0 -105 44t-44 106q0 59 44 102t105 43q60 0 103 -43t43 -102q0 -62 -43 -106t-103 -44zM764 -37q-162 0 -295.5 47.5t-231.5 140t-152 238.5
t-54 334q0 218 91 388.5t254.5 264.5t373.5 94q185 0 326 -54t230 -154t134 -239t45 -314q0 -350 -188.5 -548t-532.5 -198zM764 285q96 0 152.5 116t56.5 308q0 129 -22.5 226.5t-74.5 158.5t-128 61q-93 1 -152 -120t-59 -312q0 -198 63.5 -318t163.5 -120z" />
    <glyph glyph-name="Oslash" unicode="&#xd8;" horiz-adv-x="1515" 
d="M1296 1272q189 -198 189 -563q0 -350 -188.5 -548t-532.5 -198q-174 0 -313 53l-74 -108l-205 74l96 141q-237 198 -237 600q0 218 91 388.5t254.5 264.5t373.5 94q218 0 374 -75l76 112l205 -73zM537 723q0 -94 16 -176l346 514q-56 94 -151 94q-93 1 -152 -120
t-59 -312zM764 285q96 0 152.5 116t56.5 308q0 52 -2 79l-312 -460q46 -43 105 -43z" />
    <glyph glyph-name="Ugrave" unicode="&#xd9;" horiz-adv-x="1509" 
d="M467 1839l311 41l307 -235l-229 -41zM31 1165v267h651v-265h-111v-440q0 -99 9.5 -170.5t26 -116t43 -70t56 -35t70.5 -9.5q51 0 86.5 16t64 58t42.5 123t14 204v434h-111v271h607v-265h-111v-501q0 -363 -143.5 -532t-448.5 -169q-631 0 -631 701v499h-114z" />
    <glyph glyph-name="Uacute" unicode="&#xda;" horiz-adv-x="1509" 
d="M1085 1839l-389 -235l-229 41l307 235zM31 1165v267h651v-265h-111v-440q0 -99 9.5 -170.5t26 -116t43 -70t56 -35t70.5 -9.5q51 0 86.5 16t64 58t42.5 123t14 204v434h-111v271h607v-265h-111v-501q0 -363 -143.5 -532t-448.5 -169q-631 0 -631 701v499h-114z" />
    <glyph glyph-name="Ucircumflex" unicode="&#xdb;" horiz-adv-x="1509" 
d="M776 1712l-135 -180l-238 72l277 235h190l277 -235l-238 -72zM872 1432h607v-265h-111v-501q0 -363 -143.5 -532t-448.5 -169q-631 0 -631 701v499h-114v267h651v-265h-111v-440q0 -99 9.5 -170.5t26 -116t43 -70t56 -35t70.5 -9.5q51 0 86.5 16t64 58t42.5 123t14 204
v434h-111v271z" />
    <glyph glyph-name="Udieresis" unicode="&#xdc;" horiz-adv-x="1509" 
d="M541 1503q-61 0 -104.5 44t-43.5 106q0 59 43.5 102t104.5 43q60 0 103.5 -43t43.5 -102q0 -61 -43.5 -105.5t-103.5 -44.5zM1012 1503q-62 0 -106 44.5t-44 105.5q0 59 44.5 102t105.5 43q60 0 102.5 -43t42.5 -102q0 -62 -42.5 -106t-102.5 -44zM31 1165v267h651v-265
h-111v-440q0 -99 9.5 -170.5t26 -116t43 -70t56 -35t70.5 -9.5q51 0 86.5 16t64 58t42.5 123t14 204v434h-111v271h607v-265h-111v-501q0 -363 -143.5 -532t-448.5 -169q-631 0 -631 701v499h-114z" />
    <glyph glyph-name="Yacute" unicode="&#xdd;" horiz-adv-x="1370" 
d="M995 1839l-389 -235l-229 41l307 235zM756 786h8q3 14 13 39.5t18.5 44.5t24.5 52t20 41l112 206h-112v263h551v-263h-111l-379 -665v-238h115v-266h-656v266h117v242l-397 661h-100v263h700v-263h-107l119 -217q5 -17 32.5 -82t31.5 -84z" />
    <glyph glyph-name="Thorn" unicode="&#xde;" horiz-adv-x="1447" 
d="M977 1083q130 0 218.5 -23t139 -70t71.5 -108.5t21 -148.5q0 -94 -22 -162.5t-72 -119.5t-137.5 -76t-212.5 -25h-276v-78h229v-272h-885v272h232v889h-232v271h885v-271h-229v-78h270zM799 625q117 0 166 21.5t49 82.5t-47 84t-170 23h-90v-211h92z" />
    <glyph glyph-name="germandbls" unicode="&#xdf;" horiz-adv-x="1470" 
d="M1145 784q122 -51 198 -143.5t76 -232.5q0 -451 -508 -451q-50 0 -101.5 8.5t-78.5 16.5t-29 10v291q6 -4 21 -10.5t48.5 -14.5t66.5 -8q47 0 80.5 12.5t52 30.5t29 47t13.5 53.5t3 57.5q0 98 -57.5 162.5t-157.5 70.5v201q95 21 144.5 80t49.5 131q0 56 -54 98.5
t-128 42.5q-28 0 -53.5 -5t-55 -20.5t-51 -40.5t-35.5 -69.5t-14 -102.5v-999h-553v272h129v680q0 127 31.5 228t87 169.5t135 113.5t172 65t201.5 20q152 0 271.5 -55t189 -159.5t69.5 -243.5q0 -214 -192 -306z" />
    <glyph glyph-name="agrave" unicode="&#xe0;" 
d="M305 1432l311 41l308 -236l-230 -41zM160 700l-86 238q243 145 446 145q79 0 152.5 -11.5t148.5 -42t130 -76.5t89.5 -121t34.5 -170v-400h123v-262h-438l-49 92q-51 -70 -129 -100.5t-148 -30.5q-60 0 -117 12.5t-109 39.5t-91 66.5t-62.5 97t-23.5 126.5
q0 112 58.5 199t155 132.5t212.5 45.5q55 0 103.5 -16.5t69.5 -31t29 -24.5v72q0 64 -51 89.5t-143 25.5q-133 0 -305 -95zM528 227q43 0 79.5 21t51.5 47v78q-35 59 -120 59q-59 0 -89 -29.5t-30 -78.5q0 -42 31 -69.5t77 -27.5z" />
    <glyph glyph-name="aacute" unicode="&#xe1;" 
d="M924 1432l-389 -236l-230 41l307 236zM160 700l-86 238q243 145 446 145q79 0 152.5 -11.5t148.5 -42t130 -76.5t89.5 -121t34.5 -170v-400h123v-262h-438l-49 92q-51 -70 -129 -100.5t-148 -30.5q-60 0 -117 12.5t-109 39.5t-91 66.5t-62.5 97t-23.5 126.5
q0 112 58.5 199t155 132.5t212.5 45.5q55 0 103.5 -16.5t69.5 -31t29 -24.5v72q0 64 -51 89.5t-143 25.5q-133 0 -305 -95zM528 227q43 0 79.5 21t51.5 47v78q-35 59 -120 59q-59 0 -89 -29.5t-30 -78.5q0 -42 31 -69.5t77 -27.5z" />
    <glyph glyph-name="acircumflex" unicode="&#xe2;" 
d="M614 1305l-135 -181l-237 72l276 236h191l276 -236l-237 -72zM1075 262h123v-262h-438l-49 92q-51 -70 -129 -100.5t-148 -30.5q-60 0 -117 12.5t-109 39.5t-91 66.5t-62.5 97t-23.5 126.5q0 112 58.5 199t155 132.5t212.5 45.5q55 0 103.5 -16.5t69.5 -31t29 -24.5v72
q0 64 -51 89.5t-143 25.5q-133 0 -305 -95l-86 238q243 145 446 145q79 0 152.5 -11.5t148.5 -42t130 -76.5t89.5 -121t34.5 -170v-400zM659 295v78q-35 59 -120 59q-59 0 -89 -29.5t-30 -78.5q0 -42 31 -69.5t77 -27.5q43 0 79.5 21t51.5 47z" />
    <glyph glyph-name="atilde" unicode="&#xe3;" 
d="M752 1135q-37 -1 -70 13t-56 35t-43.5 41.5t-42 34t-42.5 11.5q-28 -3 -60.5 -48t-34.5 -63l-145 88q27 91 81.5 144.5t133.5 56.5q38 2 71.5 -12t56.5 -35t43 -42t41.5 -34.5t43.5 -11.5q28 3 57.5 44t38.5 66l144 -88q-27 -91 -81.5 -144t-135.5 -56zM160 700l-86 238
q243 145 446 145q79 0 152.5 -11.5t148.5 -42t130 -76.5t89.5 -121t34.5 -170v-400h123v-262h-438l-49 92q-51 -70 -129 -100.5t-148 -30.5q-60 0 -117 12.5t-109 39.5t-91 66.5t-62.5 97t-23.5 126.5q0 112 58.5 199t155 132.5t212.5 45.5q55 0 103.5 -16.5t69.5 -31
t29 -24.5v72q0 64 -51 89.5t-143 25.5q-133 0 -305 -95zM528 227q43 0 79.5 21t51.5 47v78q-35 59 -120 59q-59 0 -89 -29.5t-30 -78.5q0 -42 31 -69.5t77 -27.5z" />
    <glyph glyph-name="adieresis" unicode="&#xe4;" 
d="M379 1096q-61 0 -104.5 43.5t-43.5 105.5q0 59 43.5 102.5t104.5 43.5q60 0 103.5 -43.5t43.5 -102.5q0 -61 -43.5 -105t-103.5 -44zM850 1096q-62 0 -106 44t-44 105q0 59 44.5 102.5t105.5 43.5q60 0 102.5 -43.5t42.5 -102.5q0 -62 -42.5 -105.5t-102.5 -43.5z
M160 700l-86 238q243 145 446 145q79 0 152.5 -11.5t148.5 -42t130 -76.5t89.5 -121t34.5 -170v-400h123v-262h-438l-49 92q-51 -70 -129 -100.5t-148 -30.5q-60 0 -117 12.5t-109 39.5t-91 66.5t-62.5 97t-23.5 126.5q0 112 58.5 199t155 132.5t212.5 45.5
q55 0 103.5 -16.5t69.5 -31t29 -24.5v72q0 64 -51 89.5t-143 25.5q-133 0 -305 -95zM528 227q43 0 79.5 21t51.5 47v78q-35 59 -120 59q-59 0 -89 -29.5t-30 -78.5q0 -42 31 -69.5t77 -27.5z" />
    <glyph glyph-name="aring" unicode="&#xe5;" 
d="M614 1085q-86 0 -147 61.5t-61 147.5t61 147.5t147 61.5t147.5 -61.5t61.5 -147.5t-61.5 -147.5t-147.5 -61.5zM614 1219q31 0 53.5 22t22.5 53t-22.5 53.5t-53.5 22.5t-53 -22.5t-22 -53.5t22 -53t53 -22zM160 700l-86 238q243 145 446 145q79 0 152.5 -11.5t148.5 -42
t130 -76.5t89.5 -121t34.5 -170v-400h123v-262h-438l-49 92q-51 -70 -129 -100.5t-148 -30.5q-60 0 -117 12.5t-109 39.5t-91 66.5t-62.5 97t-23.5 126.5q0 112 58.5 199t155 132.5t212.5 45.5q55 0 103.5 -16.5t69.5 -31t29 -24.5v72q0 64 -51 89.5t-143 25.5
q-133 0 -305 -95zM528 227q43 0 79.5 21t51.5 47v78q-35 59 -120 59q-59 0 -89 -29.5t-30 -78.5q0 -42 31 -69.5t77 -27.5z" />
    <glyph glyph-name="ae" unicode="&#xe6;" horiz-adv-x="1798" 
d="M1747 141q-111 -96 -237.5 -137t-290.5 -41q-99 0 -194 32.5t-171 96.5q-164 -131 -420 -131q-60 0 -117 12.5t-109 39.5t-91 66.5t-62.5 97t-23.5 126.5q0 112 58.5 199t155 132.5t212.5 45.5q55 0 103.5 -16.5t69.5 -31t29 -24.5v72q0 64 -51 89.5t-143 25.5
q-133 0 -305 -95l-86 238q243 145 446 145q234 0 375 -127q142 97 334 97q180 0 312 -82.5t177 -214.5q14 -40 22 -95t5 -125.5t-23 -125.5h-645q5 -23 10 -39t20 -43t35.5 -43.5t58.5 -29.5t87 -13q169 0 287 98zM1241 776q-36 0 -64 -12.5t-44.5 -30.5t-28 -41.5
t-16 -42.5t-5.5 -37h310q-1 34 -6.5 59.5t-20.5 51t-46.5 39.5t-78.5 14zM659 295v78q-35 59 -120 59q-59 0 -89 -29.5t-30 -78.5q0 -42 31 -69.5t77 -27.5q43 0 79.5 21t51.5 47z" />
    <glyph glyph-name="ccedilla" unicode="&#xe7;" horiz-adv-x="1087" 
d="M1067 180q-80 -86 -212 -147t-286 -62l-4 -86q11 21 46 43.5t89 26.5q90 6 156 -51.5t66 -157.5q0 -112 -85.5 -176t-195.5 -64q-82 0 -147 27t-101 66l101 96q21 -22 60.5 -33.5t78.5 -9.5q57 3 81.5 23t24.5 61q0 84 -77 84q-29 0 -54 -18.5t-28 -37.5l-134 25l17 191
q-98 14 -180.5 55t-146 106.5t-99 162.5t-35.5 214q0 131 41.5 233.5t112.5 165t160 94t190 31.5q157 0 256 -116l35 98h241v-463h-301q-2 55 -13.5 100t-41.5 80t-74 35q-86 0 -133 -77t-47 -185q0 -103 57.5 -172t153.5 -70q78 -1 135.5 28t112.5 89z" />
    <glyph glyph-name="egrave" unicode="&#xe8;" horiz-adv-x="1110" 
d="M246 1432l311 41l307 -236l-229 -41zM907 340l172 -199q-111 -96 -237.5 -137t-290.5 -41q-79 0 -154 19.5t-146 63t-124 107t-85 157.5t-32 208q0 123 42.5 225t117 169t175 104t216.5 37q180 0 312.5 -82.5t177.5 -214.5q14 -40 22 -95t5 -125.5t-23 -125.5h-645
q5 -23 10 -39t20 -43t35.5 -43.5t58.5 -29.5t87 -13q46 0 82 4.5t94.5 27.5t109.5 66zM573 776q-44 0 -76 -17.5t-48 -46t-23.5 -52.5t-9.5 -48h309q-1 34 -6.5 59.5t-20.5 51t-46.5 39.5t-78.5 14z" />
    <glyph glyph-name="eacute" unicode="&#xe9;" horiz-adv-x="1110" 
d="M864 1432l-389 -236l-229 41l307 236zM907 340l172 -199q-111 -96 -237.5 -137t-290.5 -41q-79 0 -154 19.5t-146 63t-124 107t-85 157.5t-32 208q0 123 42.5 225t117 169t175 104t216.5 37q180 0 312.5 -82.5t177.5 -214.5q14 -40 22 -95t5 -125.5t-23 -125.5h-645
q5 -23 10 -39t20 -43t35.5 -43.5t58.5 -29.5t87 -13q46 0 82 4.5t94.5 27.5t109.5 66zM573 776q-44 0 -76 -17.5t-48 -46t-23.5 -52.5t-9.5 -48h309q-1 34 -6.5 59.5t-20.5 51t-46.5 39.5t-78.5 14z" />
    <glyph glyph-name="ecircumflex" unicode="&#xea;" horiz-adv-x="1110" 
d="M555 1305l-135 -181l-238 72l277 236h190l277 -236l-238 -72zM907 340l172 -199q-111 -96 -237.5 -137t-290.5 -41q-79 0 -154 19.5t-146 63t-124 107t-85 157.5t-32 208q0 123 42.5 225t117 169t175 104t216.5 37q180 0 312.5 -82.5t177.5 -214.5q14 -40 22 -95
t5 -125.5t-23 -125.5h-645q5 -23 10 -39t20 -43t35.5 -43.5t58.5 -29.5t87 -13q46 0 82 4.5t94.5 27.5t109.5 66zM573 776q-44 0 -76 -17.5t-48 -46t-23.5 -52.5t-9.5 -48h309q-1 34 -6.5 59.5t-20.5 51t-46.5 39.5t-78.5 14z" />
    <glyph glyph-name="edieresis" unicode="&#xeb;" horiz-adv-x="1110" 
d="M319 1096q-61 0 -104 43.5t-43 105.5q0 59 43 102.5t104 43.5q60 0 104 -43.5t44 -102.5q0 -61 -44 -105t-104 -44zM791 1096q-62 0 -106 44t-44 105q0 59 44.5 102.5t105.5 43.5q60 0 102.5 -43.5t42.5 -102.5q0 -62 -42.5 -105.5t-102.5 -43.5zM907 340l172 -199
q-111 -96 -237.5 -137t-290.5 -41q-79 0 -154 19.5t-146 63t-124 107t-85 157.5t-32 208q0 123 42.5 225t117 169t175 104t216.5 37q180 0 312.5 -82.5t177.5 -214.5q14 -40 22 -95t5 -125.5t-23 -125.5h-645q5 -23 10 -39t20 -43t35.5 -43.5t58.5 -29.5t87 -13q46 0 82 4.5
t94.5 27.5t109.5 66zM573 776q-44 0 -76 -17.5t-48 -46t-23.5 -52.5t-9.5 -48h309q-1 34 -6.5 59.5t-20.5 51t-46.5 39.5t-78.5 14z" />
    <glyph glyph-name="igrave" unicode="&#xec;" horiz-adv-x="675" 
d="M29 1432l311 41l307 -236l-229 -41zM625 268v-268h-574v268h86v490h-86v266h475v-756h99z" />
    <glyph glyph-name="iacute" unicode="&#xed;" horiz-adv-x="675" 
d="M647 1432l-389 -236l-229 41l307 236zM625 268v-268h-574v268h86v490h-86v266h475v-756h99z" />
    <glyph glyph-name="icircumflex" unicode="&#xee;" horiz-adv-x="675" 
d="M338 1305l-135 -181l-238 72l277 236h190l277 -236l-238 -72zM526 1024v-756h99v-268h-574v268h86v490h-86v266h475z" />
    <glyph glyph-name="idieresis" unicode="&#xef;" horiz-adv-x="675" 
d="M102 1096q-61 0 -104 43.5t-43 105.5q0 59 43 102.5t104 43.5q60 0 104 -43.5t44 -102.5q0 -61 -44 -105t-104 -44zM573 1096q-61 0 -105 44t-44 105q0 59 44 102.5t105 43.5q60 0 103 -43.5t43 -102.5q0 -61 -43 -105t-103 -44zM625 268v-268h-574v268h86v490h-86v266
h475v-756h99z" />
    <glyph glyph-name="eth" unicode="&#xf0;" horiz-adv-x="1193" 
d="M1153 508q1 -124 -42 -226.5t-119.5 -169t-178.5 -103t-219 -36.5q-112 0 -213.5 34.5t-183 100.5t-128.5 171.5t-46 236.5q1 100 32 186.5t85 149t125 108t152.5 67.5t166.5 22q63 0 133 -13q-24 142 -160 226l-92 -148l-125 74l84 135q-72 24 -141 33l120 233
q74 -13 160 -41l60 99l125 -74l-50 -80q131 -65 221.5 -163t140.5 -227t71.5 -271.5t21.5 -323.5zM594 236q64 0 101.5 76.5t37.5 195.5t-39.5 196t-109.5 78q-60 0 -101 -77.5t-41 -190.5q0 -124 43 -201t109 -77z" />
    <glyph glyph-name="ntilde" unicode="&#xf1;" horiz-adv-x="1325" 
d="M801 1135q-37 -1 -70 13t-56 35t-43.5 41.5t-42 34t-42.5 11.5q-28 -3 -60 -47.5t-34 -63.5l-146 88q27 91 81.5 144.5t133.5 56.5q38 2 71.5 -12t56.5 -35t43 -42t41.5 -34.5t43.5 -11.5q28 3 57.5 44t38.5 66l144 -88q-27 -91 -81.5 -144t-135.5 -56zM682 268v-268
h-631v268h86v490h-86v266h436l48 -127q120 164 292 164q92 0 160 -27t107.5 -69t63.5 -104t32 -121t8 -130v-342h96v-268h-516v559q0 89 -12 124q-26 66 -102 67q-37 0 -63.5 -17t-40 -46t-19.5 -60.5t-6 -67.5v-291h147z" />
    <glyph glyph-name="ograve" unicode="&#xf2;" horiz-adv-x="1175" 
d="M279 1432l311 41l307 -236l-229 -41zM594 -27q-112 0 -213.5 34.5t-183 100.5t-128.5 171.5t-46 236.5q1 100 32 186.5t85 149t125 108t152.5 67.5t166.5 22q163 -2 289.5 -65t201.5 -186t78 -290q1 -124 -42 -226.5t-119.5 -169t-178.5 -103t-219 -36.5zM594 236
q64 0 101.5 76.5t37.5 195.5t-39.5 196t-109.5 78q-60 0 -101 -77.5t-41 -190.5q0 -124 43 -201t109 -77z" />
    <glyph glyph-name="oacute" unicode="&#xf3;" horiz-adv-x="1175" 
d="M897 1432l-389 -236l-229 41l307 236zM594 -27q-112 0 -213.5 34.5t-183 100.5t-128.5 171.5t-46 236.5q1 100 32 186.5t85 149t125 108t152.5 67.5t166.5 22q163 -2 289.5 -65t201.5 -186t78 -290q1 -124 -42 -226.5t-119.5 -169t-178.5 -103t-219 -36.5zM594 236
q64 0 101.5 76.5t37.5 195.5t-39.5 196t-109.5 78q-60 0 -101 -77.5t-41 -190.5q0 -124 43 -201t109 -77z" />
    <glyph glyph-name="ocircumflex" unicode="&#xf4;" horiz-adv-x="1175" 
d="M588 1305l-135 -181l-238 72l277 236h190l276 -236l-237 -72zM1153 508q1 -124 -42 -226.5t-119.5 -169t-178.5 -103t-219 -36.5q-112 0 -213.5 34.5t-183 100.5t-128.5 171.5t-46 236.5q1 100 32 186.5t85 149t125 108t152.5 67.5t166.5 22q163 -2 289.5 -65t201.5 -186
t78 -290zM594 236q64 0 101.5 76.5t37.5 195.5t-39.5 196t-109.5 78q-60 0 -101 -77.5t-41 -190.5q0 -124 43 -201t109 -77z" />
    <glyph glyph-name="otilde" unicode="&#xf5;" horiz-adv-x="1175" 
d="M725 1135q-37 -1 -70 13t-56 35t-43.5 41.5t-42 34t-42.5 11.5q-28 -3 -60 -47.5t-34 -63.5l-146 88q27 91 81.5 144.5t133.5 56.5q38 2 71.5 -12t56.5 -35t43 -42t41.5 -34.5t43.5 -11.5q28 3 58 44.5t39 65.5l143 -88q-27 -91 -81.5 -144t-135.5 -56zM594 -27
q-112 0 -213.5 34.5t-183 100.5t-128.5 171.5t-46 236.5q1 100 32 186.5t85 149t125 108t152.5 67.5t166.5 22q163 -2 289.5 -65t201.5 -186t78 -290q1 -124 -42 -226.5t-119.5 -169t-178.5 -103t-219 -36.5zM594 236q64 0 101.5 76.5t37.5 195.5t-39.5 196t-109.5 78
q-60 0 -101 -77.5t-41 -190.5q0 -124 43 -201t109 -77z" />
    <glyph glyph-name="odieresis" unicode="&#xf6;" horiz-adv-x="1175" 
d="M352 1096q-61 0 -104 43.5t-43 105.5q0 59 43 102.5t104 43.5q60 0 104 -43.5t44 -102.5q0 -61 -44 -105t-104 -44zM823 1096q-61 0 -105 44t-44 105q0 59 44 102.5t105 43.5q60 0 103 -43.5t43 -102.5q0 -61 -43 -105t-103 -44zM594 -27q-112 0 -213.5 34.5t-183 100.5
t-128.5 171.5t-46 236.5q1 100 32 186.5t85 149t125 108t152.5 67.5t166.5 22q163 -2 289.5 -65t201.5 -186t78 -290q1 -124 -42 -226.5t-119.5 -169t-178.5 -103t-219 -36.5zM594 236q64 0 101.5 76.5t37.5 195.5t-39.5 196t-109.5 78q-60 0 -101 -77.5t-41 -190.5
q0 -124 43 -201t109 -77z" />
    <glyph glyph-name="oslash" unicode="&#xf8;" horiz-adv-x="1175" 
d="M1153 508q1 -124 -42 -226.5t-119.5 -169t-178.5 -103t-219 -36.5q-125 0 -238 43l-71 -108l-154 55l86 129q-92 71 -143.5 178t-50.5 246q1 100 32 186.5t85 149t125 108t152.5 67.5t166.5 22q140 -3 247 -48l70 103l152 -55l-86 -127q180 -144 186 -414zM442 514
q0 -35 7 -82l213 316q-34 34 -78 34q-60 0 -101 -77.5t-41 -190.5zM594 236q64 0 101.5 76.5t37.5 195.5q0 41 -2 61l-207 -305q31 -28 70 -28z" />
    <glyph glyph-name="ugrave" unicode="&#xf9;" horiz-adv-x="1292" 
d="M338 1432l311 41l307 -236l-229 -41zM31 754v270h495v-494q0 -136 25 -197t86 -61q55 0 92 44t37 112v326h-135v270h530v-752h101v-272h-388l-55 129q-1 -1 -20.5 -24t-27.5 -30.5t-30 -28.5t-40.5 -30t-46 -22t-59 -18t-67.5 -5q-226 0 -318.5 119t-92.5 381v283h-86z
" />
    <glyph glyph-name="uacute" unicode="&#xfa;" horiz-adv-x="1292" 
d="M956 1432l-389 -236l-229 41l307 236zM31 754v270h495v-494q0 -136 25 -197t86 -61q55 0 92 44t37 112v326h-135v270h530v-752h101v-272h-388l-55 129q-1 -1 -20.5 -24t-27.5 -30.5t-30 -28.5t-40.5 -30t-46 -22t-59 -18t-67.5 -5q-226 0 -318.5 119t-92.5 381v283h-86z
" />
    <glyph glyph-name="ucircumflex" unicode="&#xfb;" horiz-adv-x="1292" 
d="M647 1305l-135 -181l-238 72l277 236h190l277 -236l-238 -72zM1161 272h101v-272h-388l-55 129q-1 -1 -20.5 -24t-27.5 -30.5t-30 -28.5t-40.5 -30t-46 -22t-59 -18t-67.5 -5q-226 0 -318.5 119t-92.5 381v283h-86v270h495v-494q0 -136 25 -197t86 -61q55 0 92 44t37 112
v326h-135v270h530v-752z" />
    <glyph glyph-name="udieresis" unicode="&#xfc;" horiz-adv-x="1292" 
d="M412 1096q-61 0 -104.5 43.5t-43.5 105.5q0 59 43.5 102.5t104.5 43.5q60 0 103.5 -43.5t43.5 -102.5q0 -61 -43.5 -105t-103.5 -44zM883 1096q-62 0 -106 44t-44 105q0 59 44.5 102.5t105.5 43.5q60 0 102.5 -43.5t42.5 -102.5q0 -62 -42.5 -105.5t-102.5 -43.5zM31 754
v270h495v-494q0 -136 25 -197t86 -61q55 0 92 44t37 112v326h-135v270h530v-752h101v-272h-388l-55 129q-1 -1 -20.5 -24t-27.5 -30.5t-30 -28.5t-40.5 -30t-46 -22t-59 -18t-67.5 -5q-226 0 -318.5 119t-92.5 381v283h-86z" />
    <glyph glyph-name="yacute" unicode="&#xfd;" horiz-adv-x="1187" 
d="M903 1432l-389 -236l-229 41l307 236zM649 444l133 320h-94v260h520v-254h-98l-389 -946q-23 -49 -40 -80t-54.5 -75.5t-79.5 -70.5t-111.5 -45t-154.5 -18q-138 8 -248 103l153 241q67 -59 119 -69q44 -8 79 24.5t52 83.5l29 86l-399 758h-84v262h630v-260h-96z" />
    <glyph glyph-name="thorn" unicode="&#xfe;" horiz-adv-x="1343" 
d="M662 -512h-599v266h87v1514h-87v268h496v-592q34 39 113 67.5t155 28.5q113 0 205 -45t150 -120.5t88 -171t28 -199.5q-5 -239 -131.5 -383t-341.5 -144q-56 0 -98 7t-73.5 22.5t-49 27.5t-45.5 36v-316h103v-266zM848 500q0 62 -18 119.5t-52.5 95t-77.5 37.5
q-63 0 -107 -73t-38 -190q0 -103 44 -174t103 -71q65 0 105.5 70t40.5 186z" />
    <glyph glyph-name="ydieresis" unicode="&#xff;" horiz-adv-x="1187" 
d="M358 1096q-61 0 -104 43.5t-43 105.5q0 59 43 102.5t104 43.5q60 0 104 -43.5t44 -102.5q0 -61 -44 -105t-104 -44zM829 1096q-61 0 -105 44t-44 105q0 59 44 102.5t105 43.5q60 0 103 -43.5t43 -102.5q0 -61 -43 -105t-103 -44zM649 444l133 320h-94v260h520v-254h-98
l-389 -946q-23 -49 -40 -80t-54.5 -75.5t-79.5 -70.5t-111.5 -45t-154.5 -18q-138 8 -248 103l153 241q67 -59 119 -69q44 -8 79 24.5t52 83.5l29 86l-399 758h-84v262h630v-260h-96z" />
    <glyph glyph-name="Amacron" unicode="&#x100;" horiz-adv-x="1685" 
d="M383 1796h922v-170h-922v170zM1655 268v-268h-821v268h194l-43 140h-420l-43 -140h160v-268h-651v268h139l276 899h-84v265h787l362 -1164h144zM774 1096l-133 -443h268z" />
    <glyph glyph-name="amacron" unicode="&#x101;" 
d="M154 1389h921v-170h-921v170zM160 700l-86 238q243 145 446 145q79 0 152.5 -11.5t148.5 -42t130 -76.5t89.5 -121t34.5 -170v-400h123v-262h-438l-49 92q-51 -70 -129 -100.5t-148 -30.5q-60 0 -117 12.5t-109 39.5t-91 66.5t-62.5 97t-23.5 126.5q0 112 58.5 199
t155 132.5t212.5 45.5q55 0 103.5 -16.5t69.5 -31t29 -24.5v72q0 64 -51 89.5t-143 25.5q-133 0 -305 -95zM528 227q43 0 79.5 21t51.5 47v78q-35 59 -120 59q-59 0 -89 -29.5t-30 -78.5q0 -42 31 -69.5t77 -27.5z" />
    <glyph glyph-name="Abreve" unicode="&#x102;" horiz-adv-x="1685" 
d="M1135 1763q-6 -115 -88.5 -184.5t-202.5 -69.5q-121 0 -204 69.5t-89 184.5l209 47q0 -64 24.5 -102.5t59.5 -38.5q34 0 58 38.5t24 102.5zM1655 268v-268h-821v268h194l-43 140h-420l-43 -140h160v-268h-651v268h139l276 899h-84v265h787l362 -1164h144zM774 1096
l-133 -443h268z" />
    <glyph glyph-name="abreve" unicode="&#x103;" 
d="M905 1356q-6 -115 -88.5 -184.5t-202.5 -69.5q-121 0 -203.5 69.5t-88.5 184.5l208 47q0 -64 24.5 -102.5t59.5 -38.5q34 0 58 38.5t24 102.5zM160 700l-86 238q243 145 446 145q79 0 152.5 -11.5t148.5 -42t130 -76.5t89.5 -121t34.5 -170v-400h123v-262h-438l-49 92
q-51 -70 -129 -100.5t-148 -30.5q-60 0 -117 12.5t-109 39.5t-91 66.5t-62.5 97t-23.5 126.5q0 112 58.5 199t155 132.5t212.5 45.5q55 0 103.5 -16.5t69.5 -31t29 -24.5v72q0 64 -51 89.5t-143 25.5q-133 0 -305 -95zM528 227q43 0 79.5 21t51.5 47v78q-35 59 -120 59
q-59 0 -89 -29.5t-30 -78.5q0 -42 31 -69.5t77 -27.5z" />
    <glyph glyph-name="Aogonek" unicode="&#x104;" horiz-adv-x="1685" 
d="M1808 -203l107 -149q-106 -59 -211.5 -76t-182.5 4t-125 74.5t-48 128.5q0 128 102 221h-616v268h194l-43 140h-420l-43 -140h160v-268h-651v268h139l276 899h-84v265h787l362 -1164h144v-268h-64q-73 -69 -73 -125q0 -21 9 -41.5t31 -38.5t54 -26t83 -2t113 30zM641 653
h268l-135 443z" />
    <glyph glyph-name="aogonek" unicode="&#x105;" 
d="M1350 -203l106 -149q-106 -59 -211.5 -76t-182.5 4t-125 74.5t-48 128.5q0 128 102 221h-231l-49 92q-51 -70 -129 -100.5t-148 -30.5q-60 0 -117 12.5t-109 39.5t-91 66.5t-62.5 97t-23.5 126.5q0 112 58.5 199t155 132.5t212.5 45.5q55 0 103.5 -16.5t69.5 -31
t29 -24.5v72q0 64 -51 89.5t-143 25.5q-133 0 -305 -95l-86 238q243 145 446 145q79 0 152.5 -11.5t148.5 -42t130 -76.5t89.5 -121t34.5 -170v-400h123v-262h-65q-74 -70 -74 -125q0 -21 9 -41.5t31 -38.5t54.5 -26.5t83.5 -2t113 30.5zM659 295v78q-35 59 -120 59
q-59 0 -89 -29.5t-30 -78.5q0 -42 31 -69.5t77 -27.5q43 0 79.5 21t51.5 47z" />
    <glyph glyph-name="Cacute" unicode="&#x106;" horiz-adv-x="1404" 
d="M1012 1839l-389 -235l-230 41l307 235zM1135 518l239 -262q-115 -128 -273.5 -208.5t-346.5 -80.5q-328 0 -525.5 197.5t-197.5 537.5q0 136 39 258.5t103 211t145 154t167.5 98t167.5 32.5q71 0 131.5 -17t98.5 -44t56.5 -44.5t29.5 -33.5l47 115h321v-582h-366
q-5 109 -60 183.5t-157 74.5q-108 0 -176 -117.5t-68 -288.5q0 -104 33 -190t102.5 -140.5t163.5 -54.5q31 0 63 8t58 20.5t53 30.5t46.5 34t40 36t31 32t22.5 26z" />
    <glyph glyph-name="cacute" unicode="&#x107;" horiz-adv-x="1087" 
d="M854 1432l-389 -236l-229 41l307 236zM1038 561h-301q-2 55 -13.5 100t-41.5 80t-74 35q-86 0 -133 -77t-47 -185q0 -103 57.5 -172t153.5 -70q78 -1 135.5 28t112.5 89l180 -209q-80 -87 -213.5 -148t-288.5 -61q-115 0 -215.5 35t-178.5 101t-123.5 172t-45.5 239
q0 131 41.5 233.5t112.5 165t160 94t190 31.5q157 0 256 -116l35 98h241v-463z" />
    <glyph glyph-name="Cdotaccent" unicode="&#x10a;" horiz-adv-x="1404" 
d="M705 1503q-61 0 -105.5 44.5t-44.5 105.5q0 59 44.5 102t105.5 43q60 0 102.5 -43t42.5 -102q0 -62 -42.5 -106t-102.5 -44zM1135 518l239 -262q-115 -128 -273.5 -208.5t-346.5 -80.5q-328 0 -525.5 197.5t-197.5 537.5q0 136 39 258.5t103 211t145 154t167.5 98
t167.5 32.5q71 0 131.5 -17t98.5 -44t56.5 -44.5t29.5 -33.5l47 115h321v-582h-366q-5 109 -60 183.5t-157 74.5q-108 0 -176 -117.5t-68 -288.5q0 -104 33 -190t102.5 -140.5t163.5 -54.5q31 0 63 8t58 20.5t53 30.5t46.5 34t40 36t31 32t22.5 26z" />
    <glyph glyph-name="cdotaccent" unicode="&#x10b;" horiz-adv-x="1087" 
d="M547 1096q-62 0 -106 44t-44 105q0 59 44.5 102.5t105.5 43.5q60 0 102.5 -43.5t42.5 -102.5q0 -62 -42.5 -105.5t-102.5 -43.5zM1038 561h-301q-2 55 -13.5 100t-41.5 80t-74 35q-86 0 -133 -77t-47 -185q0 -103 57.5 -172t153.5 -70q78 -1 135.5 28t112.5 89l180 -209
q-80 -87 -213.5 -148t-288.5 -61q-115 0 -215.5 35t-178.5 101t-123.5 172t-45.5 239q0 131 41.5 233.5t112.5 165t160 94t190 31.5q157 0 256 -116l35 98h241v-463z" />
    <glyph glyph-name="Ccaron" unicode="&#x10c;" horiz-adv-x="1404" 
d="M797 1532h-191l-276 235l237 72l135 -180l134 180l237 -72zM1135 518l239 -262q-115 -128 -273.5 -208.5t-346.5 -80.5q-328 0 -525.5 197.5t-197.5 537.5q0 136 39 258.5t103 211t145 154t167.5 98t167.5 32.5q71 0 131.5 -17t98.5 -44t56.5 -44.5t29.5 -33.5l47 115
h321v-582h-366q-5 109 -60 183.5t-157 74.5q-108 0 -176 -117.5t-68 -288.5q0 -104 33 -190t102.5 -140.5t163.5 -54.5q31 0 63 8t58 20.5t53 30.5t46.5 34t40 36t31 32t22.5 26z" />
    <glyph glyph-name="ccaron" unicode="&#x10d;" horiz-adv-x="1087" 
d="M639 1124h-190l-277 236l238 72l135 -181l133 181l237 -72zM887 389l180 -209q-80 -87 -213.5 -148t-288.5 -61q-115 0 -215.5 35t-178.5 101t-123.5 172t-45.5 239q0 131 41.5 233.5t112.5 165t160 94t190 31.5q157 0 256 -116l35 98h241v-463h-301q-2 55 -13.5 100
t-41.5 80t-74 35q-86 0 -133 -77t-47 -185q0 -103 57.5 -172t153.5 -70q78 -1 135.5 28t112.5 89z" />
    <glyph glyph-name="Dcaron" unicode="&#x10e;" horiz-adv-x="1474" 
d="M831 1532h-190l-276 235l237 72l135 -180l133 180l238 -72zM676 1432q182 0 330 -54t245.5 -148t150 -221t52.5 -274q0 -351 -204.5 -543t-581.5 -192h-617v272h127v889h-127v271h625zM676 272q105 2 175.5 65.5t101 164t30.5 233.5q0 85 -18 159.5t-53.5 135t-96.5 96
t-139 35.5h-78v-889h78z" />
    <glyph glyph-name="dcaron" unicode="&#x10f;" horiz-adv-x="1574" 
d="M1438 1616q82 0 140 -59t58 -142q0 -74 -25.5 -150t-64 -133.5t-73 -97t-62.5 -61.5l-88 55q41 43 57 108t-18 95q-56 24 -90.5 73.5t-34.5 110.5q0 83 59 142t142 59zM1169 1536v-1270h99v-266h-480l-34 76q-20 -18 -47.5 -36t-87 -38t-123.5 -20q-140 0 -250.5 76
t-168 198.5t-57.5 265.5q0 116 39 215.5t104.5 166t152 103.5t180.5 37q51 0 93.5 -7.5t77.5 -23t48 -22.5t39 -24v303h-95v266h510zM608 270q63 0 107.5 73t38.5 189q0 103 -44.5 174.5t-103.5 71.5q-65 0 -105 -70t-40 -186q0 -98 41.5 -175t105.5 -77z" />
    <glyph glyph-name="Dcroat" unicode="&#x110;" horiz-adv-x="1474" 
d="M676 1432q182 0 330 -54t245.5 -148t150 -221t52.5 -274q0 -351 -204.5 -543t-581.5 -192h-617v272h127v297h-188v271h188v321h-127v271h625zM676 272q105 2 175.5 65.5t101 164t30.5 233.5q0 85 -18 159.5t-53.5 135t-96.5 96t-139 35.5h-78v-321h225v-271h-225v-297h78
z" />
    <glyph glyph-name="dcroat" unicode="&#x111;" horiz-adv-x="1298" 
d="M1333 1063h-164v-797h99v-266h-480l-34 76q-20 -18 -47.5 -36t-87 -38t-123.5 -20q-140 0 -250.5 76t-168 198.5t-57.5 265.5q0 116 39 215.5t104.5 166t152 103.5t180.5 37q51 0 93.5 -7.5t77.5 -23t48 -22.5t39 -24v96h-113v170h113v37h-95v266h510v-303h164v-170z
M608 270q63 0 107.5 73t38.5 189q0 103 -44.5 174.5t-103.5 71.5q-65 0 -105 -70t-40 -186q0 -98 41.5 -175t105.5 -77z" />
    <glyph glyph-name="Emacron" unicode="&#x112;" horiz-adv-x="1337" 
d="M209 1796h921v-170h-921v170zM51 1161v271h1235v-453h-354v182h-328v-282h389v-273h-389v-334h328v191h354v-463h-1235v272h129v889h-129z" />
    <glyph glyph-name="emacron" unicode="&#x113;" horiz-adv-x="1110" 
d="M94 1389h922v-170h-922v170zM907 340l172 -199q-111 -96 -237.5 -137t-290.5 -41q-79 0 -154 19.5t-146 63t-124 107t-85 157.5t-32 208q0 123 42.5 225t117 169t175 104t216.5 37q180 0 312.5 -82.5t177.5 -214.5q14 -40 22 -95t5 -125.5t-23 -125.5h-645q5 -23 10 -39
t20 -43t35.5 -43.5t58.5 -29.5t87 -13q46 0 82 4.5t94.5 27.5t109.5 66zM573 776q-44 0 -76 -17.5t-48 -46t-23.5 -52.5t-9.5 -48h309q-1 34 -6.5 59.5t-20.5 51t-46.5 39.5t-78.5 14z" />
    <glyph glyph-name="Edotaccent" unicode="&#x116;" horiz-adv-x="1337" 
d="M672 1503q-62 0 -106 44.5t-44 105.5q0 59 44.5 102t105.5 43q60 0 102.5 -43t42.5 -102q0 -62 -42.5 -106t-102.5 -44zM51 1161v271h1235v-453h-354v182h-328v-282h389v-273h-389v-334h328v191h354v-463h-1235v272h129v889h-129z" />
    <glyph glyph-name="edotaccent" unicode="&#x117;" horiz-adv-x="1110" 
d="M557 1096q-61 0 -105 44t-44 105q0 59 44 102.5t105 43.5q60 0 102.5 -43.5t42.5 -102.5q0 -62 -42.5 -105.5t-102.5 -43.5zM907 340l172 -199q-111 -96 -237.5 -137t-290.5 -41q-79 0 -154 19.5t-146 63t-124 107t-85 157.5t-32 208q0 123 42.5 225t117 169t175 104
t216.5 37q180 0 312.5 -82.5t177.5 -214.5q14 -40 22 -95t5 -125.5t-23 -125.5h-645q5 -23 10 -39t20 -43t35.5 -43.5t58.5 -29.5t87 -13q46 0 82 4.5t94.5 27.5t109.5 66zM573 776q-44 0 -76 -17.5t-48 -46t-23.5 -52.5t-9.5 -48h309q-1 34 -6.5 59.5t-20.5 51t-46.5 39.5
t-78.5 14z" />
    <glyph glyph-name="Eogonek" unicode="&#x118;" horiz-adv-x="1337" 
d="M1452 -203l107 -149q-106 -59 -211.5 -76t-183 4t-125.5 74.5t-48 128.5q0 127 103 221h-1043v272h129v889h-129v271h1235v-453h-354v182h-328v-282h389v-273h-389v-334h328v191h354v-463h-51q-74 -70 -74 -125q0 -21 9 -41.5t31 -38.5t54.5 -26.5t83.5 -2t113 30.5z" />
    <glyph glyph-name="eogonek" unicode="&#x119;" horiz-adv-x="1110" 
d="M1069 -203l107 -149q-106 -59 -211.5 -76t-183 4t-125.5 74.5t-48 128.5q0 106 72 190q-62 -6 -129 -6q-79 0 -154 19.5t-146 63t-124 107t-85 157.5t-32 208q0 123 42.5 225t117 169t175 104t216.5 37q180 0 312.5 -82.5t177.5 -214.5q14 -40 22 -95t5 -125.5
t-23 -125.5h-645q5 -23 10 -39t20 -43t35.5 -43.5t58.5 -29.5t87 -13q46 0 82 4.5t94.5 27.5t109.5 66l172 -199q-99 -86 -215 -129q-86 -77 -86 -137q0 -21 9 -41.5t31 -38.5t54.5 -26.5t83.5 -2t113 30.5zM573 776q-44 0 -76 -17.5t-48 -46t-23.5 -52.5t-9.5 -48h309
q-1 34 -6.5 59.5t-20.5 51t-46.5 39.5t-78.5 14z" />
    <glyph glyph-name="Ecaron" unicode="&#x11a;" horiz-adv-x="1337" 
d="M764 1532h-191l-276 235l238 72l135 -180l133 180l237 -72zM1286 979h-354v182h-328v-282h389v-273h-389v-334h328v191h354v-463h-1235v272h129v889h-129v271h1235v-453z" />
    <glyph glyph-name="ecaron" unicode="&#x11b;" horiz-adv-x="1110" 
d="M649 1124h-190l-277 236l238 72l135 -181l133 181l238 -72zM907 340l172 -199q-111 -96 -237.5 -137t-290.5 -41q-79 0 -154 19.5t-146 63t-124 107t-85 157.5t-32 208q0 123 42.5 225t117 169t175 104t216.5 37q180 0 312.5 -82.5t177.5 -214.5q14 -40 22 -95t5 -125.5
t-23 -125.5h-645q5 -23 10 -39t20 -43t35.5 -43.5t58.5 -29.5t87 -13q46 0 82 4.5t94.5 27.5t109.5 66zM573 776q-44 0 -76 -17.5t-48 -46t-23.5 -52.5t-9.5 -48h309q-1 34 -6.5 59.5t-20.5 51t-46.5 39.5t-78.5 14z" />
    <glyph glyph-name="Gbreve" unicode="&#x11e;" horiz-adv-x="1589" 
d="M1085 1763q-6 -115 -88 -184.5t-202 -69.5q-121 0 -204 69.5t-89 184.5l209 47q0 -64 24.5 -102.5t59.5 -38.5q34 0 58 38.5t24 102.5zM1067 0l-63 129q-36 -61 -126.5 -104t-203.5 -43q-134 0 -251.5 51t-204.5 142.5t-137 228t-50 298.5t53.5 305t141 240t201 153
t232.5 56q71 0 131 -11t97.5 -26t70.5 -37.5t48 -38t32.5 -36t20.5 -23.5l43 148h305v-605h-367q-4 120 -71 190t-162 70q-81 0 -146 -53.5t-100 -141.5t-35 -190q0 -162 75.5 -269t205.5 -107q80 0 125 26.5t72 73.5v86h-125v219h680v-219h-82v-512h-410z" />
    <glyph glyph-name="gbreve" unicode="&#x11f;" horiz-adv-x="1310" 
d="M946 1356q-6 -115 -88.5 -184.5t-202.5 -69.5q-121 0 -204 69.5t-89 184.5l209 47q0 -64 24.5 -102.5t59.5 -38.5q34 0 58 38.5t24 102.5zM49 -240l109 228q49 -42 151 -86.5t205 -44.5q66 0 114.5 17.5t74 46.5t37.5 61t12 67v70q-32 -41 -93 -77t-147 -36
q-102 0 -186 28.5t-140 77t-94 115t-55 139t-17 152.5q0 243 133 384.5t382 141.5q64 0 123.5 -24.5t93.5 -58.5l41 63h487v-268h-123v-613q0 -262 -162 -412t-477 -151q-104 1 -203.5 32.5t-159.5 68.5t-106 79zM457 522q0 -98 41.5 -175t105.5 -77q63 0 107.5 73t38.5 189
q0 103 -44.5 174.5t-103.5 71.5q-65 0 -105 -70t-40 -186z" />
    <glyph glyph-name="Gdotaccent" unicode="&#x120;" horiz-adv-x="1589" 
d="M797 1503q-61 0 -105.5 44.5t-44.5 105.5q0 59 44.5 102t105.5 43q60 0 102.5 -43t42.5 -102q0 -62 -42.5 -106t-102.5 -44zM1067 0l-63 129q-36 -61 -126.5 -104t-203.5 -43q-134 0 -251.5 51t-204.5 142.5t-137 228t-50 298.5t53.5 305t141 240t201 153t232.5 56
q71 0 131 -11t97.5 -26t70.5 -37.5t48 -38t32.5 -36t20.5 -23.5l43 148h305v-605h-367q-4 120 -71 190t-162 70q-81 0 -146 -53.5t-100 -141.5t-35 -190q0 -162 75.5 -269t205.5 -107q80 0 125 26.5t72 73.5v86h-125v219h680v-219h-82v-512h-410z" />
    <glyph glyph-name="gdotaccent" unicode="&#x121;" horiz-adv-x="1310" 
d="M657 1096q-61 0 -105 44t-44 105q0 59 44 102.5t105 43.5q60 0 103 -43.5t43 -102.5q0 -61 -43 -105t-103 -44zM49 -240l109 228q49 -42 151 -86.5t205 -44.5q66 0 114.5 17.5t74 46.5t37.5 61t12 67v70q-32 -41 -93 -77t-147 -36q-102 0 -186 28.5t-140 77t-94 115
t-55 139t-17 152.5q0 243 133 384.5t382 141.5q64 0 123.5 -24.5t93.5 -58.5l41 63h487v-268h-123v-613q0 -262 -162 -412t-477 -151q-104 1 -203.5 32.5t-159.5 68.5t-106 79zM457 522q0 -98 41.5 -175t105.5 -77q63 0 107.5 73t38.5 189q0 103 -44.5 174.5t-103.5 71.5
q-65 0 -105 -70t-40 -186z" />
    <glyph glyph-name="uni0122" unicode="&#x122;" horiz-adv-x="1589" 
d="M1067 0l-63 129q-36 -61 -126.5 -104t-203.5 -43q-134 0 -251.5 51t-204.5 142.5t-137 228t-50 298.5t53.5 305t141 240t201 153t232.5 56q71 0 131 -11t97.5 -26t70.5 -37.5t48 -38t32.5 -36t20.5 -23.5l43 148h305v-605h-367q-4 120 -71 190t-162 70q-81 0 -146 -53.5
t-100 -141.5t-35 -190q0 -162 75.5 -269t205.5 -107q80 0 125 26.5t72 73.5v86h-125v219h680v-219h-82v-512h-410zM764 -680l-152 86q75 93 105 188t20 238l240 -63q4 -125 -52.5 -241t-160.5 -208z" />
    <glyph glyph-name="uni0123" unicode="&#x123;" horiz-adv-x="1310" 
d="M690 1571l123 -70q-60 -74 -83.5 -151.5t-16.5 -194.5l-215 51q-3 105 46.5 202t145.5 163zM49 -240l109 228q49 -42 151 -86.5t205 -44.5q66 0 114.5 17.5t74 46.5t37.5 61t12 67v70q-32 -41 -93 -77t-147 -36q-102 0 -186 28.5t-140 77t-94 115t-55 139t-17 152.5
q0 243 133 384.5t382 141.5q64 0 123.5 -24.5t93.5 -58.5l41 63h487v-268h-123v-613q0 -262 -162 -412t-477 -151q-104 1 -203.5 32.5t-159.5 68.5t-106 79zM457 522q0 -98 41.5 -175t105.5 -77q63 0 107.5 73t38.5 189q0 103 -44.5 174.5t-103.5 71.5q-65 0 -105 -70
t-40 -186z" />
    <glyph glyph-name="Hbar" unicode="&#x126;" horiz-adv-x="1572" 
d="M1522 1161h-119v-98h119v-129h-119v-664h119v-270h-666v270h121v310h-389v-310h127v-270h-664v270h113v664h-107v129h107v98h-113v271h664v-271h-127v-98h389v98h-121v271h666v-271zM977 852v82h-389v-82h389z" />
    <glyph glyph-name="hbar" unicode="&#x127;" horiz-adv-x="1353" 
d="M1227 268h96v-268h-526v557q0 30 -1 48t-7 48.5t-18 48.5t-36 32t-59 14q-37 0 -63.5 -17t-40 -46t-19.5 -60.5t-6 -67.5v-289h147v-268h-643v268h86v795h-170v170h170v37h-86v266h496v-303h112v-170h-112v-166q26 42 124.5 103t196.5 61q66 0 119.5 -14t90.5 -37.5
t64.5 -59t43.5 -72.5t25.5 -85t12.5 -90t3 -93v-342z" />
    <glyph glyph-name="Imacron" unicode="&#x12a;" horiz-adv-x="782" 
d="M-70 1796h922v-170h-922v170zM51 1161v271h680v-271h-127v-889h127v-272h-680v272h129v889h-129z" />
    <glyph glyph-name="imacron" unicode="&#x12b;" horiz-adv-x="675" 
d="M-123 1389h922v-170h-922v170zM625 268v-268h-574v268h86v490h-86v266h475v-756h99z" />
    <glyph glyph-name="Iogonek" unicode="&#x12e;" horiz-adv-x="782" 
d="M995 -203l107 -149q-106 -59 -211.5 -76t-182.5 4t-125 74.5t-48 128.5q0 128 102 221h-586v272h129v889h-129v271h680v-271h-127v-889h127v-235l74 -12q-30 -27 -46 -43t-35 -47.5t-19 -59.5q0 -21 9 -41.5t31 -38.5t54 -26t83 -2t113 30z" />
    <glyph glyph-name="iogonek" unicode="&#x12f;" horiz-adv-x="675" 
d="M340 1096q-62 0 -106 44t-44 105q0 59 44.5 102.5t105.5 43.5q60 0 102.5 -43.5t42.5 -102.5q0 -62 -42.5 -105.5t-102.5 -43.5zM899 -203l107 -149q-106 -59 -211.5 -76t-183 4t-125.5 74.5t-48 128.5q0 127 103 221h-490v268h86v490h-86v266h475v-756h99v-229l84 -14
q-31 -28 -46.5 -43.5t-35 -47t-19.5 -59.5q0 -21 9 -41.5t31 -38.5t54.5 -26.5t83.5 -2t113 30.5z" />
    <glyph glyph-name="Idotaccent" unicode="&#x130;" horiz-adv-x="782" 
d="M393 1503q-61 0 -105 44t-44 106q0 59 44 102t105 43q60 0 103 -43t43 -102q0 -62 -43 -106t-103 -44zM51 1161v271h680v-271h-127v-889h127v-272h-680v272h129v889h-129z" />
    <glyph glyph-name="dotlessi" unicode="&#x131;" horiz-adv-x="675" 
d="M625 268v-268h-574v268h86v490h-86v266h475v-756h99z" />
    <glyph glyph-name="uni0136" unicode="&#x136;" horiz-adv-x="1669" 
d="M696 1432v-265h-110v-333l381 333h-148v265h682v-265h-119l-297 -256l414 -645h119v-266h-799v266h139l-221 348l-151 -129v-219h110v-266h-645v266h111v901h-111v265h645zM805 -680l-152 86q75 93 105 188t20 238l240 -63q4 -125 -52.5 -241t-160.5 -208z" />
    <glyph glyph-name="uni0137" unicode="&#x137;" horiz-adv-x="1339" 
d="M625 0h-547v266h84v1002h-84v268h473v-926l237 142h-147v270h573v-270h-157l-139 -88l276 -396h102v-268h-606v268h86l-155 221l-72 -49v-172h76v-268zM639 -680l-152 86q75 93 105 188t20 238l240 -63q4 -125 -52.5 -241t-160.5 -208z" />
    <glyph glyph-name="Lacute" unicode="&#x139;" horiz-adv-x="1249" 
d="M934 1839l-389 -235l-230 41l308 235zM51 1161v271h647v-271h-108v-889h264v260h344v-532h-1147v272h113v889h-113z" />
    <glyph glyph-name="lacute" unicode="&#x13a;" horiz-adv-x="679" 
d="M649 1944l-389 -236l-229 41l307 236zM649 268v-268h-598v268h88v1004h-86v264h475v-1268h121z" />
    <glyph glyph-name="uni013B" unicode="&#x13b;" horiz-adv-x="1249" 
d="M51 1161v271h647v-271h-108v-889h264v260h344v-532h-1147v272h113v889h-113zM594 -680l-152 86q75 93 105 188t20 238l240 -63q4 -125 -52.5 -241t-160.5 -208z" />
    <glyph glyph-name="uni013C" unicode="&#x13c;" horiz-adv-x="679" 
d="M649 268v-268h-598v268h88v1004h-86v264h475v-1268h121zM309 -680l-151 86q75 93 105 188t20 238l239 -63q4 -125 -52.5 -241t-160.5 -208z" />
    <glyph glyph-name="Lcaron" unicode="&#x13d;" horiz-adv-x="1249" 
d="M719 1532h-191l-276 235l237 72l136 -180l133 180l237 -72zM854 532h344v-532h-1147v272h113v889h-113v271h647v-271h-108v-889h264v260z" />
    <glyph glyph-name="lcaron" unicode="&#x13e;" horiz-adv-x="968" 
d="M811 1616q82 0 140.5 -59t58.5 -142q0 -74 -25.5 -150t-64.5 -133.5t-73.5 -97t-62.5 -61.5l-88 55q41 43 57 108t-18 95q-56 24 -90.5 73.5t-34.5 110.5q0 83 59 142t142 59zM528 1536v-1268h121v-268h-598v268h88v1004h-86v264h475z" />
    <glyph glyph-name="Lslash" unicode="&#x141;" horiz-adv-x="1249" 
d="M854 532h344v-532h-1147v272h113v334l-131 -26v202l131 27v352h-113v271h647v-271h-108v-264l137 29v-203l-137 -29v-422h264v260z" />
    <glyph glyph-name="lslash" unicode="&#x142;" horiz-adv-x="679" 
d="M666 723l-138 -31v-424h121v-268h-598v268h88v336l-106 -24v202l106 25v465h-86v264h475v-641l138 31v-203z" />
    <glyph glyph-name="Nacute" unicode="&#x143;" horiz-adv-x="1671" 
d="M1145 1839l-389 -235l-230 41l308 235zM1620 1432v-265h-135v-1167h-441l-522 780v-516h158v-264h-629v264h121v903h-119v265h588l504 -752l-2 487h-139v265h616z" />
    <glyph glyph-name="nacute" unicode="&#x144;" horiz-adv-x="1325" 
d="M973 1432l-389 -236l-230 41l308 236zM682 268v-268h-631v268h86v490h-86v266h436l48 -127q120 164 292 164q92 0 160 -27t107.5 -69t63.5 -104t32 -121t8 -130v-342h96v-268h-516v559q0 89 -12 124q-26 66 -102 67q-37 0 -63.5 -17t-40 -46t-19.5 -60.5t-6 -67.5v-291
h147z" />
    <glyph glyph-name="uni0145" unicode="&#x145;" horiz-adv-x="1671" 
d="M1620 1432v-265h-135v-1167h-441l-522 780v-516h158v-264h-629v264h121v903h-119v265h588l504 -752l-2 487h-139v265h616zM805 -680l-152 86q75 93 105 188t20 238l240 -63q4 -125 -52.5 -241t-160.5 -208z" />
    <glyph glyph-name="uni0146" unicode="&#x146;" horiz-adv-x="1325" 
d="M682 268v-268h-631v268h86v490h-86v266h436l48 -127q120 164 292 164q92 0 160 -27t107.5 -69t63.5 -104t32 -121t8 -130v-342h96v-268h-516v559q0 89 -12 124q-26 66 -102 67q-37 0 -63.5 -17t-40 -46t-19.5 -60.5t-6 -67.5v-291h147zM633 -680l-152 86q75 93 105 188
t20 238l240 -63q4 -125 -52.5 -241t-160.5 -208z" />
    <glyph glyph-name="Ncaron" unicode="&#x147;" horiz-adv-x="1671" 
d="M930 1532h-191l-276 235l237 72l136 -180l133 180l237 -72zM1004 1432h616v-265h-135v-1167h-441l-522 780v-516h158v-264h-629v264h121v903h-119v265h588l504 -752l-2 487h-139v265z" />
    <glyph glyph-name="ncaron" unicode="&#x148;" horiz-adv-x="1325" 
d="M758 1124h-191l-276 236l237 72l136 -181l133 181l237 -72zM1198 268h96v-268h-516v559q0 89 -12 124q-26 66 -102 67q-37 0 -63.5 -17t-40 -46t-19.5 -60.5t-6 -67.5v-291h147v-268h-631v268h86v490h-86v266h436l48 -127q120 164 292 164q92 0 160 -27t107.5 -69
t63.5 -104t32 -121t8 -130v-342z" />
    <glyph glyph-name="Eng" unicode="&#x14a;" horiz-adv-x="1671" 
d="M1004 1432h616v-265h-135v-1167q-5 -270 -148 -409.5t-446 -139.5q-48 0 -107 23l-2 270q40 -18 92 -18q165 0 170 274l-522 780v-516h158v-264h-629v264h121v903h-119v265h588l504 -752l-2 487h-139v265z" />
    <glyph glyph-name="eng" unicode="&#x14b;" 
d="M827 1061q92 0 160 -27t107.5 -69t63.5 -104t32 -121t8 -130v-590q0 -283 -133.5 -426t-439.5 -143q-48 0 -107 23l-2 270q40 -18 92 -18q170 0 170 294v539q0 89 -12 124q-26 66 -102 67q-37 0 -63.5 -17t-40 -46t-19.5 -60.5t-6 -67.5v-291h147v-268h-631v268h86v490
h-86v266h436l48 -127q120 164 292 164z" />
    <glyph glyph-name="Omacron" unicode="&#x14c;" horiz-adv-x="1515" 
d="M297 1796h922v-170h-922v170zM764 -37q-162 0 -295.5 47.5t-231.5 140t-152 238.5t-54 334q0 218 91 388.5t254.5 264.5t373.5 94q185 0 326 -54t230 -154t134 -239t45 -314q0 -350 -188.5 -548t-532.5 -198zM764 285q96 0 152.5 116t56.5 308q0 129 -22.5 226.5
t-74.5 158.5t-128 61q-93 1 -152 -120t-59 -312q0 -198 63.5 -318t163.5 -120z" />
    <glyph glyph-name="omacron" unicode="&#x14d;" horiz-adv-x="1175" 
d="M127 1389h922v-170h-922v170zM594 -27q-112 0 -213.5 34.5t-183 100.5t-128.5 171.5t-46 236.5q1 100 32 186.5t85 149t125 108t152.5 67.5t166.5 22q163 -2 289.5 -65t201.5 -186t78 -290q1 -124 -42 -226.5t-119.5 -169t-178.5 -103t-219 -36.5zM594 236
q64 0 101.5 76.5t37.5 195.5t-39.5 196t-109.5 78q-60 0 -101 -77.5t-41 -190.5q0 -124 43 -201t109 -77z" />
    <glyph glyph-name="Ohungarumlaut" unicode="&#x150;" horiz-adv-x="1515" 
d="M813 1860l-348 -256l-148 41l226 256zM1198 1819l-389 -215l-147 41l266 215zM764 -37q-162 0 -295.5 47.5t-231.5 140t-152 238.5t-54 334q0 218 91 388.5t254.5 264.5t373.5 94q185 0 326 -54t230 -154t134 -239t45 -314q0 -350 -188.5 -548t-532.5 -198zM764 285
q96 0 152.5 116t56.5 308q0 129 -22.5 226.5t-74.5 158.5t-128 61q-93 1 -152 -120t-59 -312q0 -198 63.5 -318t163.5 -120z" />
    <glyph glyph-name="ohungarumlaut" unicode="&#x151;" horiz-adv-x="1175" 
d="M643 1452l-348 -256l-148 41l226 256zM1028 1411l-389 -215l-147 41l266 215zM594 -27q-112 0 -213.5 34.5t-183 100.5t-128.5 171.5t-46 236.5q1 100 32 186.5t85 149t125 108t152.5 67.5t166.5 22q163 -2 289.5 -65t201.5 -186t78 -290q1 -124 -42 -226.5t-119.5 -169
t-178.5 -103t-219 -36.5zM594 236q64 0 101.5 76.5t37.5 195.5t-39.5 196t-109.5 78q-60 0 -101 -77.5t-41 -190.5q0 -124 43 -201t109 -77z" />
    <glyph glyph-name="OE" unicode="&#x152;" horiz-adv-x="2271" 
d="M2220 979h-354v182h-328v-282h389v-273h-389v-334h328v191h354v-463h-1190q-118 -37 -266 -37q-162 0 -295.5 47.5t-231.5 140t-152 238.5t-54 334q0 218 91 388.5t254.5 264.5t373.5 94q157 0 282 -38h1188v-453zM764 285q96 0 152.5 116t56.5 308q0 129 -22.5 226.5
t-74.5 158.5t-128 61q-93 1 -152 -120t-59 -312q0 -198 63.5 -318t163.5 -120z" />
    <glyph glyph-name="oe" unicode="&#x153;" horiz-adv-x="1884" 
d="M1823 141q-111 -96 -237.5 -137t-291.5 -41q-202 0 -346 115q-148 -105 -354 -105q-112 0 -213.5 34.5t-183 100.5t-128.5 171.5t-46 236.5q1 100 32 186.5t85 149t125 108t152.5 67.5t166.5 22q218 -3 362 -111q142 115 359 115q180 0 312 -82.5t177 -214.5
q14 -40 22 -95t5 -125.5t-23 -125.5h-645q5 -23 10 -39t20 -43t35.5 -43.5t58.5 -29.5t87 -13q169 0 287 98zM594 236q64 0 101.5 76.5t37.5 195.5t-39.5 196t-109.5 78q-60 0 -101 -77.5t-41 -190.5q0 -124 43 -201t109 -77zM1317 776q-36 0 -64 -12.5t-44.5 -30.5
t-28 -41.5t-16 -42.5t-5.5 -37h309q-1 34 -6.5 59.5t-20 51t-46 39.5t-78.5 14z" />
    <glyph glyph-name="Racute" unicode="&#x154;" horiz-adv-x="1509" 
d="M1065 1839l-389 -235l-230 41l308 235zM51 1163v269h666q139 0 241 -22t164 -58.5t99 -93t50 -114.5t13 -134q0 -117 -83 -197.5t-214 -99.5q108 -15 188 -99t80 -192q0 -139 50 -139q47 0 47 65v68h137v-113q0 -53 -9 -99.5t-31 -89t-55.5 -73t-85.5 -48.5t-118 -18
q-198 0 -297.5 99t-99.5 282q0 75 -6 115.5t-28.5 69.5t-61.5 38t-109 9v-318h125v-270h-662v270h115v893h-115zM690 1165h-102v-348h92q91 0 144 43t53 123q0 90 -48.5 136t-138.5 46z" />
    <glyph glyph-name="racute" unicode="&#x155;" horiz-adv-x="847" 
d="M733 1432l-389 -236l-229 41l307 236zM631 268v-268h-580v268h90v490h-88v266h385l62 -131q23 43 43 68.5t55 51t89 37t130 11.5v-354q-147 0 -218 -49.5t-71 -178.5v-211h103z" />
    <glyph glyph-name="uni0156" unicode="&#x156;" horiz-adv-x="1509" 
d="M51 1163v269h666q139 0 241 -22t164 -58.5t99 -93t50 -114.5t13 -134q0 -117 -83 -197.5t-214 -99.5q108 -15 188 -99t80 -192q0 -139 50 -139q47 0 47 65v68h137v-113q0 -53 -9 -99.5t-31 -89t-55.5 -73t-85.5 -48.5t-118 -18q-198 0 -297.5 99t-99.5 282q0 75 -6 115.5
t-28.5 69.5t-61.5 38t-109 9v-318h125v-270h-662v270h115v893h-115zM690 1165h-102v-348h92q91 0 144 43t53 123q0 90 -48.5 136t-138.5 46zM725 -680l-152 86q75 93 105 188t20 238l240 -63q4 -125 -52.5 -241t-160.5 -208z" />
    <glyph glyph-name="uni0157" unicode="&#x157;" horiz-adv-x="847" 
d="M631 268v-268h-580v268h90v490h-88v266h385l62 -131q23 43 43 68.5t55 51t89 37t130 11.5v-354q-147 0 -218 -49.5t-71 -178.5v-211h103zM393 -680l-151 86q75 93 105 188t20 238l239 -63q4 -125 -52.5 -241t-160.5 -208z" />
    <glyph glyph-name="Rcaron" unicode="&#x158;" horiz-adv-x="1509" 
d="M850 1532h-191l-276 235l238 72l135 -180l133 180l237 -72zM1352 416h137v-113q0 -53 -9 -99.5t-31 -89t-55.5 -73t-85.5 -48.5t-118 -18q-198 0 -297.5 99t-99.5 282q0 75 -6 115.5t-28.5 69.5t-61.5 38t-109 9v-318h125v-270h-662v270h115v893h-115v269h666
q139 0 241 -22t164 -58.5t99 -93t50 -114.5t13 -134q0 -117 -83 -197.5t-214 -99.5q108 -15 188 -99t80 -192q0 -139 50 -139q47 0 47 65v68zM680 817q91 0 144 43t53 123q0 90 -48.5 136t-138.5 46h-102v-348h92z" />
    <glyph glyph-name="rcaron" unicode="&#x159;" horiz-adv-x="847" 
d="M518 1124h-190l-277 236l238 72l135 -181l133 181l238 -72zM817 707q-147 0 -218 -49.5t-71 -178.5v-211h103v-268h-580v268h90v490h-88v266h385l62 -131q23 43 43 68.5t55 51t89 37t130 11.5v-354z" />
    <glyph glyph-name="Sacute" unicode="&#x15a;" horiz-adv-x="1454" 
d="M1036 1839l-389 -235l-229 41l307 235zM410 0h-359v516h381q0 -49 19 -86.5t46.5 -59t65 -35t67 -18.5t60.5 -6q43 0 78.5 7t65.5 31.5t30 64.5q0 25 -27 45.5t-72.5 36.5t-104.5 32t-124 36.5t-130 45.5t-124 63t-104.5 85.5t-72.5 116.5t-27 153q0 87 31.5 161.5
t82 124.5t115 86t130.5 52t128 16q141 0 255.5 -50t172.5 -158l21 172h352v-514h-371q0 110 -75 173.5t-187 63.5q-51 0 -96 -29t-45 -79q0 -33 27.5 -61.5t74.5 -50t108 -42t128.5 -43.5t134.5 -49.5t128 -64t108 -82.5t74.5 -109.5t27.5 -141.5q0 -92 -33.5 -167
t-87.5 -124t-126 -82t-146 -47t-150 -14q-143 0 -251.5 54.5t-176.5 134.5z" />
    <glyph glyph-name="sacute" unicode="&#x15b;" horiz-adv-x="1040" 
d="M829 1432l-389 -236l-229 41l307 236zM287 0h-256v369h274q0 -38 24.5 -67t61.5 -43.5t70.5 -21t60.5 -6.5q90 0 90 70q0 17 -16.5 30.5t-48.5 24.5t-66 20t-83.5 22t-86.5 26q-57 20 -102 45.5t-85.5 63.5t-62.5 94t-22 125q0 74 35.5 133.5t91 94t115.5 52t118 17.5
q102 0 187.5 -46t118.5 -114l16 135h252v-369h-266q0 63 -65 109.5t-144 46.5q-35 0 -57.5 -19t-22.5 -55q0 -16 12 -30t41 -27t52 -21.5t72.5 -24t74.5 -24.5q45 -15 68.5 -23.5t64 -26.5t63.5 -33.5t52 -41t44 -53t26 -66t11 -83.5q0 -139 -112.5 -223.5t-268.5 -84.5
q-105 0 -189.5 43.5t-123.5 106.5z" />
    <glyph glyph-name="Scedilla" unicode="&#x15e;" horiz-adv-x="1454" 
d="M860 -31q-40 0 -106 8l-6 -92q11 21 46 43.5t89 26.5q90 6 155.5 -51.5t65.5 -157.5q0 -112 -85.5 -176t-195.5 -64q-82 0 -147 27t-101 66l101 96q21 -22 60.5 -33.5t78.5 -9.5q57 3 82 23t25 61q0 39 -19.5 61.5t-58.5 22.5q-29 0 -54 -18.5t-28 -37.5l-133 25l18 219
q-126 46 -215 150l-22 -158h-359v516h381q0 -49 19 -86.5t46.5 -59t65 -35t67 -18.5t60.5 -6q43 0 78.5 7t65.5 31.5t30 64.5q0 25 -27 45.5t-72.5 36.5t-104.5 32t-124 36.5t-130 45.5t-124 63t-104.5 85.5t-72.5 116.5t-27 153q0 87 31.5 161.5t82 124.5t115 86t130.5 52
t128 16q141 0 255.5 -50t172.5 -158l21 172h352v-514h-371q0 110 -75 173.5t-187 63.5q-51 0 -96 -29t-45 -79q0 -33 27.5 -61.5t74.5 -50t108 -42t128.5 -43.5t134.5 -49.5t128 -64t108 -82.5t74.5 -109.5t27.5 -141.5q0 -92 -33.5 -167t-87.5 -124t-126 -82t-146 -47
t-150 -14z" />
    <glyph glyph-name="scedilla" unicode="&#x15f;" horiz-adv-x="1040" 
d="M618 -25q-31 0 -71 7l-6 -97q11 21 46 43.5t89 26.5q90 6 155.5 -51.5t65.5 -157.5q0 -112 -85.5 -176t-195.5 -64q-82 0 -146.5 27t-100.5 66l100 96q21 -22 60.5 -33.5t78.5 -9.5q57 3 82 23t25 61q0 39 -19.5 61.5t-58.5 22.5q-29 0 -54 -18.5t-28 -37.5l-133 25
l18 223q-91 43 -135 113l-18 -125h-256v369h274q0 -38 24.5 -67t61.5 -43.5t70.5 -21t60.5 -6.5q90 0 90 70q0 17 -16.5 30.5t-48.5 24.5t-66 20t-83.5 22t-86.5 26q-57 20 -102 45.5t-85.5 63.5t-62.5 94t-22 125q0 74 35.5 133.5t91 94t115.5 52t118 17.5q102 0 187.5 -46
t118.5 -114l16 135h252v-369h-266q0 63 -65 109.5t-144 46.5q-35 0 -57.5 -19t-22.5 -55q0 -16 12 -30t41 -27t52 -21.5t72.5 -24t74.5 -24.5q45 -15 68.5 -23.5t64 -26.5t63.5 -33.5t52 -41t44 -53t26 -66t11 -83.5q0 -139 -112.5 -223.5t-268.5 -84.5z" />
    <glyph glyph-name="Scaron" unicode="&#x160;" horiz-adv-x="1454" 
d="M821 1532h-190l-277 235l238 72l135 -180l133 180l238 -72zM592 1047q0 -33 27.5 -61.5t74.5 -50t108 -42t128.5 -43.5t134.5 -49.5t128 -64t108 -82.5t74.5 -109.5t27.5 -141.5q0 -92 -33.5 -167t-87.5 -124t-126 -82t-146 -47t-150 -14q-143 0 -251.5 54.5
t-176.5 134.5l-22 -158h-359v516h381q0 -49 19 -86.5t46.5 -59t65 -35t67 -18.5t60.5 -6q43 0 78.5 7t65.5 31.5t30 64.5q0 25 -27 45.5t-72.5 36.5t-104.5 32t-124 36.5t-130 45.5t-124 63t-104.5 85.5t-72.5 116.5t-27 153q0 87 31.5 161.5t82 124.5t115 86t130.5 52
t128 16q141 0 255.5 -50t172.5 -158l21 172h352v-514h-371q0 110 -75 173.5t-187 63.5q-51 0 -96 -29t-45 -79z" />
    <glyph glyph-name="scaron" unicode="&#x161;" horiz-adv-x="1040" 
d="M614 1124h-190l-277 236l238 72l135 -181l133 181l238 -72zM670 610q45 -15 68.5 -23.5t64 -26.5t63.5 -33.5t52 -41t44 -53t26 -66t11 -83.5q0 -139 -112.5 -223.5t-268.5 -84.5q-105 0 -189.5 43.5t-123.5 106.5l-18 -125h-256v369h274q0 -38 24.5 -67t61.5 -43.5
t70.5 -21t60.5 -6.5q90 0 90 70q0 17 -16.5 30.5t-48.5 24.5t-66 20t-83.5 22t-86.5 26q-57 20 -102 45.5t-85.5 63.5t-62.5 94t-22 125q0 74 35.5 133.5t91 94t115.5 52t118 17.5q102 0 187.5 -46t118.5 -114l16 135h252v-369h-266q0 63 -65 109.5t-144 46.5
q-35 0 -57.5 -19t-22.5 -55q0 -16 12 -30t41 -27t52 -21.5t72.5 -24t74.5 -24.5z" />
    <glyph glyph-name="uni0162" unicode="&#x162;" horiz-adv-x="1435" 
d="M31 1432h1374v-533h-301v262h-172v-889h170v-272h-357l-6 -115q11 21 46 43.5t89 26.5q90 6 156 -51.5t66 -157.5q0 -112 -85.5 -176t-195.5 -64q-82 0 -147 27t-101 66l101 96q21 -22 60.5 -33.5t78.5 -9.5q57 3 81.5 23t24.5 61q0 84 -77 84q-29 0 -54 -18.5t-28 -37.5
l-133 25l18 211h-299v272h168v889h-176v-262h-301v533z" />
    <glyph glyph-name="uni0163" unicode="&#x163;" horiz-adv-x="743" 
d="M586 -66q90 6 155.5 -51t65.5 -157q0 -112 -85.5 -176t-195.5 -64q-82 0 -146.5 26.5t-100.5 65.5l100 96q21 -22 60.5 -33.5t78.5 -9.5q57 3 82 23t25 61q0 39 -19.5 61.5t-58.5 22.5q-29 0 -54 -18t-28 -37l-133 25l18 204q-36 8 -64.5 20t-49.5 32t-36 39.5t-25 51
t-16.5 56.5t-10 67.5t-5 72t-2.5 81.5v365h-110v266h110v188l377 121v-309h195v-266h-195v-365q0 -9 -0.5 -31t-0.5 -33t1.5 -29.5t6 -28.5t11.5 -21t19 -16t29 -5q44 0 129 35v-262q-41 -17 -122 -28t-126 -11h-8l-6 -98q11 20 46 42.5t89 26.5z" />
    <glyph glyph-name="Tcaron" unicode="&#x164;" horiz-adv-x="1435" 
d="M813 1532h-190l-277 235l238 72l135 -180l133 180l238 -72zM31 1432h1374v-533h-301v262h-172v-889h170v-272h-762v272h168v889h-176v-262h-301v533z" />
    <glyph glyph-name="tcaron" unicode="&#x165;" horiz-adv-x="1036" 
d="M879 1616q82 0 140 -59t58 -142q0 -74 -25.5 -150t-64 -133.5t-73 -97t-62.5 -61.5l-88 55q41 43 57 108t-18 95q-56 24 -90.5 73.5t-34.5 110.5q0 83 59 142t142 59zM518 1333v-309h195v-266h-195v-365q0 -9 -0.5 -31t-0.5 -33t1.5 -29.5t6 -28.5t11.5 -21t19 -16t29 -5
q44 0 129 35v-262q-41 -17 -122 -28t-126 -11q-90 0 -151 22t-94 52t-50.5 94t-22 114.5t-6.5 147.5v365h-110v266h110v188z" />
    <glyph glyph-name="Tbar" unicode="&#x166;" horiz-adv-x="1435" 
d="M1405 899h-301v262h-172v-403h217v-176h-217v-310h170v-272h-762v272h168v310h-215v176h215v403h-176v-262h-301v533h1374v-533z" />
    <glyph glyph-name="tbar" unicode="&#x167;" horiz-adv-x="743" 
d="M713 758h-195v-90h195v-176h-195v-99q0 -9 -0.5 -31t-0.5 -33t1.5 -29.5t6 -28.5t11.5 -21t19 -16t29 -5q44 0 129 35v-262q-41 -17 -122 -28t-126 -11q-90 0 -151 22t-94 52t-50.5 94t-22 114.5t-6.5 147.5v99h-108v176h108v90h-110v266h110v188l377 121v-309h195v-266z
" />
    <glyph glyph-name="Umacron" unicode="&#x16a;" horiz-adv-x="1509" 
d="M315 1796h922v-170h-922v170zM31 1165v267h651v-265h-111v-440q0 -99 9.5 -170.5t26 -116t43 -70t56 -35t70.5 -9.5q51 0 86.5 16t64 58t42.5 123t14 204v434h-111v271h607v-265h-111v-501q0 -363 -143.5 -532t-448.5 -169q-631 0 -631 701v499h-114z" />
    <glyph glyph-name="umacron" unicode="&#x16b;" horiz-adv-x="1292" 
d="M186 1389h922v-170h-922v170zM31 754v270h495v-494q0 -136 25 -197t86 -61q55 0 92 44t37 112v326h-135v270h530v-752h101v-272h-388l-55 129q-1 -1 -20.5 -24t-27.5 -30.5t-30 -28.5t-40.5 -30t-46 -22t-59 -18t-67.5 -5q-226 0 -318.5 119t-92.5 381v283h-86z" />
    <glyph glyph-name="Uring" unicode="&#x16e;" horiz-adv-x="1509" 
d="M776 1493q-86 0 -147.5 61.5t-61.5 147.5t61.5 147.5t147.5 61.5t147.5 -61.5t61.5 -147.5t-61.5 -147.5t-147.5 -61.5zM776 1626q31 0 53.5 22.5t22.5 53.5t-22.5 53.5t-53.5 22.5t-53.5 -22.5t-22.5 -53.5t22.5 -53.5t53.5 -22.5zM31 1165v267h651v-265h-111v-440
q0 -99 9.5 -170.5t26 -116t43 -70t56 -35t70.5 -9.5q51 0 86.5 16t64 58t42.5 123t14 204v434h-111v271h607v-265h-111v-501q0 -363 -143.5 -532t-448.5 -169q-631 0 -631 701v499h-114z" />
    <glyph glyph-name="uring" unicode="&#x16f;" horiz-adv-x="1292" 
d="M647 1085q-86 0 -147.5 61.5t-61.5 147.5t61.5 147.5t147.5 61.5t147.5 -61.5t61.5 -147.5t-61.5 -147.5t-147.5 -61.5zM647 1219q31 0 53.5 22t22.5 53t-22.5 53.5t-53.5 22.5t-53.5 -22.5t-22.5 -53.5t22.5 -53t53.5 -22zM31 754v270h495v-494q0 -136 25 -197t86 -61
q55 0 92 44t37 112v326h-135v270h530v-752h101v-272h-388l-55 129q-1 -1 -20.5 -24t-27.5 -30.5t-30 -28.5t-40.5 -30t-46 -22t-59 -18t-67.5 -5q-226 0 -318.5 119t-92.5 381v283h-86z" />
    <glyph glyph-name="Uhungarumlaut" unicode="&#x170;" horiz-adv-x="1509" 
d="M831 1860l-348 -256l-147 41l225 256zM1217 1819l-390 -215l-147 41l266 215zM31 1165v267h651v-265h-111v-440q0 -99 9.5 -170.5t26 -116t43 -70t56 -35t70.5 -9.5q51 0 86.5 16t64 58t42.5 123t14 204v434h-111v271h607v-265h-111v-501q0 -363 -143.5 -532t-448.5 -169
q-631 0 -631 701v499h-114z" />
    <glyph glyph-name="uhungarumlaut" unicode="&#x171;" horiz-adv-x="1292" 
d="M702 1452l-348 -256l-147 41l225 256zM1087 1411l-389 -215l-147 41l266 215zM31 754v270h495v-494q0 -136 25 -197t86 -61q55 0 92 44t37 112v326h-135v270h530v-752h101v-272h-388l-55 129q-1 -1 -20.5 -24t-27.5 -30.5t-30 -28.5t-40.5 -30t-46 -22t-59 -18t-67.5 -5
q-226 0 -318.5 119t-92.5 381v283h-86z" />
    <glyph glyph-name="Uogonek" unicode="&#x172;" horiz-adv-x="1509" 
d="M872 1432h607v-265h-111v-501q0 -287 -89 -452t-275 -220q-68 -64 -68 -119q0 -21 9 -41.5t31 -38.5t54.5 -26.5t83.5 -2t113 30.5l106 -149q-106 -59 -211.5 -76t-182.5 4t-125 74.5t-48 128.5q0 107 70 188q-18 -2 -60 -2q-631 0 -631 701v499h-114v267h651v-265h-111
v-440q0 -99 9.5 -170.5t26 -116t43 -70t56 -35t70.5 -9.5q51 0 86.5 16t64 58t42.5 123t14 204v434h-111v271z" />
    <glyph glyph-name="uogonek" unicode="&#x173;" horiz-adv-x="1292" 
d="M1454 -203l107 -149q-106 -59 -211.5 -76t-183 4t-125.5 74.5t-48 128.5q0 127 103 221h-222l-55 129q-1 -1 -20.5 -24t-27.5 -30.5t-30 -28.5t-40.5 -30t-46 -22t-59 -18t-67.5 -5q-226 0 -318.5 119t-92.5 381v283h-86v270h495v-494q0 -136 25 -197t86 -61q55 0 92 44
t37 112v326h-135v270h530v-752h101v-247h2l-2 -2v-23h-25q-74 -70 -74 -125q0 -21 9 -41.5t31 -38.5t54.5 -26.5t83.5 -2t113 30.5z" />
    <glyph glyph-name="Wcircumflex" unicode="&#x174;" horiz-adv-x="2078" 
d="M1040 1712l-135 -180l-237 72l276 235h191l276 -235l-237 -72zM1513 1432h586v-267h-112l-306 -1165h-485l-123 487q-28 109 -51 254h-8q-12 -95 -49 -249l-125 -492h-475l-271 1165h-114v267h675v-267h-118l53 -299q28 -117 65 -403h11q3 49 100 508l102 461h426
l129 -566q41 -187 62 -403h10q6 65 26 193t35 198l70 311h-113v267z" />
    <glyph glyph-name="wcircumflex" unicode="&#x175;" horiz-adv-x="1785" 
d="M893 1305l-135 -181l-238 72l277 236h190l277 -236l-238 -72zM1286 1024h500v-266h-84l-240 -758h-432l-141 463l-148 -463h-422l-231 758h-88v266h551v-266h-70l45 -150q20 -67 34 -154t18 -141h4q19 266 84 482l65 229h379l78 -266q60 -194 88 -445h4q17 192 55 324
l35 121h-84v266z" />
    <glyph glyph-name="Ycircumflex" unicode="&#x176;" horiz-adv-x="1370" 
d="M686 1712l-135 -180l-238 72l277 235h190l277 -235l-238 -72zM840 1432h551v-263h-111l-379 -665v-238h115v-266h-656v266h117v242l-397 661h-100v263h700v-263h-107l119 -217q5 -17 32.5 -82t31.5 -84h8q3 14 13 39.5t18.5 44.5t24.5 52t20 41l112 206h-112v263z" />
    <glyph glyph-name="ycircumflex" unicode="&#x177;" horiz-adv-x="1187" 
d="M594 1305l-135 -181l-238 72l277 236h190l277 -236l-238 -72zM688 1024h520v-254h-98l-389 -946q-23 -49 -40 -80t-54.5 -75.5t-79.5 -70.5t-111.5 -45t-154.5 -18q-138 8 -248 103l153 241q67 -59 119 -69q44 -8 79 24.5t52 83.5l29 86l-399 758h-84v262h630v-260h-96
l133 -320l133 320h-94v260z" />
    <glyph glyph-name="Ydieresis" unicode="&#x178;" horiz-adv-x="1370" 
d="M451 1503q-61 0 -104.5 44t-43.5 106q0 59 43.5 102t104.5 43q60 0 103.5 -43t43.5 -102q0 -61 -43.5 -105.5t-103.5 -44.5zM922 1503q-62 0 -106 44.5t-44 105.5q0 59 44.5 102t105.5 43q60 0 102.5 -43t42.5 -102q0 -62 -42.5 -106t-102.5 -44zM756 786h8q3 14 13 39.5
t18.5 44.5t24.5 52t20 41l112 206h-112v263h551v-263h-111l-379 -665v-238h115v-266h-656v266h117v242l-397 661h-100v263h700v-263h-107l119 -217q5 -17 32.5 -82t31.5 -84z" />
    <glyph glyph-name="Zacute" unicode="&#x179;" horiz-adv-x="1462" 
d="M1040 1839l-389 -235l-229 41l307 235zM412 893h-349v539h1344l4 -273l-749 -889h378l2 262h363v-532h-1354v266l746 895l-387 -2z" />
    <glyph glyph-name="zacute" unicode="&#x17a;" horiz-adv-x="1132" 
d="M877 1432l-390 -236l-229 41l307 236zM317 614h-266v410h1014v-264l-487 -492h215v140h288v-408h-1030v268l494 492h-228v-146z" />
    <glyph glyph-name="Zdotaccent" unicode="&#x17b;" horiz-adv-x="1462" 
d="M733 1503q-61 0 -105 44t-44 106q0 59 44 102t105 43q60 0 103 -43t43 -102q0 -62 -43 -106t-103 -44zM412 893h-349v539h1344l4 -273l-749 -889h378l2 262h363v-532h-1354v266l746 895l-387 -2z" />
    <glyph glyph-name="zdotaccent" unicode="&#x17c;" horiz-adv-x="1132" 
d="M569 1096q-61 0 -105 44t-44 105q0 59 44 102.5t105 43.5q60 0 103 -43.5t43 -102.5q0 -61 -43 -105t-103 -44zM317 614h-266v410h1014v-264l-487 -492h215v140h288v-408h-1030v268l494 492h-228v-146z" />
    <glyph glyph-name="Zcaron" unicode="&#x17d;" horiz-adv-x="1462" 
d="M825 1532h-190l-277 235l238 72l135 -180l133 180l238 -72zM1040 270l2 262h363v-532h-1354v266l746 895l-387 -2l2 -266h-349v539h1344l4 -273l-749 -889h378z" />
    <glyph glyph-name="zcaron" unicode="&#x17e;" horiz-adv-x="1132" 
d="M662 1124h-191l-276 236l237 72l135 -181l133 181l238 -72zM793 408h288v-408h-1030v268l494 492h-228v-146h-266v410h1014v-264l-487 -492h215v140z" />
    <glyph glyph-name="uni0218" unicode="&#x218;" horiz-adv-x="1454" 
d="M410 0h-359v516h381q0 -49 19 -86.5t46.5 -59t65 -35t67 -18.5t60.5 -6q43 0 78.5 7t65.5 31.5t30 64.5q0 25 -27 45.5t-72.5 36.5t-104.5 32t-124 36.5t-130 45.5t-124 63t-104.5 85.5t-72.5 116.5t-27 153q0 87 31.5 161.5t82 124.5t115 86t130.5 52t128 16
q141 0 255.5 -50t172.5 -158l21 172h352v-514h-371q0 110 -75 173.5t-187 63.5q-51 0 -96 -29t-45 -79q0 -33 27.5 -61.5t74.5 -50t108 -42t128.5 -43.5t134.5 -49.5t128 -64t108 -82.5t74.5 -109.5t27.5 -141.5q0 -92 -33.5 -167t-87.5 -124t-126 -82t-146 -47t-150 -14
q-143 0 -251.5 54.5t-176.5 134.5zM696 -680l-151 86q75 93 105 188t20 238l239 -63q4 -125 -52.5 -241t-160.5 -208z" />
    <glyph glyph-name="uni0219" unicode="&#x219;" horiz-adv-x="1040" 
d="M287 0h-256v369h274q0 -38 24.5 -67t61.5 -43.5t70.5 -21t60.5 -6.5q90 0 90 70q0 17 -16.5 30.5t-48.5 24.5t-66 20t-83.5 22t-86.5 26q-57 20 -102 45.5t-85.5 63.5t-62.5 94t-22 125q0 74 35.5 133.5t91 94t115.5 52t118 17.5q102 0 187.5 -46t118.5 -114l16 135h252
v-369h-266q0 63 -65 109.5t-144 46.5q-35 0 -57.5 -19t-22.5 -55q0 -16 12 -30t41 -27t52 -21.5t72.5 -24t74.5 -24.5q45 -15 68.5 -23.5t64 -26.5t63.5 -33.5t52 -41t44 -53t26 -66t11 -83.5q0 -139 -112.5 -223.5t-268.5 -84.5q-105 0 -189.5 43.5t-123.5 106.5zM489 -680
l-151 86q75 93 105 188t20 238l239 -63q4 -125 -52.5 -241t-160.5 -208z" />
    <glyph glyph-name="uni021A" unicode="&#x21a;" horiz-adv-x="1435" 
d="M31 1432h1374v-533h-301v262h-172v-889h170v-272h-762v272h168v889h-176v-262h-301v533zM688 -680l-151 86q75 93 105 188t20 238l239 -63q4 -125 -52.5 -241t-160.5 -208z" />
    <glyph glyph-name="uni021B" unicode="&#x21b;" horiz-adv-x="743" 
d="M31 758v266h110v188l377 121v-309h195v-266h-195v-365q0 -9 -0.5 -31t-0.5 -33t1.5 -29.5t6 -28.5t11.5 -21t19 -16t29 -5q44 0 129 35v-262q-41 -17 -122 -28t-126 -11q-90 0 -151 22t-94 52t-50.5 94t-22 114.5t-6.5 147.5v365h-110zM399 -700l-151 86q75 93 105 188
t20 238l239 -64q4 -125 -52.5 -240.5t-160.5 -207.5z" />
    <glyph glyph-name="circumflex" unicode="&#x2c6;" 
d="M846 1196l-238 -72l-133 181l-135 -181l-238 72l277 236h190z" />
    <glyph glyph-name="caron" unicode="&#x2c7;" 
d="M608 1432l238 -72l-277 -236h-190l-277 236l238 72l135 -181z" />
    <glyph glyph-name="breve" unicode="&#x2d8;" 
d="M686 1356q-6 -115 -88.5 -184.5t-202.5 -69.5q-121 0 -204 69.5t-89 184.5l209 47q0 -64 24.5 -102.5t59.5 -38.5q34 0 58 38.5t24 102.5z" />
    <glyph glyph-name="dotaccent" unicode="&#x2d9;" 
d="M252 1096q-62 0 -106 44t-44 105q0 59 44.5 102.5t105.5 43.5q60 0 102.5 -43.5t42.5 -102.5q0 -62 -42.5 -105.5t-102.5 -43.5z" />
    <glyph glyph-name="ring" unicode="&#x2da;" horiz-adv-x="622" 
d="M311 1085q-86 0 -147.5 61.5t-61.5 147.5t61.5 147.5t147.5 61.5t147.5 -61.5t61.5 -147.5t-61.5 -147.5t-147.5 -61.5zM311 1219q31 0 53.5 22t22.5 53t-22.5 53.5t-53.5 22.5t-53 -22.5t-22 -53.5t22 -53t53 -22z" />
    <glyph glyph-name="ogonek" unicode="&#x2db;" 
d="M258 31l115 -21q-32 -29 -47 -43.5t-34.5 -46t-19.5 -59.5q0 -21 9 -41.5t31 -38.5t54.5 -26.5t83.5 -2t113 30.5l107 -150q-106 -59 -211.5 -76t-183 4t-125.5 74.5t-48 128.5q0 39 10 75t23 60t34 49.5t34 37t33.5 28t21.5 17.5z" />
    <glyph glyph-name="tilde" unicode="&#x2dc;" 
d="M596 1135q-37 -1 -70 13t-56 35t-43.5 41.5t-42 34t-42.5 11.5q-28 -3 -60 -47.5t-34 -63.5l-146 88q27 91 81.5 144.5t133.5 56.5q38 2 71.5 -12t56.5 -35t43 -42t41.5 -34.5t43.5 -11.5q28 3 58 44.5t39 65.5l143 -88q-27 -91 -81.5 -144t-135.5 -56z" />
    <glyph glyph-name="hungarumlaut" unicode="&#x2dd;" 
d="M598 1452l-348 -256l-148 41l226 256zM983 1411l-389 -215l-148 41l267 215z" />
    <glyph glyph-name="gravecomb" unicode="&#x300;" horiz-adv-x="0" 
d="M-721 1432l311 41l308 -236l-230 -41z" />
    <glyph glyph-name="acutecomb" unicode="&#x301;" horiz-adv-x="0" 
d="M-102 1432l-390 -236l-229 41l307 236z" />
    <glyph glyph-name="uni0302" unicode="&#x302;" horiz-adv-x="0" 
d="M-102 1196l-238 -72l-133 181l-135 -181l-238 72l277 236h190z" />
    <glyph glyph-name="tildecomb" unicode="&#x303;" horiz-adv-x="0" 
d="M-319 1135q-37 -1 -70 13t-56 35t-43.5 41.5t-42 34t-42.5 11.5q-28 -3 -60.5 -48t-34.5 -63l-145 88q27 91 81.5 144.5t133.5 56.5q38 2 71.5 -12t56.5 -35t43 -42t41.5 -34.5t43.5 -11.5q28 3 57.5 44t38.5 66l144 -88q-27 -91 -81.5 -144t-135.5 -56z" />
    <glyph glyph-name="uni0304" unicode="&#x304;" horiz-adv-x="0" 
d="M-1024 1389h922v-170h-922v170z" />
    <glyph glyph-name="uni0306" unicode="&#x306;" horiz-adv-x="0" 
d="M-102 1356q-6 -115 -88.5 -184.5t-202.5 -69.5q-121 0 -204 69.5t-89 184.5l209 47q0 -64 24.5 -102.5t59.5 -38.5q34 0 58 38.5t24 102.5z" />
    <glyph glyph-name="uni0307" unicode="&#x307;" horiz-adv-x="0" 
d="M-248 1096q-62 0 -105.5 44t-43.5 105q0 59 44 102.5t105 43.5q60 0 103 -43.5t43 -102.5q0 -61 -43 -105t-103 -44z" />
    <glyph glyph-name="uni0308" unicode="&#x308;" horiz-adv-x="0" 
d="M-653 1096q-61 0 -104.5 43.5t-43.5 105.5q0 59 43.5 102.5t104.5 43.5q60 0 103.5 -43.5t43.5 -102.5q0 -61 -43.5 -105t-103.5 -44zM-182 1096q-62 0 -106 44t-44 105q0 59 44.5 102.5t105.5 43.5q60 0 102.5 -43.5t42.5 -102.5q0 -62 -42.5 -105.5t-102.5 -43.5z" />
    <glyph glyph-name="uni030A" unicode="&#x30a;" horiz-adv-x="0" 
d="M-311 1085q-86 0 -147.5 61.5t-61.5 147.5t61.5 147.5t147.5 61.5t147.5 -61.5t61.5 -147.5t-61.5 -147.5t-147.5 -61.5zM-311 1219q31 0 53 22t22 53t-22 53.5t-53 22.5t-53.5 -22.5t-22.5 -53.5t22.5 -53t53.5 -22z" />
    <glyph glyph-name="uni030B" unicode="&#x30b;" horiz-adv-x="0" 
d="M-487 1452l-349 -256l-147 41l225 256zM-102 1411l-390 -215l-147 41l266 215z" />
    <glyph glyph-name="uni030C" unicode="&#x30c;" horiz-adv-x="0" 
d="M-340 1432l238 -72l-277 -236h-190l-277 236l238 72l135 -181z" />
    <glyph glyph-name="uni0312" unicode="&#x312;" horiz-adv-x="0" 
d="M-225 1571l123 -70q-60 -74 -84 -151.5t-17 -194.5l-215 51q-3 105 47 202t146 163z" />
    <glyph glyph-name="uni0326" unicode="&#x326;" horiz-adv-x="0" 
d="M-315 -680l-152 86q75 93 105 188t20 238l240 -63q4 -125 -52.5 -241t-160.5 -208z" />
    <glyph glyph-name="uni0327" unicode="&#x327;" horiz-adv-x="0" 
d="M-516 -211l20 240h107l-8 -144q11 21 46 43.5t89 26.5q90 6 155.5 -51.5t65.5 -157.5q0 -112 -85.5 -176t-195.5 -64q-82 0 -146.5 27t-100.5 66l100 96q21 -22 60.5 -33.5t78.5 -9.5q57 3 82 23t25 61q0 39 -19.5 61.5t-58.5 22.5q-29 0 -54 -18.5t-28 -37.5z" />
    <glyph glyph-name="uni0328" unicode="&#x328;" horiz-adv-x="0" 
d="M-514 31l115 -21q-32 -29 -47 -43.5t-34.5 -46t-19.5 -59.5q0 -21 9 -41.5t31 -38.5t54.5 -26.5t83.5 -2t113 30.5l107 -150q-106 -59 -211.5 -76t-183 4t-125.5 74.5t-48 128.5q0 39 10 75t23 60t34 49.5t34 37t33.5 28t21.5 17.5z" />
    <glyph glyph-name="Wgrave" unicode="&#x1e80;" horiz-adv-x="2078" 
d="M731 1839l311 41l308 -235l-230 -41zM655 463h11q3 49 100 508l102 461h426l129 -566q41 -187 62 -403h10q6 65 26 193t35 198l70 311h-113v267h586v-267h-112l-306 -1165h-485l-123 487q-28 109 -51 254h-8q-12 -95 -49 -249l-125 -492h-475l-271 1165h-114v267h675
v-267h-118l53 -299q28 -117 65 -403z" />
    <glyph glyph-name="wgrave" unicode="&#x1e81;" horiz-adv-x="1785" 
d="M584 1432l311 41l307 -236l-229 -41zM578 313h4q19 266 84 482l65 229h379l78 -266q60 -194 88 -445h4q17 192 55 324l35 121h-84v266h500v-266h-84l-240 -758h-432l-141 463l-148 -463h-422l-231 758h-88v266h551v-266h-70l45 -150q20 -67 34 -154t18 -141z" />
    <glyph glyph-name="Wacute" unicode="&#x1e82;" horiz-adv-x="2078" 
d="M1350 1839l-389 -235l-230 41l307 235zM655 463h11q3 49 100 508l102 461h426l129 -566q41 -187 62 -403h10q6 65 26 193t35 198l70 311h-113v267h586v-267h-112l-306 -1165h-485l-123 487q-28 109 -51 254h-8q-12 -95 -49 -249l-125 -492h-475l-271 1165h-114v267h675
v-267h-118l53 -299q28 -117 65 -403z" />
    <glyph glyph-name="wacute" unicode="&#x1e83;" horiz-adv-x="1785" 
d="M1202 1432l-389 -236l-229 41l307 236zM578 313h4q19 266 84 482l65 229h379l78 -266q60 -194 88 -445h4q17 192 55 324l35 121h-84v266h500v-266h-84l-240 -758h-432l-141 463l-148 -463h-422l-231 758h-88v266h551v-266h-70l45 -150q20 -67 34 -154t18 -141z" />
    <glyph glyph-name="Wdieresis" unicode="&#x1e84;" horiz-adv-x="2078" 
d="M805 1503q-61 0 -104.5 44t-43.5 106q0 59 43.5 102t104.5 43q60 0 103.5 -43t43.5 -102q0 -61 -43.5 -105.5t-103.5 -44.5zM1276 1503q-62 0 -106 44.5t-44 105.5q0 59 44.5 102t105.5 43q60 0 102.5 -43t42.5 -102q0 -62 -42.5 -106t-102.5 -44zM655 463h11
q3 49 100 508l102 461h426l129 -566q41 -187 62 -403h10q6 65 26 193t35 198l70 311h-113v267h586v-267h-112l-306 -1165h-485l-123 487q-28 109 -51 254h-8q-12 -95 -49 -249l-125 -492h-475l-271 1165h-114v267h675v-267h-118l53 -299q28 -117 65 -403z" />
    <glyph glyph-name="wdieresis" unicode="&#x1e85;" horiz-adv-x="1785" 
d="M657 1096q-61 0 -104 43.5t-43 105.5q0 59 43 102.5t104 43.5q60 0 104 -43.5t44 -102.5q0 -61 -44 -105t-104 -44zM1128 1096q-62 0 -105.5 44t-43.5 105q0 59 44 102.5t105 43.5q60 0 103 -43.5t43 -102.5q0 -61 -43 -105t-103 -44zM578 313h4q19 266 84 482l65 229
h379l78 -266q60 -194 88 -445h4q17 192 55 324l35 121h-84v266h500v-266h-84l-240 -758h-432l-141 463l-148 -463h-422l-231 758h-88v266h551v-266h-70l45 -150q20 -67 34 -154t18 -141z" />
    <glyph glyph-name="Ygrave" unicode="&#x1ef2;" horiz-adv-x="1370" 
d="M377 1839l311 41l307 -235l-229 -41zM756 786h8q3 14 13 39.5t18.5 44.5t24.5 52t20 41l112 206h-112v263h551v-263h-111l-379 -665v-238h115v-266h-656v266h117v242l-397 661h-100v263h700v-263h-107l119 -217q5 -17 32.5 -82t31.5 -84z" />
    <glyph glyph-name="ygrave" unicode="&#x1ef3;" horiz-adv-x="1187" 
d="M285 1432l311 41l307 -236l-229 -41zM649 444l133 320h-94v260h520v-254h-98l-389 -946q-23 -49 -40 -80t-54.5 -75.5t-79.5 -70.5t-111.5 -45t-154.5 -18q-138 8 -248 103l153 241q67 -59 119 -69q44 -8 79 24.5t52 83.5l29 86l-399 758h-84v262h630v-260h-96z" />
    <glyph glyph-name="endash" unicode="&#x2013;" horiz-adv-x="915" 
d="M66 352v273h772v-273h-772z" />
    <glyph glyph-name="emdash" unicode="&#x2014;" horiz-adv-x="1292" 
d="M86 352v273h1104v-273h-1104z" />
    <glyph glyph-name="quoteleft" unicode="&#x2018;" horiz-adv-x="522" 
d="M336 1358q56 -24 90.5 -73.5t34.5 -110.5q0 -83 -59 -142t-142 -59q-82 0 -140.5 59t-58.5 142q0 74 25.5 150t64.5 133.5t73.5 97t62.5 61.5l88 -55q-41 -43 -57 -108t18 -95z" />
    <glyph glyph-name="quoteright" unicode="&#x2019;" horiz-adv-x="522" 
d="M262 1616q82 0 140.5 -59t58.5 -142q0 -74 -25.5 -150t-64 -133.5t-73 -97t-62.5 -61.5l-89 55q41 43 57 108t-18 95q-56 24 -90.5 73.5t-34.5 110.5q0 83 59 142t142 59z" />
    <glyph glyph-name="quotesinglbase" unicode="&#x201a;" horiz-adv-x="616" 
d="M223 -397l-235 133q115 144 161.5 293.5t32.5 371.5l373 -98q6 -194 -82.5 -375.5t-249.5 -324.5z" />
    <glyph glyph-name="quotedblleft" unicode="&#x201c;" horiz-adv-x="989" 
d="M336 1358q56 -24 90.5 -73.5t34.5 -110.5q0 -83 -59 -142t-142 -59q-82 0 -140.5 59t-58.5 142q0 74 25.5 150t64.5 133.5t73.5 97t62.5 61.5l88 -55q-41 -43 -57 -108t18 -95zM803 1358q56 -24 90.5 -73.5t34.5 -110.5q0 -83 -59 -142t-142 -59q-82 0 -140.5 59
t-58.5 142q0 74 25.5 150t64.5 133.5t73.5 97t62.5 61.5l88 -55q-41 -43 -57 -108t18 -95z" />
    <glyph glyph-name="quotedblright" unicode="&#x201d;" horiz-adv-x="991" 
d="M262 1616q82 0 140.5 -59t58.5 -142q0 -74 -25.5 -150t-64 -133.5t-73 -97t-62.5 -61.5l-89 55q41 43 57 108t-18 95q-56 24 -90.5 73.5t-34.5 110.5q0 83 59 142t142 59zM731 1616q82 0 140.5 -59t58.5 -142q0 -74 -25.5 -150t-64 -133.5t-73 -97t-62.5 -61.5l-89 55
q41 43 57 108t-18 95q-56 24 -90.5 73.5t-34.5 110.5q0 83 59 142t142 59z" />
    <glyph glyph-name="quotedblbase" unicode="&#x201e;" 
d="M223 -397l-235 133q115 144 161.5 293.5t32.5 371.5l373 -98q6 -194 -82.5 -375.5t-249.5 -324.5zM731 -397l-235 133q115 144 161.5 293.5t32.5 371.5l373 -98q6 -194 -82.5 -375.5t-249.5 -324.5z" />
    <glyph glyph-name="bullet" unicode="&#x2022;" horiz-adv-x="712" 
d="M123 659q0 87 63 160.5t168 73.5t170.5 -74t65.5 -160q0 -96 -62 -158.5t-174 -62.5q-98 0 -164.5 68t-66.5 153z" />
    <glyph glyph-name="ellipsis" unicode="&#x2026;" horiz-adv-x="1605" 
d="M31 213q0 87 63 160t168 73t170.5 -73.5t65.5 -159.5q0 -96 -62 -158.5t-174 -62.5q-98 0 -164.5 68t-66.5 153zM551 213q0 87 63 160t168 73t170.5 -73.5t65.5 -159.5q0 -96 -62 -158.5t-174 -62.5q-98 0 -164.5 68t-66.5 153zM1077 213q0 87 63.5 160t168.5 73
t170 -73.5t65 -159.5q0 -96 -62 -158.5t-173 -62.5q-98 0 -165 68t-67 153z" />
    <glyph glyph-name="guilsinglleft" unicode="&#x2039;" horiz-adv-x="700" 
d="M639 942l-289 -471l289 -471h-309l-289 471l289 471h309z" />
    <glyph glyph-name="guilsinglright" unicode="&#x203a;" horiz-adv-x="700" 
d="M350 942l289 -471l-289 -471h-309l289 471l-289 471h309z" />
    <glyph glyph-name="Euro" unicode="&#x20ac;" horiz-adv-x="1390" 
d="M866 262q67 0 124.5 15t95.5 40t55 39t30 29l199 -184q-108 -121 -233 -177.5t-306 -56.5q-250 0 -427.5 120t-249.5 337h-154v203h113q-4 62 -4 92q0 15 1 42t1 40h-111v203h150q71 223 249.5 346t431.5 123q181 0 306 -57t233 -179l-199 -182q-13 14 -30 28.5t-55 38.5
t-95.5 39t-124.5 15q-204 0 -297 -172h324v-203h-383q-4 -54 -4 -82q0 -49 6 -92h381v-203h-318q94 -162 291 -162z" />
    <glyph glyph-name="trademark" unicode="&#x2122;" horiz-adv-x="1189" 
d="M20 1432h463v-179h-102v88h-57v-299h57v-92h-256v92h55v299h-59v-88h-101v179zM991 1311h-2q-13 -68 -20 -92l-72 -269h-145l-76 275q-11 33 -14 86h-5v-273h39v-88h-186v88h39v305h-37v89h260l70 -258l65 258h262v-89h-36v-303h36v-90h-217v90h39v271z" />
    <glyph glyph-name="minus" unicode="&#x2212;" horiz-adv-x="1705" 
d="M434 352v273h756v-273h-756z" />
    <glyph glyph-name="lozenge" unicode="&#x25ca;" horiz-adv-x="1146" 
d="M690 1432l436 -715l-436 -717h-233l-437 717l437 715h233zM573 135l355 582l-355 579l-354 -579z" />
    <glyph glyph-name="i.loclTRK" horiz-adv-x="675" 
d="M340 1096q-62 0 -106 44t-44 105q0 59 44.5 102.5t105.5 43.5q60 0 102.5 -43.5t42.5 -102.5q0 -62 -42.5 -105.5t-102.5 -43.5zM625 268v-268h-574v268h86v490h-86v266h475v-756h99z" />
    <glyph glyph-name="CR" horiz-adv-x="573" 
 />
    </font>
</defs>
</svg>
