<svg width="50" height="50" viewBox="0 0 50 50" fill="none" xmlns="http://www.w3.org/2000/svg">
<g id="Bold Duotone / Map &#38; Location / Routing 3">
<circle id="Vector" opacity="0.5" cx="10.416" cy="10.417" r="6.25" fill="#0000DE"/>
<circle id="Vector_2" opacity="0.5" cx="39.584" cy="39.583" r="6.25" fill="#0000DE"/>
<path id="Vector_3" fill-rule="evenodd" clip-rule="evenodd" d="M21.354 10.417C21.354 9.55405 22.0536 8.85449 22.9165 8.85449H33.608C39.3397 8.85449 41.5195 16.3399 36.6838 19.4171L14.9937 33.2199C12.7957 34.6187 13.7865 38.0212 16.3918 38.0212H23.311L22.8534 37.5635C22.2432 36.9533 22.2432 35.964 22.8534 35.3538C23.4636 34.7436 24.4529 34.7436 25.0631 35.3538L28.1881 38.4788C28.7983 39.089 28.7983 40.0783 28.1881 40.6885L25.0631 43.8135C24.4529 44.4237 23.4636 44.4237 22.8534 43.8135C22.2432 43.2033 22.2432 42.214 22.8534 41.6038L23.311 41.1462H16.3918C10.66 41.1462 8.48033 33.6607 13.316 30.5835L35.0061 16.7807C37.2041 15.382 36.2133 11.9795 33.608 11.9795H22.9165C22.0536 11.9795 21.354 11.2799 21.354 10.417Z" fill="#0000DE"/>
</g>
</svg>
