<svg width="50" height="50" viewBox="0 0 50 50" fill="none" xmlns="http://www.w3.org/2000/svg">
<g id="Bold Duotone / Video, Audio, Sound / Soundwave">
<path id="Vector" fill-rule="evenodd" clip-rule="evenodd" d="M25.0007 6.77051C25.8636 6.77051 26.5632 7.47006 26.5632 8.33301L26.5632 41.6663C26.5632 42.5293 25.8636 43.2288 25.0007 43.2288C24.1377 43.2288 23.4382 42.5293 23.4382 41.6663L23.4382 8.33301C23.4382 7.47006 24.1377 6.77051 25.0007 6.77051ZM8.33398 21.3538C9.19693 21.3538 9.89648 22.0534 9.89648 22.9163L9.89648 27.083C9.89648 27.946 9.19693 28.6455 8.33398 28.6455C7.47104 28.6455 6.77148 27.946 6.77148 27.083L6.77148 22.9163C6.77148 22.0534 7.47104 21.3538 8.33398 21.3538ZM41.6673 21.3538C42.5303 21.3538 43.2298 22.0534 43.2298 22.9163V27.083C43.2298 27.946 42.5303 28.6455 41.6673 28.6455C40.8044 28.6455 40.1048 27.946 40.1048 27.083V22.9163C40.1048 22.0534 40.8044 21.3538 41.6673 21.3538Z" fill="#0000DE"/>
<g id="Vector_2" opacity="0.5">
<path d="M34.8952 14.583C34.8952 13.7201 34.1956 13.0205 33.3327 13.0205C32.4697 13.0205 31.7702 13.7201 31.7702 14.583V35.4163C31.7702 36.2793 32.4697 36.9788 33.3327 36.9788C34.1956 36.9788 34.8952 36.2793 34.8952 35.4163V14.583Z" fill="#0000DE"/>
<path d="M18.2285 14.583C18.2285 13.7201 17.529 13.0205 16.666 13.0205C15.8031 13.0205 15.1035 13.7201 15.1035 14.583V35.4163C15.1035 36.2793 15.8031 36.9788 16.666 36.9788C17.529 36.9788 18.2285 36.2793 18.2285 35.4163V14.583Z" fill="#0000DE"/>
</g>
</g>
</svg>
