<svg width="48" height="48" viewBox="0 0 48 48" fill="none" xmlns="http://www.w3.org/2000/svg">
<g id="toilet-pictogram-svgrepo-com 1">
<g id="Group">
<path id="Vector" d="M25.9735 1.7373H23.1641V46.175H25.9735V1.7373Z" fill="#0000DE"/>
<path id="Vector_2" d="M10.017 9.16184C12.067 9.16184 13.7293 7.49965 13.7293 5.44877C13.7293 3.39874 12.0671 1.7373 10.017 1.7373C7.96528 1.7373 6.30469 3.39874 6.30469 5.44877C6.30469 7.49965 7.96528 9.16184 10.017 9.16184Z" fill="#2121E2"/>
<path id="Vector_3" d="M17.2537 14.4572C16.5013 11.9169 14.8161 10.2334 12.9184 10.2334C11.5127 10.2334 10.0168 10.2334 10.0168 10.2334C10.0168 10.2334 8.52093 10.2334 7.11534 10.2334C5.21756 10.2334 3.53052 11.917 2.77809 14.4572L0.0448046 24.1556C-0.157039 24.9727 0.34218 25.8064 1.15827 26.0065C1.97615 26.2083 2.79402 25.7303 2.99577 24.9133L5.72034 15.2449H6.52405L1.78312 32.0627H6.25312V44.5378C6.25312 45.4912 7.02674 46.2639 7.97915 46.2639C8.93334 46.2639 9.70687 45.4912 9.70687 44.5378V32.0627H10.6576V44.5378C10.6576 45.4912 11.4312 46.2639 12.3854 46.2639C13.3378 46.2639 14.1114 45.4912 14.1114 44.5378V32.0627H18.2486L13.5078 15.245H14.3115L17.036 24.9134C17.2377 25.7304 18.0574 26.2084 18.8735 26.0066C19.6913 25.8065 20.1888 24.9727 19.9869 24.1557L17.2537 14.4572Z" fill="#9999F2"/>
<path id="Vector_4" d="M39.6733 9.16184C41.7251 9.16184 43.3856 7.49965 43.3856 5.44877C43.3856 3.39874 41.7251 1.7373 39.6733 1.7373C37.6233 1.7373 35.9609 3.39874 35.9609 5.44877C35.961 7.49965 37.6233 9.16184 39.6733 9.16184Z" fill="#2121E2"/>
<path id="Vector_5" d="M44.2433 10.21H34.489C32.6905 10.21 30.7324 12.1678 30.7324 13.9665V26.4444C30.7324 27.3437 31.4618 28.0731 32.3611 28.0731C33.2604 28.0731 33.9898 27.3437 33.9898 26.4444V16.1856H34.7403V44.0356C34.7403 45.2172 35.698 46.175 36.8805 46.175C38.0631 46.175 39.0208 45.2172 39.0208 44.0356V27.8729H39.7112V44.0356C39.7112 45.2172 40.6689 46.175 41.8515 46.175C43.0322 46.175 43.9918 45.2172 43.9918 44.0356V16.1856H44.7423V26.4443C44.7423 27.3436 45.4717 28.073 46.371 28.073C47.2703 28.073 47.9997 27.3436 47.9997 26.4443V13.9664C47.9999 12.1678 46.0419 10.21 44.2433 10.21Z" fill="#9999F2"/>
</g>
</g>
</svg>
