<svg width="44" height="39" viewBox="0 0 44 39" fill="none" xmlns="http://www.w3.org/2000/svg">
<g id="card check">
<path id="Rectangle 901" opacity="0.4" d="M33.4987 0.25C38.1011 0.25 41.832 3.98096 41.832 8.58333L41.832 29.4167C41.832 34.019 38.1011 37.75 33.4987 37.75L8.4987 37.75C3.89633 37.75 0.165366 34.019 0.165366 29.4167L0.165367 8.58333C0.165367 3.98096 3.89633 0.249998 8.4987 0.249999L33.4987 0.25Z" fill="#0000DE"/>
<circle id="Ellipse 799" cx="8.49935" cy="29.4163" r="2.08333" fill="#0000DE"/>
<path id="Vector 2149" d="M0.165367 8.58301L41.832 8.58301L41.832 16.9163L0.165367 16.9163L0.165367 8.58301Z" fill="#0000DE"/>
<path id="Vector 2139 (Stroke)" fill-rule="evenodd" clip-rule="evenodd" d="M42.861 28.2411C43.5104 28.8094 43.5762 29.7965 43.008 30.4459L37.029 37.279C35.7442 38.7474 33.5312 38.944 32.0077 37.7252L28.356 34.8038C27.6822 34.2647 27.5729 33.2814 28.112 32.6076C28.6511 31.9337 29.6343 31.8245 30.3082 32.3636L33.9599 35.2849C34.1775 35.4591 34.4937 35.431 34.6772 35.2212L40.6562 28.3881C41.2244 27.7387 42.2116 27.6729 42.861 28.2411Z" fill="#0000DE"/>
</g>
</svg>
