<svg width="166" height="59" viewBox="0 0 166 59" fill="none" xmlns="http://www.w3.org/2000/svg">
<g id="AppStore 1" clip-path="url(#clip0_137_851)">
<path id="Vector" d="M11.8563 58.2623C5.77952 58.2623 0.740234 53.2473 0.740234 47.1998V11.7998C0.740234 5.75231 5.77952 0.737305 11.8563 0.737305H154.142C160.219 0.737305 165.258 5.75231 165.258 11.7998V47.1998C165.258 53.2473 160.219 58.2623 154.142 58.2623H11.8563Z" fill="white"/>
<path id="Vector_2" d="M154.143 1.475C159.923 1.475 164.518 6.0475 164.518 11.8V47.2C164.518 52.9525 159.923 57.525 154.143 57.525H11.8571C6.07679 57.525 1.48214 52.9525 1.48214 47.2V11.8C1.48214 6.0475 6.07679 1.475 11.8571 1.475H154.143ZM154.143 0H11.8571C5.33571 0 0 5.31 0 11.8V47.2C0 53.69 5.33571 59 11.8571 59H154.143C160.664 59 166 53.69 166 47.2V11.8C166 5.31 160.664 0 154.143 0ZM37.35 35.99C37.35 36.1375 36.7571 38.2025 35.275 40.2675C34.0893 42.185 32.7554 43.955 30.5321 43.955C28.4571 43.955 27.8643 42.775 25.4929 42.775C23.1214 42.775 22.3804 43.955 20.4536 43.955C18.5268 43.955 16.8964 41.89 15.5625 40.12C13.0429 36.4325 10.9679 29.5 13.7839 24.78C15.1179 22.42 17.4893 20.945 20.0089 20.945C21.9357 20.945 23.8625 22.2725 25.0482 22.2725C26.2339 22.2725 28.6054 20.65 30.9768 20.7975C32.0143 20.7975 34.8304 21.24 36.6089 23.7475C36.4607 23.895 33.2 25.665 33.3482 29.5C33.3482 34.3675 37.35 35.99 37.35 35.99ZM29.3464 18.4375C30.3839 17.11 31.125 15.34 30.9768 13.57C29.4946 13.57 27.5679 14.6025 26.5304 15.93C25.4929 17.11 24.7518 18.88 24.9 20.65C26.5304 20.7975 28.3089 19.765 29.3464 18.4375ZM59.5821 44.1025H62.3982L56.025 26.6975H53.0607L46.6875 44.1025H49.5036L51.1339 39.3825H57.8036L59.5821 44.1025ZM54.5429 29.6475L57.2107 37.3175H51.875L54.5429 29.6475ZM70.6982 31.27C68.9196 31.27 67.4375 32.155 66.6964 33.4825V31.4175H64.1768V48.2325H66.6964V41.89C67.4375 43.365 68.9196 44.1025 70.6982 44.1025C73.9589 44.1025 76.0339 41.595 76.0339 37.6125C76.0339 33.7775 73.9589 31.27 70.6982 31.27ZM69.9571 42.0375C68.0304 42.0375 66.5482 40.2675 66.5482 37.76C66.5482 35.2525 67.8821 33.4825 69.9571 33.4825C72.0321 33.4825 73.3661 35.105 73.3661 37.76C73.3661 40.2675 72.0321 42.0375 69.9571 42.0375ZM84.7786 31.27C83 31.27 81.5179 32.155 80.7768 33.4825V31.4175H78.2571V48.2325H80.925V41.89C81.6661 43.365 83.1482 44.1025 84.9268 44.1025C88.1875 44.1025 90.2625 41.595 90.2625 37.6125C90.1143 33.7775 87.8911 31.27 84.7786 31.27ZM84.0375 42.0375C82.1107 42.0375 80.6286 40.2675 80.6286 37.76C80.6286 35.2525 81.9625 33.4825 84.0375 33.4825C86.1125 33.4825 87.4464 35.105 87.4464 37.76C87.4464 40.2675 86.1125 42.0375 84.0375 42.0375ZM96.6357 39.235C96.7839 42.3325 99.4518 44.3975 103.305 44.3975C107.455 44.3975 110.123 42.3325 110.123 39.0875C110.123 36.58 108.641 35.105 105.084 34.22L103.157 33.7775C100.934 33.1875 100.045 32.45 100.045 31.27C100.045 29.795 101.527 28.615 103.602 28.615C105.677 28.615 107.159 29.6475 107.307 31.4175H109.975C109.827 28.4675 107.307 26.4025 103.602 26.4025C99.8964 26.4025 97.2286 28.4675 97.2286 31.4175C97.2286 33.7775 98.7107 35.4 101.971 36.1375L104.195 36.7275C106.418 37.3175 107.455 38.055 107.455 39.3825C107.455 41.005 105.825 42.0375 103.602 42.0375C101.23 42.0375 99.6 40.8575 99.4518 39.235H96.6357ZM113.088 28.4675V31.4175H111.161V33.4825H113.088V40.71C113.088 43.2175 114.125 44.1025 116.645 44.1025C117.237 44.1025 117.83 44.1025 118.127 43.955V41.89H117.237C116.2 41.89 115.755 41.4475 115.755 40.2675V33.335H118.127V31.27H115.755V28.32H113.088V28.4675ZM125.537 44.25C129.243 44.25 131.614 41.7425 131.614 37.76C131.614 33.7775 129.243 31.27 125.537 31.27C121.832 31.27 119.461 33.7775 119.461 37.76C119.609 41.7425 121.832 44.25 125.537 44.25ZM125.537 42.0375C123.462 42.0375 122.129 40.415 122.129 37.6125C122.129 34.9575 123.314 33.1875 125.537 33.1875C127.761 33.1875 128.946 34.81 128.946 37.6125C128.946 40.415 127.761 42.0375 125.537 42.0375ZM133.837 44.1025H136.357V36.58C136.357 34.81 137.395 33.63 139.025 33.63C139.47 33.63 140.062 33.63 140.211 33.7775V31.27C140.062 31.27 139.618 31.1225 139.321 31.1225C137.839 31.1225 136.654 32.0075 136.209 33.4825V31.27H133.689V44.1025H133.837ZM149.845 40.415C149.548 41.4475 148.362 42.185 146.88 42.185C144.805 42.185 143.471 40.71 143.471 38.645V38.35H152.512V37.465C152.512 33.63 150.289 31.27 146.732 31.27C143.175 31.27 140.804 33.7775 140.804 37.76C140.804 41.7425 143.175 44.25 146.88 44.25C149.696 44.25 152.068 42.6275 152.364 40.415H149.845ZM146.732 33.335C148.511 33.335 149.845 34.6625 149.845 36.58H143.471C143.62 34.6625 144.954 33.335 146.732 33.335ZM50.0964 18.29H51.2821C52.4679 18.29 53.0607 18.7325 53.0607 19.6175C53.0607 20.5025 52.3196 20.945 51.2821 20.945C50.2446 20.945 49.5036 20.5025 49.3554 19.6175H48.1696C48.3179 21.0925 49.5036 22.125 51.2821 22.125C53.0607 22.125 54.3946 21.0925 54.3946 19.6175C54.3946 18.4375 53.6536 17.7 52.4679 17.5525V17.405C53.3571 17.2575 53.95 16.3725 53.95 15.4875C53.95 14.16 52.7643 13.275 51.1339 13.275C49.3554 13.275 48.3179 14.16 48.1696 15.7825H49.3554C49.5036 14.8975 50.0964 14.455 50.9857 14.455C52.0232 14.455 52.6161 14.8975 52.6161 15.7825C52.6161 16.52 52.0232 17.11 50.9857 17.11H49.8V18.29H50.0964ZM57.9518 21.9775C58.8411 21.9775 59.4339 21.6825 59.8786 20.945H60.0268V21.83H61.2125V17.7C61.2125 16.3725 60.3232 15.635 58.6929 15.635C57.2107 15.635 56.1732 16.3725 56.1732 17.405H57.3589C57.5071 16.9625 57.9518 16.6675 58.6929 16.6675C59.5821 16.6675 60.0268 17.11 60.0268 17.7V18.29L58.2482 18.4375C56.7661 18.585 55.8768 19.175 55.8768 20.355C55.8768 21.3875 56.7661 21.9775 57.9518 21.9775ZM58.2482 20.945C57.5071 20.945 57.0625 20.65 57.0625 20.06C57.0625 19.47 57.5071 19.175 58.3964 19.175L59.8786 19.0275V19.6175C59.8786 20.355 59.2857 20.945 58.2482 20.945ZM67.4375 16.6675V15.635H63.2875V21.9775H64.4732V16.6675H67.4375ZM72.3286 15.4875C71.4393 15.4875 70.6982 15.93 70.4018 16.6675H70.2536V15.635H69.0679V24.0425H70.2536V20.945H70.4018C70.6982 21.6825 71.4393 21.9775 72.3286 21.9775C73.9589 21.9775 74.9964 20.65 74.9964 18.7325C74.9964 16.815 73.9589 15.4875 72.3286 15.4875ZM72.0321 20.945C70.9946 20.945 70.2536 20.06 70.2536 18.88C70.2536 17.5525 70.8464 16.6675 72.0321 16.6675C73.0696 16.6675 73.6625 17.405 73.6625 18.7325C73.6625 20.06 73.0696 20.945 72.0321 20.945ZM77.2196 24.19C78.5536 24.19 79.1464 23.7475 79.5911 22.125L81.9625 15.4875H80.6286L79.1464 20.65H78.9982L77.3679 15.635H76.0339L78.2571 21.9775L78.1089 22.2725C77.9607 22.8625 77.5161 23.1575 76.9232 23.1575H76.4786V24.19H77.2196ZM85.6679 22.125C87.2982 22.125 88.1875 21.3875 88.1875 20.06C88.1875 19.3225 87.7429 18.88 87.0018 18.585V18.4375C87.5946 18.29 88.0393 17.8475 88.0393 17.11C88.0393 16.0775 87.15 15.34 85.6679 15.34C84.1857 15.34 83.2964 16.0775 83.1482 17.2575H84.3339C84.4821 16.815 84.9268 16.52 85.6679 16.52C86.4089 16.52 86.8536 16.815 86.8536 17.405C86.8536 17.995 86.4089 18.29 85.6679 18.29H84.7786V19.175H85.6679C86.5571 19.175 87.0018 19.47 87.0018 20.06C87.0018 20.65 86.5571 20.945 85.6679 20.945C84.9268 20.945 84.4821 20.65 84.3339 20.06H83C83.1482 21.3875 84.1857 22.125 85.6679 22.125ZM91.3 21.9775L94.2643 17.5525H94.4125V21.9775H95.5982V15.635H94.4125L91.4482 19.9125H91.3V15.635H90.1143V21.9775H91.3ZM102.268 15.635H97.0804V16.6675H99.0071V21.9775H100.193V16.6675H102.268V15.635ZM107.9 20.2075C107.604 20.65 107.159 20.945 106.418 20.945C105.38 20.945 104.787 20.2075 104.787 19.175H109.234V18.7325C109.234 16.815 108.196 15.4875 106.418 15.4875C104.639 15.4875 103.454 16.815 103.454 18.7325C103.454 20.7975 104.639 21.9775 106.418 21.9775C107.9 21.9775 108.937 21.24 109.234 20.2075H107.9ZM106.27 16.52C107.159 16.52 107.752 17.11 107.9 18.1425H104.639C104.787 17.2575 105.38 16.52 106.27 16.52ZM114.421 21.9775H117.237C118.571 21.9775 119.461 21.24 119.461 20.2075C119.461 19.47 118.868 18.88 118.127 18.7325V18.585C118.72 18.4375 119.164 17.8475 119.164 17.2575C119.164 16.225 118.423 15.635 117.237 15.635H114.421V21.9775ZM116.941 16.52C117.534 16.52 117.979 16.815 117.979 17.2575C117.979 17.8475 117.682 18.1425 116.793 18.1425H115.607V16.52H116.941ZM116.941 19.175C117.83 19.175 118.275 19.47 118.275 20.06C118.275 20.65 117.83 20.945 117.089 20.945H115.607V19.175H116.941Z" fill="black"/>
</g>
<defs>
<clipPath id="clip0_137_851">
<rect width="166" height="59" fill="white"/>
</clipPath>
</defs>
</svg>
