<svg width="166" height="59" viewBox="0 0 166 59" fill="none" xmlns="http://www.w3.org/2000/svg">
<g id="GooglePlay 1" clip-path="url(#clip0_137_854)">
<path id="Vector" d="M11.8565 58.1148C5.77974 58.1148 0.888672 53.2473 0.888672 47.1998V11.7998C0.888672 5.75227 5.77974 0.884766 11.8565 0.884766H154.142C160.219 0.884766 165.11 5.75227 165.11 11.7998V47.1998C165.11 53.2473 160.219 58.1148 154.142 58.1148H11.8565Z" fill="white"/>
<path id="Vector_2" d="M154.143 1.9175C159.627 1.9175 164.221 6.3425 164.221 11.9475V47.3475C164.221 52.805 159.775 57.3775 154.143 57.3775H11.8571C6.37321 57.3775 1.77857 52.9525 1.77857 47.3475V11.8C1.77857 6.3425 6.225 1.77 11.8571 1.77H154.143M154.143 0H11.8571C5.33571 0 0 5.31 0 11.8V47.2C0 53.69 5.33571 59 11.8571 59H154.143C160.664 59 166 53.69 166 47.2V11.8C166 5.31 160.664 0 154.143 0ZM50.0964 18.29H51.2821C52.4679 18.29 53.0607 18.7325 53.0607 19.6175C53.0607 20.5025 52.3196 20.945 51.2821 20.945C50.2446 20.945 49.5036 20.5025 49.3554 19.6175H48.1696C48.3179 21.0925 49.5036 22.125 51.2821 22.125C53.0607 22.125 54.3946 21.0925 54.3946 19.6175C54.3946 18.4375 53.6536 17.7 52.4679 17.5525V17.405C53.3571 17.2575 53.95 16.3725 53.95 15.4875C53.95 14.16 52.7643 13.275 51.1339 13.275C49.3554 13.275 48.3179 14.16 48.1696 15.7825H49.3554C49.5036 14.8975 50.0964 14.455 50.9857 14.455C52.0232 14.455 52.6161 14.8975 52.6161 15.7825C52.6161 16.52 52.0232 17.11 50.9857 17.11H49.8V18.29H50.0964ZM57.9518 21.9775C58.8411 21.9775 59.4339 21.6825 59.8786 20.945H60.0268V21.83H61.2125V17.7C61.2125 16.3725 60.3232 15.635 58.6929 15.635C57.2107 15.635 56.1732 16.3725 56.1732 17.405H57.3589C57.5071 16.9625 57.9518 16.6675 58.6929 16.6675C59.5821 16.6675 60.0268 17.11 60.0268 17.7V18.29L58.2482 18.4375C56.7661 18.585 55.8768 19.175 55.8768 20.355C55.8768 21.3875 56.7661 21.9775 57.9518 21.9775ZM58.2482 20.945C57.5071 20.945 57.0625 20.65 57.0625 20.06C57.0625 19.47 57.5071 19.175 58.3964 19.175L59.8786 19.0275V19.6175C59.8786 20.355 59.2857 20.945 58.2482 20.945ZM67.4375 16.6675V15.635H63.2875V21.9775H64.4732V16.6675H67.4375ZM72.3286 15.4875C71.4393 15.4875 70.6982 15.93 70.4018 16.6675H70.2536V15.635H69.0679V24.0425H70.2536V20.945H70.4018C70.6982 21.6825 71.4393 21.9775 72.3286 21.9775C73.9589 21.9775 74.9964 20.65 74.9964 18.7325C74.9964 16.815 73.9589 15.4875 72.3286 15.4875ZM72.0321 20.945C70.9946 20.945 70.2536 20.06 70.2536 18.88C70.2536 17.5525 70.8464 16.6675 72.0321 16.6675C73.0696 16.6675 73.6625 17.405 73.6625 18.7325C73.6625 20.06 73.0696 20.945 72.0321 20.945ZM77.2196 24.19C78.5536 24.19 79.1464 23.7475 79.5911 22.125L81.9625 15.4875H80.6286L79.1464 20.65H78.9982L77.3679 15.635H76.0339L78.2571 21.9775L78.1089 22.2725C77.9607 22.8625 77.5161 23.1575 76.9232 23.1575H76.4786V24.19H77.2196ZM85.6679 22.125C87.2982 22.125 88.1875 21.3875 88.1875 20.06C88.1875 19.3225 87.7429 18.88 87.0018 18.585V18.4375C87.5946 18.29 88.0393 17.8475 88.0393 17.11C88.0393 16.0775 87.15 15.34 85.6679 15.34C84.1857 15.34 83.2964 16.0775 83.1482 17.2575H84.3339C84.4821 16.815 84.9268 16.52 85.6679 16.52C86.4089 16.52 86.8536 16.815 86.8536 17.405C86.8536 17.995 86.4089 18.29 85.6679 18.29H84.7786V19.175H85.6679C86.5571 19.175 87.0018 19.47 87.0018 20.06C87.0018 20.65 86.5571 20.945 85.6679 20.945C84.9268 20.945 84.4821 20.65 84.3339 20.06H83C83.1482 21.3875 84.1857 22.125 85.6679 22.125ZM91.3 21.9775L94.2643 17.5525H94.4125V21.9775H95.5982V15.635H94.4125L91.4482 19.9125H91.3V15.635H90.1143V21.9775H91.3ZM102.268 15.635H97.0804V16.6675H99.0071V21.9775H100.193V16.6675H102.268V15.635ZM107.9 20.2075C107.604 20.65 107.159 20.945 106.418 20.945C105.38 20.945 104.787 20.2075 104.787 19.175H109.234V18.7325C109.234 16.815 108.196 15.4875 106.418 15.4875C104.639 15.4875 103.454 16.815 103.454 18.7325C103.454 20.7975 104.639 21.9775 106.418 21.9775C107.9 21.9775 108.937 21.24 109.234 20.2075H107.9ZM106.27 16.52C107.159 16.52 107.752 17.11 107.9 18.1425H104.639C104.787 17.2575 105.38 16.52 106.27 16.52ZM114.421 21.9775H117.237C118.571 21.9775 119.461 21.24 119.461 20.2075C119.461 19.47 118.868 18.88 118.127 18.7325V18.585C118.72 18.4375 119.164 17.8475 119.164 17.2575C119.164 16.225 118.423 15.635 117.237 15.635H114.421V21.9775ZM116.941 16.52C117.534 16.52 117.979 16.815 117.979 17.2575C117.979 17.8475 117.682 18.1425 116.793 18.1425H115.607V16.52H116.941ZM116.941 19.175C117.83 19.175 118.275 19.47 118.275 20.06C118.275 20.65 117.83 20.945 117.089 20.945H115.607V19.175H116.941ZM80.7768 33.7775C77.8125 33.7775 75.5893 35.99 75.5893 38.94C75.5893 41.89 77.9607 44.1025 80.7768 44.1025C83.7411 44.1025 85.9643 41.89 85.9643 38.94C86.1125 35.99 83.7411 33.7775 80.7768 33.7775ZM80.7768 42.185C79.1464 42.185 77.8125 40.8575 77.8125 39.0875C77.8125 37.17 79.1464 35.99 80.7768 35.99C82.4071 35.99 83.7411 37.3175 83.7411 39.0875C83.7411 40.8575 82.4071 42.185 80.7768 42.185ZM69.3643 33.7775C66.4 33.7775 64.1768 35.99 64.1768 38.94C64.1768 41.89 66.5482 44.1025 69.3643 44.1025C72.3286 44.1025 74.5518 41.89 74.5518 38.94C74.5518 35.99 72.3286 33.7775 69.3643 33.7775ZM69.3643 42.185C67.7339 42.185 66.4 40.8575 66.4 39.0875C66.4 37.17 67.7339 35.99 69.3643 35.99C70.9946 35.99 72.3286 37.3175 72.3286 39.0875C72.3286 40.8575 70.9946 42.185 69.3643 42.185ZM55.7286 35.4V37.6125H61.0643C60.9161 38.7925 60.4714 39.825 59.8786 40.415C59.1375 41.1525 57.9518 42.0375 55.7286 42.0375C52.4679 42.0375 49.9482 39.3825 49.9482 36.1375C49.9482 32.8925 52.4679 30.2375 55.7286 30.2375C57.5071 30.2375 58.8411 30.975 59.7304 31.86L61.3607 30.2375C60.0268 28.91 58.2482 28.025 55.7286 28.025C51.2821 28.025 47.4286 31.7125 47.4286 36.1375C47.4286 40.5625 51.1339 44.25 55.7286 44.25C58.1 44.25 60.0268 43.5125 61.3607 42.0375C62.8429 40.5625 63.2875 38.4975 63.2875 36.875C63.2875 36.4325 63.2875 35.8425 63.1393 35.5475H55.7286V35.4ZM111.457 37.0225C111.012 35.8425 109.679 33.7775 107.011 33.7775C104.343 33.7775 102.12 35.8425 102.12 38.94C102.12 41.89 104.343 44.1025 107.307 44.1025C109.679 44.1025 111.161 42.6275 111.605 41.7425L109.827 40.5625C109.234 41.4475 108.493 42.0375 107.307 42.0375C106.121 42.0375 105.38 41.4475 104.787 40.415L111.754 37.465L111.457 37.0225ZM104.343 38.7925C104.343 36.7275 105.973 35.695 107.011 35.695C107.9 35.695 108.641 36.1375 108.938 36.7275L104.343 38.7925ZM98.7107 43.8075H101.082V28.615H98.7107V43.8075ZM94.8571 34.9575C94.2643 34.3675 93.2268 33.7775 92.0411 33.7775C89.3732 33.7775 87.0018 36.1375 87.0018 38.94C87.0018 41.89 89.3732 44.1025 92.0411 44.1025C93.2268 44.1025 94.2643 43.5125 94.8571 42.9225V43.66C94.8571 45.5775 93.8196 46.7575 92.0411 46.7575C90.7071 46.7575 89.8179 45.725 89.3732 44.84L87.4464 45.725C88.0393 47.0525 89.5214 48.8225 92.0411 48.8225C94.7089 48.8225 97.0804 47.2 97.0804 43.365V34.0725H94.8571V34.9575ZM92.1893 42.185C90.5589 42.185 89.225 40.8575 89.225 39.0875C89.225 37.3175 90.5589 35.8425 92.1893 35.8425C93.8196 35.8425 95.0053 37.17 95.0053 39.0875C95.0053 40.8575 93.8196 42.185 92.1893 42.185ZM122.277 28.615H116.793V43.955H119.016V38.2025H122.277C124.796 38.2025 127.316 36.4325 127.316 33.4825C127.316 30.5325 124.796 28.615 122.277 28.615ZM122.277 35.99H119.016V30.68H122.277C124.055 30.68 124.945 32.155 124.945 33.335C124.945 34.515 124.055 35.99 122.277 35.99ZM136.505 33.7775C134.875 33.7775 133.096 34.515 132.355 36.1375L134.43 37.0225C134.875 36.1375 135.616 35.8425 136.505 35.8425C137.691 35.8425 138.877 36.58 138.877 37.76V37.9075C138.432 37.6125 137.543 37.3175 136.505 37.3175C134.282 37.3175 132.059 38.4975 132.059 40.71C132.059 42.775 133.837 44.1025 135.912 44.1025C137.395 44.1025 138.284 43.365 138.877 42.6275H139.025V43.8075H141.248V37.9075C141.1 35.2525 139.025 33.7775 136.505 33.7775ZM136.209 42.185C135.468 42.185 134.43 41.7425 134.43 40.8575C134.43 39.6775 135.764 39.235 136.802 39.235C137.839 39.235 138.284 39.3825 138.877 39.6775C138.729 41.1525 137.543 42.185 136.209 42.185ZM149.252 34.0725L146.584 40.71H146.436L143.768 34.0725H141.248L145.398 43.365L143.027 48.5275H145.398L151.771 34.0725H149.252ZM128.502 43.8075H130.725V28.615H128.502V43.8075Z" fill="black"/>
<path id="Vector_3" d="M12.8956 14.3076C12.5992 14.7501 12.3027 15.3401 12.3027 16.0776V43.0701C12.3027 43.8076 12.4509 44.3976 12.8956 44.8401L13.0438 44.9876L28.1617 29.6476V29.5001V29.3526L12.8956 14.3076Z" fill="#5BC8F3"/>
<path id="Vector_4" d="M33.1994 34.6629L28.1602 29.6479V29.5004V29.3529L33.1994 24.3379H33.3477L39.4244 27.7304C41.203 28.7629 41.203 30.2379 39.4244 31.2704L33.1994 34.6629Z" fill="url(#paint0_linear_137_854)"/>
<path id="Vector_5" d="M33.3481 34.6625L28.1606 29.5L12.8945 44.6925C13.4874 45.2825 14.3767 45.43 15.4142 44.84L33.3481 34.6625Z" fill="url(#paint1_linear_137_854)"/>
<path id="Vector_6" d="M33.3481 24.3373L15.4142 14.1598C14.3767 13.5698 13.3392 13.7173 12.8945 14.3073L28.1606 29.4998L33.3481 24.3373Z" fill="url(#paint2_linear_137_854)"/>
</g>
<defs>
<linearGradient id="paint0_linear_137_854" x1="38.227" y1="29.5008" x2="8.49849" y2="29.5008" gradientUnits="userSpaceOnUse">
<stop stop-color="#FFDF00"/>
<stop offset="0.4087" stop-color="#FBBC0E"/>
<stop offset="0.7754" stop-color="#F9A418"/>
<stop offset="1" stop-color="#F89B1C"/>
</linearGradient>
<linearGradient id="paint1_linear_137_854" x1="30.5125" y1="32.3062" x2="2.68647" y2="60.2671" gradientUnits="userSpaceOnUse">
<stop stop-color="#EE4447"/>
<stop offset="1" stop-color="#C5166C"/>
</linearGradient>
<linearGradient id="paint2_linear_137_854" x1="2.42675" y1="-1.25678" x2="25.1461" y2="21.5724" gradientUnits="userSpaceOnUse">
<stop stop-color="#269E6F"/>
<stop offset="0.05089" stop-color="#2BA06F"/>
<stop offset="0.4663" stop-color="#53B26B"/>
<stop offset="0.7971" stop-color="#6BBD69"/>
<stop offset="1" stop-color="#74C168"/>
</linearGradient>
<clipPath id="clip0_137_854">
<rect width="166" height="59" fill="white"/>
</clipPath>
</defs>
</svg>
