<svg width="74" height="74" viewBox="0 0 74 74" fill="none" xmlns="http://www.w3.org/2000/svg">
<g id="Group 1000004459">
<circle id="Ellipse 801" cx="37" cy="37" r="37" fill="#0000DE" fill-opacity="0.4"/>
<circle id="Ellipse 800" cx="37" cy="37" r="28" fill="#0000DE"/>
<path id="Subtract" fill-rule="evenodd" clip-rule="evenodd" d="M37 49C41.5 49 49 40.9375 49 34.5556C49 28.1736 43.6274 23 37 23C30.3726 23 25 28.1736 25 34.5556C25 40.9375 32.5 49 37 49ZM37 38.6C39.2091 38.6 41 36.8539 41 34.7C41 32.5461 39.2091 30.8 37 30.8C34.7909 30.8 33 32.5461 33 34.7C33 36.8539 34.7909 38.6 37 38.6Z" fill="white"/>
</g>
</svg>
