<svg width="164" height="182" viewBox="0 0 164 182" fill="none" xmlns="http://www.w3.org/2000/svg">
<g id="g44">
<g id="g46">
<g id="g52">
<path id="path54" d="M75.5087 59.5928C69.0549 64.958 71.1937 96.2686 51.2373 82.7852C31.2809 69.3008 65.3199 61.303 63.373 53.6604C60.6477 42.9588 15.6395 55.8174 23.1904 35.3214C30.7414 14.8255 57.6485 45.6488 64.7218 38.019C71.2193 31.0086 38.8319 5.65712 53.9348 1.34214C69.0368 -2.97392 65.7848 33.7072 75.5087 33.704C83.0746 33.7008 81.6661 -1.35539 95.5771 11.0501C109.489 23.4555 79.0795 35.6776 83.0607 43.3757C86.0845 49.2271 110.028 34.7819 108.95 48.2664C107.871 61.7498 82.2962 53.9504 75.5087 59.5928Z" fill="#38BFF2"/>
</g>
<g id="g56">
<path id="path58" d="M71.1941 43.558C71.1941 43.558 85.7576 61.2113 84.1391 109.215" stroke="#1A2E35" stroke-width="1.33333" stroke-miterlimit="10" stroke-linecap="round" stroke-linejoin="round"/>
</g>
<g id="g60">
<path id="path62" d="M42.8233 68.535C45.4036 63.3425 66.794 59.7984 54.5539 48.5263C42.3137 37.2553 42.3531 61.4116 36.9037 61.3188C29.276 61.1898 30.7601 28.8844 18.182 37.2233C5.60378 45.5601 30.6077 58.745 26.603 64.7147C22.9234 70.1983 0.726898 52.4585 0.228973 63.2977C-0.270016 74.1379 23.8734 66.1157 25.4184 72.6538C26.62 77.7407 2.82842 82.3713 13.3818 89.7495C23.9353 97.1277 27.3141 74.7393 33.1229 76.1915C37.537 77.294 31.6355 95.6894 40.5288 92.8181C49.4222 89.9478 40.1098 73.9951 42.8233 68.535Z" fill="#38BFF2"/>
</g>
<g id="g64">
<g id="g78">
<g id="g76" opacity="0.300003">
<g id="g74" opacity="0.300003">
<path id="path72" opacity="0.300003" d="M42.8228 68.5348C45.4031 63.3424 66.7936 59.7983 54.5534 48.5262C42.3132 37.2552 42.3526 61.4114 36.9032 61.3187C29.2755 61.1897 30.7596 28.8843 18.1815 37.2232C5.60329 45.56 30.6072 58.7448 26.6025 64.7146C22.9229 70.1981 0.72641 52.4584 0.228485 63.2976C-0.270504 74.1378 23.8729 66.1156 25.4179 72.6536C26.6195 77.7406 2.82793 82.3712 13.3814 89.7494C23.9348 97.1276 27.3136 74.7392 33.1224 76.1914C37.5365 77.2938 31.635 95.6893 40.5283 92.818C49.4217 89.9477 40.1093 73.995 42.8228 68.5348Z" fill="black"/>
</g>
</g>
</g>
</g>
<g id="g80">
<path id="path82" d="M31.8207 68.7619C31.8207 68.7619 73.2646 64.4469 77.3535 109.214" stroke="#1A2E35" stroke-width="1.33333" stroke-miterlimit="10" stroke-linecap="round" stroke-linejoin="round"/>
</g>
<g id="g84">
<path id="path86" d="M110.829 63.9075C117.283 69.2727 115.144 100.583 135.1 87.0999C155.057 73.6154 121.019 65.6188 122.965 57.9751C125.69 47.2735 170.698 60.1321 163.147 39.6361C155.596 19.1402 128.689 49.9635 121.616 42.3337C115.119 35.3233 147.506 9.97182 132.404 5.65684C117.301 1.34185 120.553 38.023 110.829 38.0187C103.263 38.0155 104.672 2.9593 90.7607 15.3648C76.8487 27.7702 107.258 39.9923 103.278 47.6904C100.253 53.5418 76.3102 39.0966 77.3882 52.5811C78.4672 66.0645 104.041 58.2651 110.829 63.9075Z" fill="#38BFF2"/>
</g>
<g id="g88">
<g id="g102">
<g id="g100" opacity="0.300003">
<g id="g98" opacity="0.300003">
<path id="path96" opacity="0.300003" d="M110.829 63.9075C117.283 69.2727 115.144 100.583 135.1 87.0999C155.057 73.6154 121.019 65.6188 122.965 57.9751C125.69 47.2735 170.698 60.1321 163.147 39.6361C155.596 19.1402 128.689 49.9635 121.616 42.3337C115.119 35.3233 147.506 9.97182 132.404 5.65684C117.301 1.34185 120.553 38.023 110.829 38.0187C103.263 38.0155 104.672 2.9593 90.7607 15.3648C76.8487 27.7702 107.258 39.9923 103.278 47.6904C100.253 53.5418 76.3102 39.0966 77.3882 52.5811C78.4672 66.0645 104.041 58.2651 110.829 63.9075Z" fill="white"/>
</g>
</g>
</g>
</g>
<g id="g104">
<path id="path106" d="M115.422 47.8725C115.422 47.8725 96.5445 73.0769 92.2295 115.148" stroke="#1A2E35" stroke-width="1.33333" stroke-miterlimit="10" stroke-linecap="round" stroke-linejoin="round"/>
</g>
<g id="g108">
<path id="path110" d="M101.907 180.958H72.4789C66.8451 180.958 62.1494 176.646 61.6718 171.032L57.0454 116.664C56.507 110.335 61.5001 104.899 67.8526 104.899H106.533C112.885 104.899 117.879 110.335 117.34 116.664L112.713 171.032C112.236 176.646 107.54 180.958 101.907 180.958Z" fill="#38BFF2"/>
</g>
<g id="g112">
<path id="path114" d="M101.907 180.958H72.4789C66.845 180.958 62.1494 176.646 61.6718 171.032L57.0454 116.664C56.507 110.335 61.5001 104.899 67.8526 104.899H106.533C112.885 104.899 117.879 110.335 117.34 116.664L112.713 171.032C112.236 176.646 107.54 180.958 101.907 180.958Z" stroke="#1A2E35" stroke-width="1.33333" stroke-miterlimit="10" stroke-linecap="round" stroke-linejoin="round"/>
</g>
</g>
</g>
</svg>
