<svg width="199" height="71" viewBox="0 0 199 71" fill="none" xmlns="http://www.w3.org/2000/svg">
<g id="logo-white 1">
<path id="Vector" fill-rule="evenodd" clip-rule="evenodd" d="M162.884 28.7166V42.3013H168.016V27.6713H169.67C171.716 27.6713 172.421 28.0007 172.956 29.2018C173.31 29.9946 173.346 30.6356 173.35 36.1893L173.354 42.3032H178.513L178.449 35.2486C178.387 28.3498 178.376 28.1723 177.908 27.2059C177.588 26.5901 177.159 26.0403 176.642 25.5847C175.222 24.4408 174.554 24.2653 171.148 24.1647L168.018 24.0681V15.1319H162.884V28.7166ZM96.0996 24.1253C92.4365 25.064 90.4059 28.4937 90.4117 33.7241C90.4175 37.5206 91.3024 39.9405 93.161 41.2422C94.4902 42.1731 95.3364 42.3308 98.6151 42.2618L101.585 42.1967L102.157 40.6308C102.47 39.767 102.779 38.8972 102.844 38.698C102.951 38.3608 102.74 38.3312 100.271 38.3312C98.4528 38.3312 97.3632 38.2385 96.9053 38.0432C96.1711 37.7316 95.5432 36.6666 95.5432 35.7397V35.1953H106.218V33.0949C106.218 30.2352 105.781 28.3971 104.711 26.774C103.996 25.6892 103.633 25.3618 102.475 24.7643C101.212 24.1115 100.916 24.0464 98.9861 23.9892C97.8269 23.9556 96.5266 24.0168 96.0996 24.1272V24.1253ZM133.011 24.3343C131.5 24.8234 129.812 26.2651 129.12 27.6516C128.135 29.6337 127.94 30.7894 128.015 34.2151C128.079 37.1794 128.123 37.4733 128.66 38.6448C129.336 40.118 129.999 40.8773 131.267 41.6425C132.151 42.175 132.337 42.2007 135.604 42.2658L139.018 42.3368L139.659 40.5322C140.011 39.5382 140.301 38.6448 140.301 38.5442C140.301 38.4456 138.962 38.3312 137.325 38.2937C134.429 38.2286 134.34 38.2128 133.815 37.6764C133.442 37.2977 133.241 36.8283 133.168 36.1617L133.061 35.1953H143.79V33.4105C143.79 27.0264 141.178 23.8846 135.9 23.9221C134.864 23.93 133.782 24.0838 133.011 24.3343ZM77.1366 24.3363C75.251 24.7169 73.6396 25.9989 73.0407 27.5924C72.8069 28.2157 72.7297 28.9296 72.7857 29.9433C72.8572 31.2213 72.9634 31.5408 73.6532 32.5624C74.824 34.294 75.9678 34.8009 78.9663 34.9192C81.6924 35.0277 82.0653 35.0908 82.4903 35.5247C82.9695 36.0118 82.9057 37.3451 82.3821 37.8283C82.0034 38.1773 81.5146 38.2385 78.4485 38.3312L74.9476 38.4357L74.2618 40.3152C73.885 41.3506 73.5759 42.2283 73.5759 42.2618C73.5759 42.2993 75.8596 42.2993 78.6572 42.2618C83.4873 42.2007 83.7887 42.1731 84.8126 41.7017C85.9912 41.1593 87.2084 39.9346 87.6585 38.8361C87.8169 38.4515 87.9464 37.5344 87.9464 36.7968C87.9464 34.442 87.0751 32.7478 85.3285 31.7065C84.4475 31.1799 84.1384 31.1227 81.5881 31.0162C80.0502 30.9511 78.6127 30.7874 78.3712 30.6494C77.581 30.1997 77.438 29.0676 78.0717 28.2709C78.4466 27.7975 78.6088 27.7719 81.6866 27.6713L84.9092 27.5668L85.5043 25.9081C85.8308 24.995 86.0974 24.218 86.0974 24.1825C86.0974 24.0385 77.923 24.1785 77.1366 24.3363ZM114.28 24.3402C113.253 24.548 112.293 25.0149 111.489 25.6984C110.684 26.3818 110.059 27.2601 109.672 28.2531C109.237 29.3536 109.199 29.7638 109.197 33.4203C109.197 37.2622 109.212 37.4279 109.73 38.5481C110.435 40.0805 111.359 41.1199 112.541 41.7135C113.387 42.1376 113.901 42.2105 116.689 42.3013L119.871 42.4058L119.941 43.029C120.04 43.9106 119.622 45.1807 119.149 45.4391C118.927 45.5594 118.005 45.7152 117.101 45.7881C116.197 45.8591 115.459 45.9321 115.459 45.9499C115.459 45.9696 115.178 46.7624 114.837 47.713L114.218 49.4427L117.661 49.3717C120.712 49.3066 121.197 49.2474 121.925 48.851C123.461 48.0089 124.514 46.4311 124.833 44.4865C124.928 43.9165 124.98 39.1023 124.949 33.7852L124.895 24.1193L120.022 24.143C117.342 24.1548 114.759 24.2436 114.28 24.3402ZM147.299 25.8056C146.951 26.7365 146.665 27.5372 146.665 27.5845C146.665 27.6338 148.282 27.6713 150.259 27.6713C152.233 27.6713 153.848 27.7423 153.844 27.8291C153.841 27.9159 152.086 30.4186 149.942 33.3947L146.049 38.8025V42.3013H158.311L158.955 40.4691C159.31 39.4613 159.6 38.5678 159.6 38.483C159.6 38.4002 157.936 38.3312 155.904 38.3312C153.871 38.3312 152.208 38.2838 152.208 38.2247C152.208 38.1675 153.922 35.7752 156.014 32.9076L159.82 27.695L159.762 25.9594L159.702 24.2239L153.819 24.1686L147.934 24.1134L147.299 25.8056ZM185.812 25.6439C185.511 26.5077 185.263 27.3183 185.263 27.4445C185.263 27.6003 186.308 27.6713 188.548 27.6713C191.56 27.6713 191.867 27.7068 192.244 28.0894C192.684 28.5391 192.777 29.3477 192.456 29.9571C192.186 30.4699 191.548 30.6888 188.476 31.3258C185.286 31.9885 183.82 32.523 182.873 33.3691C180.677 35.3314 180.748 39.3508 183.009 40.9444C184.67 42.1198 185.076 42.181 191.577 42.2579L197.582 42.3308L197.58 35.0533C197.58 30.7795 197.493 27.4603 197.371 27.0126C197.116 26.0778 195.847 24.8629 194.773 24.5276C194.342 24.3935 192.273 24.2357 190.174 24.1765L186.361 24.07L185.812 25.6439ZM100.284 28.1466C101.187 28.758 101.701 29.823 101.701 31.0675V32.0615H95.5451V31.1247C95.5451 29.7323 96.0436 28.6594 96.9381 28.1308C97.9775 27.5195 99.3725 27.5254 100.286 28.1466H100.284ZM119.974 33.0022V38.3312H118.034C116.966 38.3312 115.859 38.2227 115.573 38.0906C115.283 37.9565 114.846 37.42 114.587 36.8875C114.168 36.0197 114.124 35.6312 114.129 32.8977C114.135 30.18 114.182 29.7757 114.589 28.9888C114.84 28.5075 115.207 28.0165 115.405 27.8981C115.604 27.7798 116.713 27.6812 117.87 27.6792L119.976 27.6713L119.974 33.0022ZM137.625 28.0381C138.543 28.5115 139.066 29.4542 139.213 30.9038L139.331 32.0615H132.851L132.969 30.9038C133.181 28.8191 134.288 27.6733 136.091 27.6733C136.543 27.6733 137.233 27.837 137.625 28.0381ZM192.448 36.0316V38.3312H189.771C187.201 38.3312 187.072 38.3115 186.589 37.8184C185.961 37.1774 185.943 36.4457 186.546 35.8797C186.902 35.5444 191.453 33.8621 192.294 33.7536C192.379 33.7418 192.448 34.7674 192.448 36.0316ZM159.555 46.9182C158.469 47.0769 157.443 47.523 156.578 48.2122C155.713 48.9014 155.039 49.8098 154.625 50.8469C154.219 51.8665 154.159 52.3911 154.159 54.8406C154.159 57.4893 154.192 57.7339 154.716 58.8127C155.527 60.4891 156.323 61.3588 157.678 62.059C158.785 62.629 159.053 62.6783 161.037 62.6783C163.02 62.6783 163.288 62.629 164.395 62.059C165.757 61.3549 166.557 60.4753 167.342 58.8127C167.8 57.8404 167.898 57.302 167.975 55.3298C168.053 53.3654 167.999 52.7639 167.63 51.5293C166.6 48.0779 163.543 46.3325 159.555 46.9182ZM132.683 47.1115C130.874 47.4231 129.485 48.5591 128.62 50.4367C128.115 51.5352 128.085 51.7857 128.085 54.8406C128.085 57.9686 128.104 58.1224 128.66 59.2742C129.333 60.6686 130.699 61.9801 131.842 62.3292C132.302 62.4672 133.948 62.5737 135.675 62.5737H138.703L138.626 64.0075C138.562 65.1179 138.423 65.6287 138.004 66.2756C137.24 67.4491 136.29 67.8435 133.942 67.9579C131.906 68.0565 131.471 68.2557 131.471 69.0919C131.471 69.4351 131.69 69.4706 133.782 69.4686C135.78 69.4686 136.228 69.3996 137.119 68.9736C138.351 68.38 139.105 67.599 139.669 66.3367C140.067 65.4354 140.086 64.9996 140.09 56.1482L140.094 46.8985L136.862 46.9241C135.082 46.938 133.202 47.0228 132.683 47.1115ZM147.299 47.1253C145.531 47.4803 144.014 48.926 143.593 50.6615C143.446 51.265 143.386 53.5508 143.423 57.0357L143.481 62.4692L144.254 62.5343L145.023 62.5994V56.7143C145.023 50.1468 145.044 50.0284 146.46 49.133C147.061 48.7524 147.556 48.6656 149.507 48.6005L151.837 48.5256L152.127 47.8235C152.283 47.4369 152.413 47.0721 152.413 47.0109C152.413 46.8334 148.298 46.9261 147.299 47.1253ZM170.823 47.0385C170.746 47.1155 170.686 49.778 170.686 52.9552C170.686 58.7003 170.688 58.7338 171.202 59.7811C171.745 60.8934 172.914 61.9032 174.156 62.3331C174.587 62.481 176.333 62.5737 178.723 62.5737H182.595V46.8748L181.824 46.9399L181.055 47.005L180.999 53.9532L180.945 60.9013H177.864C174.386 60.9013 173.605 60.6745 172.707 59.3925C172.235 58.72 172.226 58.6036 172.166 52.8053L172.102 46.9005H171.532C171.219 46.9005 170.899 46.9616 170.823 47.0385ZM185.88 57.8463V68.8434H187.317V62.5737H190.254C192.997 62.5737 193.26 62.5382 194.251 62.0353C195.503 61.4003 196.22 60.5976 196.942 59.0218C197.427 57.9646 197.47 57.6412 197.472 55.0497C197.472 51.618 197.151 50.3361 195.942 48.9358C194.5 47.2693 193.753 47.0366 189.527 46.936L185.88 46.8472V57.8463ZM163.837 49.0088C165.753 49.9752 166.735 52.3379 166.524 55.4797C166.337 58.2763 165.075 60.2702 163.118 60.8658C162.098 61.1774 159.975 61.1774 158.955 60.8658C157.809 60.5167 156.652 59.4142 156.093 58.1402C155.68 57.1975 155.606 56.6906 155.601 54.7341C155.597 52.6475 155.647 52.328 156.155 51.2749C156.464 50.6359 156.947 49.8943 157.227 49.6261C158.603 48.3087 161.853 48.0069 163.837 49.0088ZM138.659 54.7341V60.8993L135.527 60.8973C131.663 60.8914 131.126 60.6745 130.142 58.7161C129.557 57.5525 129.522 57.3414 129.522 55.0635C129.522 52.2432 129.818 50.981 130.728 49.9219C131.672 48.8234 132.559 48.5887 135.834 48.5788L138.659 48.569V54.7341ZM194.031 49.2356C194.552 49.5867 195.043 50.1704 195.35 50.8015C195.797 51.7285 195.837 52.0657 195.837 54.9787V58.1481L195.213 59.0494C194.042 60.7455 193.629 60.8993 190.263 60.8993H187.317V54.8742C187.317 51.5608 187.385 48.778 187.472 48.6913C187.555 48.6045 188.878 48.565 190.412 48.6025C193.034 48.6696 193.248 48.709 194.031 49.2356ZM18.9784 5.66723C21.919 3.68909 24.7629 2.53731 28.3024 1.88648C34.3845 0.770201 41.1737 2.30656 46.4327 5.9887C48.1271 7.17401 54.0797 12.9645 56.9043 16.1772C61.5006 21.3977 63.5602 26.7049 63.5583 33.3158C63.5563 38.7513 62.0281 43.5319 58.9194 47.8393C57.2328 50.1744 48.4285 59.0573 46.4191 60.4516C42.416 63.2285 38.3336 64.6189 33.6155 64.8102C29.1197 64.9937 25.6942 64.3113 21.9383 62.485C18.8258 60.9723 16.9536 59.4182 11.5304 53.8388C5.34399 47.4764 4.0476 45.6343 2.58697 41.1515C1.62095 38.1872 1.4065 36.6785 1.42002 33.0003C1.43161 29.3438 1.71176 27.7403 2.92315 24.358C4.35286 20.378 6.19796 17.9167 12.5215 11.5661C15.8639 8.20942 17.7245 6.50937 18.9784 5.66723ZM36.0827 14.0807C39.1218 14.8716 40.1999 15.627 44.5895 20.0329C49.0583 24.5177 50.2697 26.1389 51.1198 28.7758C51.5854 30.2313 51.6704 30.8604 51.6743 32.8977C51.6782 34.9823 51.6047 35.5208 51.114 36.9703C50.2581 39.5027 49.3346 40.8438 46.1776 44.1492C40.6114 49.9771 38.3722 51.6595 35.138 52.4345C33.2909 52.8783 30.6421 52.8349 28.7004 52.33C25.9299 51.6082 24.4209 50.5668 20.5318 46.6895C18.6287 44.7941 16.6194 42.6642 16.0649 41.9561C14.1599 39.5263 13.2132 36.7573 13.2132 33.6274C13.2132 30.4975 14.1599 27.7285 16.0668 25.2987C16.6213 24.5927 18.8625 22.228 21.0457 20.0428C24.2722 16.8162 25.2942 15.9248 26.4882 15.2838C29.4462 13.6981 32.9316 13.2603 36.0827 14.0807ZM17.2396 31.0024C17.939 28.6022 18.4297 27.9514 23.3448 22.9143C27.7035 18.4433 28.0996 18.0883 28.2618 18.5241C28.3584 18.7845 28.6985 19.7154 29.0153 20.593L29.5911 22.1866L25.8082 26.0265C21.4417 30.462 20.81 31.4225 20.81 33.6274C20.81 34.649 20.9394 35.1855 21.434 36.1933C22.5546 38.4712 24.3398 39.621 26.7626 39.621C28.9728 39.621 29.7147 39.1753 32.947 35.8955C34.6627 34.156 35.8007 33.1501 35.8876 33.2941C35.9649 33.4243 36.303 34.3493 36.6353 35.3492L37.24 37.1695L34.9274 39.5362C32.2051 42.323 30.673 43.244 28.1421 43.6148C22.2648 44.4766 16.9092 39.7137 16.9092 33.6274C16.9092 32.807 17.0579 31.6256 17.2376 31.0024H17.2396ZM30.0161 26.987C32.4969 24.502 33.6213 23.7426 35.6461 23.1865C37.9162 22.5652 40.7274 22.9104 42.8642 24.074C44.5219 24.9733 46.1622 26.774 47.0374 28.6495C47.7213 30.1149 47.8044 30.4857 47.8778 32.3415C47.9783 34.8818 47.5784 36.5759 46.4713 38.2838C45.7371 39.4218 36.927 48.5512 36.7589 48.352C36.6102 48.1745 35.3872 44.7744 35.3872 44.5378C35.3872 44.4076 37.1357 42.5103 39.2745 40.3231C43.6795 35.8166 43.9983 35.3216 44.0022 33.0003C44.0099 29.5292 41.5098 26.9475 38.1577 26.9593C35.8973 26.9672 35.1322 27.4268 31.8748 30.7302C29.5254 33.1107 29.0559 33.5012 28.9265 33.1758C28.6734 32.484 28.4306 31.7884 28.1981 31.0892L27.6243 29.3852L30.0161 26.987ZM43.8302 9.49531C42.0102 8.25281 39.5063 7.09906 37.439 6.55079C34.1739 5.68695 29.4983 5.82501 26.3201 6.88212C22.3711 8.19562 20.7385 9.42629 14.6371 15.698C8.52606 21.9775 7.66244 23.2259 6.30615 27.7758C5.79416 29.4877 5.74393 29.967 5.73233 33.1048C5.72074 36.071 5.7845 36.8027 6.19023 38.3312C6.81234 40.6821 8.40628 43.956 9.76064 45.6678C11.3295 47.6519 20.0777 56.2666 21.4804 57.2073C23.0994 58.294 25.4121 59.3393 27.4349 59.8974C29.8654 60.568 35.1283 60.568 37.5414 59.8935C39.4619 59.361 42.6072 57.866 44.0949 56.7813C45.5826 55.6986 54.3154 46.8472 55.4959 45.228C58.0809 41.678 59.3116 37.6922 59.2711 33.0003C59.2518 30.821 59.1436 29.8841 58.7243 28.2551C58.0736 25.6628 56.9279 23.2272 55.3529 21.088C53.7261 18.9087 45.515 10.6491 43.8283 9.49531H43.8302ZM29.1255 9.83651C27.2862 10.2369 25.072 11.1756 23.4337 12.2485C22.0329 13.1656 14.1541 20.9658 12.7089 22.865C10.0872 26.3105 8.94725 30.0794 9.15784 34.5997C9.32593 38.1951 10.3441 41.1376 12.3979 43.9737C13.7117 45.7842 21.0109 53.0795 22.5121 54.0813C28.3642 57.9863 36.0171 57.9489 41.7784 53.9906C43.382 52.8901 50.8184 45.4588 52.3273 43.4511C53.7079 41.5744 54.7243 39.4456 55.322 37.1794C55.9016 34.9745 55.9557 30.9275 55.4302 28.9256C54.2652 24.5 53.4846 23.293 48.3377 17.9838C42.756 12.2268 41.0539 11.0198 37.07 9.99034C34.7709 9.39867 31.44 9.33162 29.1255 9.83651Z" fill="#111827"/>
</g>
</svg>
