<svg width="243" height="43" viewBox="0 0 243 43" fill="none" xmlns="http://www.w3.org/2000/svg">
<g id="Group">
<g id="Group_2">
<path id="Vector" d="M41.0459 34.3997L32.8374 42.9978L2.47246 43L0 40.409V8.59983L8.20967 0H38.5738L41.0459 2.58966V34.3997Z" fill="#111827"/>
<path id="Vector_2" d="M38.5749 0L29.3429 9.67123V23.7876L21.7804 12.901H5.83887V16.322H10.538V29.3713L0.00195312 40.409V43L2.47358 42.9978L14.0792 30.8401V16.322H18.7767V30.0985H22.2727V19.2116L29.8357 30.0985H32.8386V11.1886L41.0474 2.58966L41.047 0H38.5749Z" fill="white"/>
<g id="Group_3">
<path id="Vector_3" d="M54.181 17.0772H49.256V12.9004H63.6576V17.0772H58.7329V30.0979H54.1814L54.181 17.0772Z" fill="#111827"/>
<path id="Vector_4" d="M66.0502 12.9004H79.254V16.9524H70.5532V19.5594H78.4327V23.3193H70.5532V26.045H79.3719V30.0983H66.0502V12.9004Z" fill="#111827"/>
<path id="Vector_5" d="M86.8634 21.352L81.4675 12.9004H86.6992L89.6069 17.7399L92.5402 12.9004H97.6514L92.2589 21.303L97.8877 30.0979H92.6565L89.5121 24.9147L86.3471 30.0979H81.2338L86.8634 21.352Z" fill="#111827"/>
<path id="Vector_6" d="M100.039 12.9004H104.589V19.3375H110.43V12.9004H114.98V30.0979H110.43V23.562H104.589V30.0979H100.039V12.9004Z" fill="#111827"/>
<path id="Vector_7" d="M117.712 21.4986C117.712 16.559 121.512 12.5547 126.579 12.5547C131.644 12.5547 135.397 16.5109 135.397 21.4986C135.397 26.4374 131.597 30.4422 126.532 30.4422C121.463 30.4426 117.712 26.4851 117.712 21.4986ZM130.752 21.4986C130.752 19.0165 129.041 16.8533 126.532 16.8533C124.043 16.8533 122.379 18.9666 122.379 21.4986C122.379 23.9808 124.092 26.1401 126.578 26.1401C129.086 26.1405 130.752 24.0294 130.752 21.4986Z" fill="#111827"/>
<path id="Vector_8" d="M138.151 12.9004H142.704V19.3375H148.542V12.9004H153.094V30.0979H148.542V23.562H142.704V30.0979H138.151V12.9004Z" fill="#111827"/>
<path id="Vector_9" d="M156.634 12.9004H161.138V22.5794L167.496 12.9004H171.739V30.0979H167.236V20.4184L160.879 30.0979H156.634V12.9004Z" fill="#111827"/>
<path id="Vector_10" d="M175.281 12.9004H179.83V19.8788L185.483 12.9004H190.878L184.663 20.2949L191.088 30.0983H185.625L181.497 23.7115L179.83 25.651V30.0987H175.281V12.9004Z" fill="#111827"/>
<path id="Vector_11" d="M191.122 21.4986C191.122 16.559 194.92 12.5547 199.986 12.5547C205.053 12.5547 208.807 16.5109 208.807 21.4986C208.807 26.4374 205.006 30.4422 199.941 30.4422C194.874 30.4426 191.122 26.4851 191.122 21.4986ZM204.16 21.4986C204.16 19.0165 202.451 16.8533 199.941 16.8533C197.453 16.8533 195.789 18.9666 195.789 21.4986C195.789 23.9808 197.5 26.1401 199.987 26.1401C202.496 26.1405 204.16 24.0294 204.16 21.4986Z" fill="#111827"/>
<path id="Vector_12" d="M229.138 12.9004H233.687V18.3038H236.173C240.114 18.3038 243 20.2711 243 24.1506C243 27.8632 240.42 30.0983 236.409 30.0983H229.138V12.9004ZM236.057 26.094C237.557 26.094 238.449 25.381 238.449 24.0301C238.449 22.8265 237.557 22.0398 236.08 22.0398H233.687V26.094H236.057Z" fill="#111827"/>
<path id="Vector_13" d="M212.836 12.9004V20.4449C212.836 22.2279 212.664 24.8072 211.54 25.7195C211.013 26.1469 210.142 26.4745 209.591 26.4745V30.5291H210.023C211.596 30.5291 213.359 29.8664 214.036 29.4161C216.781 27.591 217.12 24.1193 217.12 20.1978V17.0768H221.047V30.0974H225.597V12.9004H212.836Z" fill="#111827"/>
</g>
</g>
</g>
</svg>
