<svg width="143" height="63" viewBox="0 0 143 63" fill="none" xmlns="http://www.w3.org/2000/svg">
<g id="logo-vertical 1" clip-path="url(#clip0_635_5588)">
<g id="logo-vertical">
<g id="Layer 1">
<path id="Vector" d="M12.1889 20.2531L19.4195 29.5012H12.553C12.0082 29.5027 11.4701 29.3782 10.9783 29.137C10.4865 28.8958 10.0536 28.544 9.71163 28.1076L0 15.6153H6.06977C7.01519 15.625 7.92874 15.2639 8.62487 14.6056C9.32101 13.9472 9.74754 13.0409 9.81785 12.0706V11.8481C9.81954 11.0069 9.55716 10.1877 9.06977 9.5124C8.58238 8.8371 7.89605 8.34186 7.11301 8.10044C6.76762 7.99955 6.4098 7.9509 6.0508 7.956H4.93169L0 1.54201H6.44913C8.57 1.54639 10.6346 2.24456 12.3446 3.53563C14.0546 4.8267 15.3214 6.64381 15.962 8.72438C16.6026 10.8049 16.5837 13.0412 15.9082 15.1101C15.2327 17.1789 13.9355 18.9732 12.204 20.2335L12.1889 20.2531ZM29.1652 48.4075C29.2225 52.2075 27.8114 55.8755 25.2421 58.6055C22.6727 61.3355 19.1552 62.9041 15.4625 62.9667C11.7698 63.0293 8.20406 61.5807 5.54869 58.9393C2.89332 56.2979 1.36559 52.6797 1.30121 48.8798C1.30121 48.7211 1.30121 48.5636 1.30121 48.4075C1.30029 46.8861 1.53069 45.374 1.98406 43.9259C2.00682 43.8426 2.03337 43.7567 2.06372 43.6682C2.91349 41.2713 3.00454 39.8191 2.18891 37.4768C2.94763 36.9732 3.77843 36.4422 3.77843 36.4422C4.26022 36.9068 5.57281 37.8203 7.32166 36.5086C9.6365 34.8486 12.3909 33.9601 15.2124 33.9633C18.9227 33.9778 22.4757 35.5071 25.0912 38.2153C27.7066 40.9236 29.1705 44.5893 29.1615 48.4075H29.1652ZM22.4544 48.4075C22.4379 46.9443 22.0012 45.5187 21.1993 44.3103C20.3973 43.1019 19.2659 42.1646 17.9475 41.6163C16.6291 41.0681 15.1825 40.9334 13.7899 41.2292C12.3972 41.5251 11.1207 42.2382 10.121 43.2788C9.12131 44.3195 8.44307 45.6412 8.17165 47.0776C7.90023 48.514 8.04776 50.001 8.59567 51.3513C9.14359 52.7016 10.0674 53.855 11.2508 54.6663C12.4343 55.4776 13.8245 55.9105 15.2465 55.9106C16.2001 55.9107 17.1443 55.716 18.0242 55.3379C18.9042 54.9598 19.7025 54.4058 20.373 53.7079C21.0434 53.01 21.5725 52.1822 21.9298 51.2723C22.2871 50.3625 22.4654 49.3887 22.4544 48.4075ZM40.5157 57.1638C38.0461 57.1638 37.0104 54.9932 37.0104 52.4518C37.0104 49.9924 37.9247 47.7673 40.3943 47.7673C41.0498 47.7305 41.6962 47.938 42.2153 48.3516C42.7343 48.7653 43.0911 49.3575 43.2206 50.0198H49.6962C49.3622 47.7573 48.2418 45.6963 46.543 44.2195C44.8442 42.7427 42.6823 41.9504 40.4588 41.9896C34.0476 41.9896 30.1857 46.6742 30.1857 52.3972C30.1857 58.9517 34.886 62.9688 40.3791 62.9688C45.8723 62.9688 48.9413 59.4553 50.0566 54.7317H43.4596C43.3135 55.4233 42.941 56.0423 42.4044 56.485C41.8678 56.9278 41.1997 57.1674 40.5119 57.1638H40.5157ZM59.3206 54.5014V48.4777H63.4936V42.661H59.3206V36.4149H52.587V42.6688H50.3981V48.4777H52.587V55.4344C52.587 60.0253 54.5786 62.5628 59.4762 62.5628C60.886 62.5308 62.2869 62.325 63.6491 61.9499V56.3947C62.9034 56.5846 62.1406 56.6944 61.373 56.7226C59.8328 56.7226 59.3168 56.2854 59.3168 54.5092L59.3206 54.5014ZM84.9199 52.4518C84.9199 58.2295 80.7469 62.9922 74.7265 62.9922C68.835 62.9922 64.533 58.4013 64.533 52.4518C64.533 46.3892 68.8729 42.0013 74.7265 42.0013C80.7735 42.0013 84.9161 46.518 84.9161 52.4518H84.9199ZM78.19 52.4948C78.19 50.1174 77.0747 48.1108 74.7265 48.1108C72.3782 48.1108 71.2629 49.9963 71.2629 52.4948C71.2629 54.9932 72.6172 56.8788 74.7265 56.8788C77.0026 56.8788 78.1862 54.9932 78.1862 52.4948H78.19ZM106.513 52.6587C106.513 59.1313 102.211 62.9453 97.7878 62.9453C96.8203 62.9825 95.8597 62.7649 94.9967 62.3134C94.1337 61.8619 93.3969 61.1912 92.8561 60.3649H92.6588V62.2895H86.1149V32.7922H92.5261V44.7145H92.7385C93.47 43.9025 94.3578 43.2561 95.3453 42.8166C96.3328 42.377 97.3985 42.1539 98.4744 42.1614C101.21 42.1614 106.506 44.6247 106.506 52.6548L106.513 52.6587ZM99.6846 52.6158C99.6846 50.2384 98.5693 48.1498 96.02 48.1498C94.1497 48.1498 92.5147 49.9534 92.5147 52.5768C92.5147 55.2821 94.0321 57.0857 96.02 57.0857C98.482 57.0857 99.677 54.8293 99.677 52.6158H99.6846ZM127.325 52.4128C127.333 52.9605 127.306 53.5082 127.245 54.0524H113.876C113.862 55.1027 114.254 56.1157 114.965 56.869C115.677 57.6222 116.649 58.054 117.67 58.0695H117.735C118.373 58.0928 119.006 57.9328 119.561 57.6074C120.117 57.282 120.573 56.804 120.879 56.2268H127.086C125.853 60.037 122.943 62.9883 117.602 62.9883C112.105 62.9883 107.408 58.9712 107.408 52.4167C107.408 46.682 110.914 42.0091 117.442 42.0091C123.307 42.0091 127.329 46.2252 127.329 52.4128H127.325ZM120.834 49.6801C120.736 48.8053 120.329 47.9979 119.691 47.4118C119.052 46.8257 118.226 46.5018 117.37 46.5018C116.515 46.5018 115.689 46.8257 115.05 47.4118C114.411 47.9979 114.004 48.8053 113.907 49.6801H120.834ZM141.171 42.1614C138.584 42.1614 136.593 43.758 135.318 46.0652H135.121V42.704H128.622V62.3324H135.352V53.2795C135.352 50.617 136.585 48.5246 140.052 48.5246C141.04 48.5244 142.026 48.6067 143 48.7705V42.298C142.396 42.169 141.78 42.1139 141.164 42.134L141.171 42.1614ZM37.5567 19.6285C37.5644 20.1762 37.5378 20.7238 37.477 21.2681H24.078C24.0638 22.3183 24.4555 23.3314 25.1668 24.0846C25.8782 24.8379 26.851 25.2697 27.8716 25.2851H27.9361C28.5774 25.3073 29.212 25.1447 29.7683 24.8157C30.3246 24.4867 30.7806 24.0043 31.0848 23.423H37.2949C36.062 27.2331 33.1523 30.1844 27.8109 30.1844C22.3178 30.1844 17.6175 26.1674 17.6175 19.6128C17.6175 13.8781 21.1228 9.20523 27.6516 9.20523C33.5279 9.22084 37.5567 13.4409 37.5567 19.6285ZM31.0658 16.8958C30.9682 16.0209 30.5613 15.2135 29.9226 14.6274C29.2839 14.0413 28.458 13.7174 27.6023 13.7174C26.7465 13.7174 25.9207 14.0413 25.282 14.6274C24.6433 15.2135 24.2363 16.0209 24.1387 16.8958H31.0658ZM52.5301 0H59.0551V29.5012H52.6439V27.6586H52.4466C51.7145 28.468 50.8269 29.1119 49.8401 29.5494C48.8533 29.9869 47.7889 30.2084 46.7145 30.2C43.9679 30.2 38.672 27.7016 38.672 19.6597C38.672 13.1871 42.974 9.20913 47.3973 9.20913C48.3648 9.17202 49.3254 9.38952 50.1884 9.84106C51.0514 10.2926 51.7882 10.9633 52.329 11.7896H52.5301V0ZM52.6515 19.7495C52.6515 17.0441 51.134 15.0649 49.1462 15.0649C46.6765 15.0649 45.4815 17.4813 45.4815 19.6948C45.4815 22.0722 46.5969 24.2037 49.1462 24.2037C51.0126 24.2037 52.6439 22.3728 52.6439 19.7495H52.6515Z" fill="#111827"/>
</g>
</g>
</g>
<defs>
<clipPath id="clip0_635_5588">
<rect width="143" height="63" fill="white"/>
</clipPath>
</defs>
</svg>
