<svg width="28" height="28" viewBox="0 0 28 28" fill="none" xmlns="http://www.w3.org/2000/svg">
<g id="Group 1000004815">
<circle id="Ellipse 3952" cx="14" cy="14" r="13.5" stroke="white"/>
<path id="Vector" d="M17.5892 14.0304V10.659C17.5892 10.5229 17.4708 10.4102 17.3279 10.4102H13.788C13.6451 10.4102 13.5267 10.5229 13.5267 10.659C13.5267 10.7951 13.6492 10.9118 13.7921 10.9118L16.7073 10.9157L10.1337 17.1801C10.0317 17.2773 10.0194 17.4251 10.1215 17.5223C10.2236 17.6195 10.3787 17.6079 10.4808 17.5106L17.0544 11.2501L17.0585 14.0265C17.0585 14.0965 17.0911 14.1587 17.136 14.2054C17.185 14.252 17.2504 14.2793 17.3238 14.2793C17.4708 14.2793 17.5892 14.1665 17.5892 14.0304Z" fill="white"/>
</g>
</svg>
