<svg width="29" height="28" viewBox="0 0 29 28" fill="none" xmlns="http://www.w3.org/2000/svg">
<g id="Logo">
<path id="Vector" fill-rule="evenodd" clip-rule="evenodd" d="M0 0.167969H28.3739V3.15036H2.8906V12.509H25.4836V10.055H14.1676V7.07291H28.3739V7.36066V10.055V12.509V13.2963V15.1766V15.4911V24.8498V27.6502V27.8322H0V24.8498H25.4836V15.4911H2.8906V17.9454H14.2072V20.9276H0V20.6398V17.9454V15.4911V14.7039V12.8236V12.509V3.15036V0.350281V0.167969Z" fill="#003D6E"/>
<path id="Vector_2" fill-rule="evenodd" clip-rule="evenodd" d="M14.1924 3.49609H28.3742V3.8395H14.1924V3.49609Z" fill="#A8D4AF"/>
<path id="Vector_3" fill-rule="evenodd" clip-rule="evenodd" d="M0.0117188 21.2891H14.1936V21.6325H0.0117188V21.2891Z" fill="#A8D4AF"/>
<path id="Vector_4" fill-rule="evenodd" clip-rule="evenodd" d="M14.1924 5.60352H28.3742V5.94664H14.1924V5.60352Z" fill="#A8D4AF"/>
<path id="Vector_5" fill-rule="evenodd" clip-rule="evenodd" d="M0.0117188 23.3965H14.1936V23.7399H0.0117188V23.3965Z" fill="#A8D4AF"/>
<path id="Vector_6" fill-rule="evenodd" clip-rule="evenodd" d="M14.1924 4.22266H28.3742V4.56608H14.1924V4.22266Z" fill="#A8D4AF"/>
<path id="Vector_7" fill-rule="evenodd" clip-rule="evenodd" d="M0.0117188 22.0137H14.1936V22.3571H0.0117188V22.0137Z" fill="#A8D4AF"/>
<path id="Vector_8" fill-rule="evenodd" clip-rule="evenodd" d="M14.1924 6.33203H28.3742V6.67546H14.1924V6.33203Z" fill="#A8D4AF"/>
<path id="Vector_9" fill-rule="evenodd" clip-rule="evenodd" d="M0.0117188 24.125H14.1936V24.4684H0.0117188V24.125Z" fill="#A8D4AF"/>
<path id="Vector_10" fill-rule="evenodd" clip-rule="evenodd" d="M14.1924 4.94727H28.3742V5.29069H14.1924V4.94727Z" fill="#A8D4AF"/>
<path id="Vector_11" fill-rule="evenodd" clip-rule="evenodd" d="M0.0117188 22.7383H14.1936V23.0817H0.0117188V22.7383Z" fill="#A8D4AF"/>
</g>
</svg>
