<svg width="71" height="71" viewBox="0 0 71 71" fill="none" xmlns="http://www.w3.org/2000/svg">
<g id="Group 1000004452">
<g id="Mask group">
<mask id="mask0_137_940" style="mask-type:luminance" maskUnits="userSpaceOnUse" x="0" y="0" width="71" height="71">
<g id="Group">
<path id="path1623" fill-rule="evenodd" clip-rule="evenodd" d="M17.6457 0.0322714L20.6834 0L52.2808 0.0129102C52.7606 0.0172132 53.0596 0.0236654 53.3565 0.0322714C54.9227 0.0731502 56.504 0.163515 58.053 0.44106C59.6046 0.702874 61.109 1.193 62.5171 1.89549C63.9198 2.60118 65.2063 3.52203 66.3186 4.62576C67.4313 5.72423 68.363 6.99215 69.0788 8.3823C69.8103 9.79585 70.2685 11.2438 70.5504 12.7972C70.83 14.3291 70.9226 15.8911 70.9634 17.4402C70.9849 18.1502 70.9935 18.8602 70.9957 19.5723L71 20.8396V48.8889C71 49.7323 71 50.5778 70.9957 51.4234C70.9914 52.1334 70.9849 52.8434 70.9634 53.5534C70.9204 55.1025 70.83 56.6666 70.5504 58.1963C70.2849 59.7337 69.7888 61.2221 69.0788 62.6112C68.3626 64.0018 67.431 65.2704 66.3186 66.3699C65.202 67.4733 63.9192 68.3946 62.5171 69.1002C61.109 69.8028 59.6047 70.2929 58.053 70.5546C56.504 70.83 54.9227 70.9204 53.3565 70.9634L48.6364 71L18.7192 70.9828C18.3613 70.9789 18.0034 70.9717 17.6457 70.9613C16.0794 70.9225 14.4982 70.83 12.9492 70.5546C11.3982 70.2928 9.89459 69.8027 8.48721 69.1002C5.67008 67.6824 3.37227 65.4115 1.92119 62.6112C1.21226 61.2217 0.716203 59.7334 0.449639 58.1963C0.169959 56.6666 0.0796005 55.1025 0.0387242 53.5555C0.0172103 52.8455 0.0107575 52.1334 0.00645471 51.4234L0 50.1518V22.1068C0 21.2634 5.58012e-07 20.4179 0.00645471 19.5745C0.0107575 18.8645 0.0193617 18.1545 0.0387242 17.4423C0.0817519 15.8932 0.17211 14.3312 0.449639 12.7994C0.716044 11.2623 1.21211 9.77398 1.92119 8.38445C3.37015 5.58336 5.6676 3.31213 8.48506 1.89549C9.89316 1.19297 11.3975 0.702843 12.9492 0.44106C14.4982 0.165666 16.0794 0.0753017 17.6457 0.0322714Z" fill="white"/>
</g>
</mask>
<g mask="url(#mask0_137_940)">
<g id="g1636">
<path id="path1626" d="M-3.29883 -0.532227H74.8732V77.6398H-3.29883V-0.532227Z" fill="#19AA1E"/>
<path id="path1628" fill-rule="evenodd" clip-rule="evenodd" d="M-3.29883 -0.532227H74.8732V25.1154L-3.29883 12.9027V-0.532227Z" fill="#FFB919"/>
<path id="path1630" fill-rule="evenodd" clip-rule="evenodd" d="M-3.29883 69.0867L74.8732 56.874V77.6375H-3.29883V69.0867Z" fill="#82D714"/>
<path id="path1632" fill-rule="evenodd" clip-rule="evenodd" d="M-3.29883 11.3574L23.9878 15.621C27.3845 13.4702 31.4254 12.2907 35.786 12.2907C41.826 12.2907 47.255 14.5527 51.2058 18.5225C51.7032 19.0247 52.1722 19.5482 52.6152 20.0929L74.8732 23.5701V26.6612L54.8748 23.5346C56.3716 26.3959 57.1557 29.5762 57.1606 32.8054C57.1606 36.9932 56.225 41.1691 54.2874 45.3615L54.2306 45.4895L53.4063 47.2517H51.464C47.4468 47.2517 44.7845 48.4526 43.0411 50.582C41.6744 52.2519 40.8833 54.5068 40.618 56.9655L40.6086 57.0413L40.5707 57.4345L40.5541 57.605L40.5209 57.939C40.4191 59.038 40.3527 59.9689 40.3172 60.7269L74.8732 55.3264V58.4175L-3.29883 70.6325V67.5414L31.2951 62.1362L31.2809 61.4422L31.2761 61.248L31.2714 61.1461L31.2667 60.9922C31.2359 60.1513 31.1577 59.0736 31.0345 57.7661L31.0108 57.5174L30.9682 57.0887C30.7219 54.6158 29.9426 52.3348 28.5759 50.6389C26.8539 48.4953 24.2176 47.2754 20.2312 47.2517H18.1657L17.3438 45.4895C15.3684 41.2543 14.4115 37.0358 14.4115 32.8054C14.4115 27.4855 16.5693 22.3408 20.3686 18.5225L20.7002 18.198L-3.29883 14.4461V11.3574Z" fill="white"/>
<path id="path1634" fill-rule="evenodd" clip-rule="evenodd" d="M35.7862 15.3438C46.7009 15.3438 54.1076 23.7429 54.1076 32.8053C54.1076 36.4436 53.3141 40.2286 51.4619 44.1985C40.7248 44.1985 38.0743 51.8871 37.5722 56.7285L37.539 57.0483C37.3709 58.7774 37.2714 60.1631 37.2453 61.2053L34.3366 61.66V61.5653C34.2961 60.026 34.1918 58.489 34.024 56.9583L34.0169 56.873C33.5526 52.0434 30.959 44.1985 20.113 44.1985C18.2583 40.2286 17.4648 36.4436 17.4648 32.8053C17.4648 23.7429 24.8739 15.3438 35.7862 15.3438Z" fill="#0073FA"/>
</g>
</g>
</g>
</g>
</svg>
